<svg xmlns="http://www.w3.org/2000/svg" width="1280" height="109.811" viewBox="0 0 1280 109.811">
  <g id="グループ_18" data-name="グループ 18" transform="translate(-1389 -8696.197)" opacity="0.499">
    <path id="パス_172" data-name="パス 172" d="M143.74,109.559H211V93.7H160.211V62.739h42.4V46.878h-42.4V18.664H211V2.8H143.74Z" transform="translate(1366.199 8694.922)" fill="#fff"/>
    <path id="パス_173" data-name="パス 173" d="M75.576,37.88q0,6.71.153,12.963t.381,11.972q.229,5.719.61,10.828t.839,9.608c.092.9.189,1.772.29,2.631L15.793,2.8H1V109.559H17.471V65.179q0-1.373-.076-3.2t-.229-4.651Q17.013,54.5,16.632,50t-.915-10.981q-.389-4.714-.9-10.927l62.13,81.462h15.1V2.8H75.576Z" transform="translate(1388 8694.922)" fill="#fff"/>
    <path id="パス_174" data-name="パス 174" d="M386.85,2.8,345.52,109.559H362.3l10.093-26.536h44.661l10.061,26.536H444.65L403.626,2.8Zm-8.427,64.358,8.122-21.351,2.288-6.482q1.373-3.889,2.821-8.312t2.745-8.388c.148-.455.289-.879.43-1.306l.1.315q1.373,4.194,3.05,9.227t2.974,9.15q1.3,4.118,1.754,5.185l8.326,21.961Z" transform="translate(1335.38 8694.922)" fill="#fff"/>
    <path id="パス_175" data-name="パス 175" d="M336.025,2.8H317.114L289.042,47l-30.8-44.2H238.42L280.512,62.3v47.261h16.471V62.015Z" transform="translate(1351.738 8694.922)" fill="#fff"/>
    <path id="パス_176" data-name="パス 176" d="M574.7,57.922q-.153-1.6-.458-3.279H526.963V70.961h30.349v.915a18.354,18.354,0,0,1-2.288,8.922,23.794,23.794,0,0,1-6.405,7.4,31.038,31.038,0,0,1-9.455,4.957,35.914,35.914,0,0,1-11.286,1.754,37.614,37.614,0,0,1-15.022-3.05,40.349,40.349,0,0,1-12.506-8.388,38.8,38.8,0,0,1-8.464-12.429,37.614,37.614,0,0,1-3.05-15.022,38.993,38.993,0,0,1,2.9-15.175,36.688,36.688,0,0,1,8.159-12.124,38.139,38.139,0,0,1,12.2-8.083,38.992,38.992,0,0,1,15.174-2.9,34.556,34.556,0,0,1,10.066,1.525,43.382,43.382,0,0,1,9.837,4.423A52.807,52.807,0,0,1,556.549,31l10.676-11.133a39.835,39.835,0,0,0-10.218-9.455A52.26,52.26,0,0,0,543.052,4.01a55.132,55.132,0,0,0-15.785-2.288A56.638,56.638,0,0,0,505.611,5.84,54.228,54.228,0,0,0,488,17.355a52.737,52.737,0,0,0-11.743,17.31,54.214,54.214,0,0,0-4.194,21.351,55.174,55.174,0,0,0,4.194,21.58,52.806,52.806,0,0,0,11.819,17.462,55.561,55.561,0,0,0,39.347,15.861,50.05,50.05,0,0,0,18.682-3.431A46.046,46.046,0,0,0,561.2,97.8a44.672,44.672,0,0,0,10.142-14.87A48.478,48.478,0,0,0,575,63.793q0-1.373-.076-2.821T574.7,57.922Z" transform="translate(1316.054 8695.087)" fill="#fff"/>
    <path id="パス_177" data-name="パス 177" d="M645.33,2.8,604,109.559h16.776l10.094-26.536h44.661l10.061,26.536H703.13L662.106,2.8ZM636.9,67.161l8.122-21.351,2.288-6.482q1.373-3.889,2.821-8.312t2.745-8.388c.148-.455.289-.879.43-1.306l.1.315q1.373,4.194,3.05,9.227t2.974,9.15q1.3,4.118,1.754,5.185l8.326,21.961Z" transform="translate(1295.902 8694.922)" fill="#fff"/>
    <path id="パス_178" data-name="パス 178" d="M1335.45,2.8l-41.33,106.756H1310.9l10.094-26.536h44.661l10.061,26.536h17.538L1352.225,2.8Zm-8.428,64.358,8.123-21.351,2.287-6.482q1.373-3.889,2.821-8.312T1343,22.629c.148-.455.289-.879.43-1.307.035.108.067.206.1.316q1.374,4.194,3.051,9.227t2.973,9.15q1.295,4.118,1.754,5.185l8.327,21.961Z" transform="translate(1190.498 8694.922)" fill="#fff"/>
    <path id="パス_179" data-name="パス 179" d="M1449.731,93.7V2.8H1433.26V109.559h66.494V93.7Z" transform="translate(1169.246 8694.922)" fill="#fff"/>
    <path id="パス_180" data-name="パス 180" d="M1196.74,109.559H1264V93.7h-50.785V62.739h42.4V46.878h-42.4V18.664H1264V2.8H1196.74Z" transform="translate(1205.371 8694.922)" fill="#fff"/>
    <path id="パス_181" data-name="パス 181" d="M829.223,69.144Q828,73.109,827.317,75.4t-.991,3.736q-.305,1.449-.61,2.974c-.043.217-.089.453-.135.7-.539-2.037-1.122-4.074-1.772-6.11q-1.144-3.584-2.669-7.244L802.534,21.256H787.741L768.525,69.449q-.61,1.678-1.373,4.041t-2.059,6.787c-.29.989-.62,2.127-.985,3.391q-.154-.841-.312-1.713-.61-3.355-1.373-6.634a46.289,46.289,0,0,0-1.678-5.719L740.158,2.8H722.62l34.009,106.756h11.133l26.6-64.849,27.39,64.849h11.438L867.2,2.8H849.507Z" transform="translate(1277.785 8694.922)" fill="#fff"/>
    <path id="パス_182" data-name="パス 182" d="M936.21,2.8,894.88,109.559h16.776l10.094-26.536h44.661l10.061,26.536H994.01L952.986,2.8Zm-8.427,64.358L935.9,45.81l2.288-6.482q1.373-3.889,2.821-8.312t2.745-8.388c.148-.455.289-.879.43-1.306l.1.315q1.373,4.194,3.05,9.227t2.974,9.15q1.3,4.118,1.754,5.185L960.4,67.161Z" transform="translate(1251.475 8694.922)" fill="#fff"/>
    <path id="パス_183" data-name="パス 183" d="M1145.629,58.8a45.1,45.1,0,0,0-11.133-6.634,82.223,82.223,0,0,0-14.946-4.651,68.707,68.707,0,0,1-10.218-2.821,24.06,24.06,0,0,1-6.787-3.66,13.173,13.173,0,0,1-3.736-4.728,13.946,13.946,0,0,1-1.22-5.872,12.288,12.288,0,0,1,2.516-7.7,16.425,16.425,0,0,1,6.939-5.109,27.383,27.383,0,0,1,28.519,5.109,37.258,37.258,0,0,1,6.863,8.464l11.591-11.438a35.341,35.341,0,0,0-8.845-10.294,37.634,37.634,0,0,0-12.2-6.329A50.638,50.638,0,0,0,1117.872,1a46.019,46.019,0,0,0-14.488,2.211,36.172,36.172,0,0,0-11.667,6.253A29.769,29.769,0,0,0,1083.939,19a25.64,25.64,0,0,0-2.821,11.9,33.3,33.3,0,0,0,1.983,11.819,26.23,26.23,0,0,0,6.1,9.379,33.961,33.961,0,0,0,10.218,6.863,68.219,68.219,0,0,0,14.336,4.423,67.348,67.348,0,0,1,9.151,2.211,38.449,38.449,0,0,1,6.939,2.974,21.066,21.066,0,0,1,4.88,3.66,12.856,12.856,0,0,1,2.821,4.423,14.634,14.634,0,0,1,.915,5.185,10.932,10.932,0,0,1-2.745,7.32,18.309,18.309,0,0,1-7.473,5.033,28.944,28.944,0,0,1-10.523,1.83A31.128,31.128,0,0,1,1101.4,91.9q-6.863-4.118-14.336-14.793L1075.78,90.067a50.782,50.782,0,0,0,10.752,11.514,42.145,42.145,0,0,0,13.421,6.939,54.219,54.219,0,0,0,16.09,2.288q12.048,0,20.741-4.041A30.776,30.776,0,0,0,1150.2,95.252a32.39,32.39,0,0,0,4.728-17.691,22.523,22.523,0,0,0-2.364-10.218A26.661,26.661,0,0,0,1145.629,58.8Z" transform="translate(1223.846 8695.197)" fill="#fff"/>
  </g>
</svg>
