<svg xmlns="http://www.w3.org/2000/svg" width="700" height="195.342" viewBox="0 0 700 195.342">
  <defs>
    <style>
      .cls-1 {
        fill: #fff;
      }
    </style>
  </defs>
  <g id="グループ_87" data-name="グループ 87" transform="translate(18205 4710.39)">
    <g id="グループ_86" data-name="グループ 86" transform="translate(-18205 -4710.39)">
      <path id="パス_172" data-name="パス 172" class="cls-1" d="M143.74,90.054h54.968V77.091H157.2v-25.3h34.651V38.825H157.2V15.766h41.506V2.8H143.74Z" transform="translate(-44.897 -2.053)"/>
      <path id="パス_173" data-name="パス 173" class="cls-1" d="M61.951,31.471q0,5.484.125,10.595t.312,9.785q.187,4.674.5,8.85t.686,7.853c.075.735.154,1.449.237,2.15L13.09,2.8H1V90.054H14.462V53.782q0-1.122-.062-2.618t-.187-3.8q-.125-2.306-.436-5.983t-.748-8.974q-.318-3.853-.734-8.931L63.073,90.054h12.34V2.8H61.951Z" transform="translate(-1 -2.053)"/>
      <path id="パス_174" data-name="パス 174" class="cls-1" d="M379.3,2.8,345.52,90.054h13.711l8.249-21.688h36.5L412.2,90.054h14.334L393.009,2.8Zm-6.887,52.6,6.638-17.45,1.87-5.3q1.122-3.178,2.306-6.793t2.244-6.855c.121-.372.236-.718.351-1.068l.085.258q1.122,3.428,2.493,7.541t2.431,7.479q1.059,3.365,1.433,4.238l6.8,17.949Z" transform="translate(-106.951 -2.053)"/>
      <path id="パス_175" data-name="パス 175" class="cls-1" d="M318.192,2.8H302.736L279.793,38.925,254.624,2.8h-16.2l34.4,48.624V90.054h13.462V51.2Z" transform="translate(-74.014 -2.053)"/>
      <path id="パス_176" data-name="パス 176" class="cls-1" d="M555.945,47.654q-.125-1.309-.374-2.68h-38.64V58.311h24.8v.748a15,15,0,0,1-1.87,7.292A19.447,19.447,0,0,1,534.63,72.4a25.367,25.367,0,0,1-7.728,4.051,29.353,29.353,0,0,1-9.224,1.433A30.742,30.742,0,0,1,505.4,75.387a32.977,32.977,0,0,1-10.221-6.855,31.715,31.715,0,0,1-6.918-10.158A30.743,30.743,0,0,1,485.77,46.1a31.869,31.869,0,0,1,2.368-12.4,29.985,29.985,0,0,1,6.668-9.909,31.171,31.171,0,0,1,9.972-6.606,31.868,31.868,0,0,1,12.4-2.368,28.242,28.242,0,0,1,8.227,1.246,35.456,35.456,0,0,1,8.04,3.615,43.159,43.159,0,0,1,7.666,5.983l8.725-9.1a32.557,32.557,0,0,0-8.351-7.728,42.712,42.712,0,0,0-11.4-5.235,45.059,45.059,0,0,0-12.9-1.87,46.29,46.29,0,0,0-17.7,3.365,44.32,44.32,0,0,0-14.4,9.411,43.1,43.1,0,0,0-9.6,14.147,44.309,44.309,0,0,0-3.428,17.45,45.093,45.093,0,0,0,3.428,17.637A43.158,43.158,0,0,0,485.147,78a45.409,45.409,0,0,0,32.158,12.963,40.906,40.906,0,0,0,15.269-2.8,37.634,37.634,0,0,0,12.34-7.915A36.509,36.509,0,0,0,553.2,68.1a39.621,39.621,0,0,0,2.991-15.643q0-1.122-.062-2.306T555.945,47.654Z" transform="translate(-145.865 -1.721)"/>
      <path id="パス_177" data-name="パス 177" class="cls-1" d="M637.779,2.8,604,90.054h13.711l8.249-21.688h36.5l8.223,21.688h14.334L651.489,2.8Zm-6.887,52.6,6.638-17.45,1.87-5.3q1.122-3.178,2.306-6.793t2.244-6.855c.121-.372.236-.718.351-1.068l.085.258q1.122,3.428,2.493,7.541t2.431,7.479q1.059,3.365,1.433,4.238l6.8,17.949Z" transform="translate(-186.442 -2.053)"/>
      <path id="パス_181" data-name="パス 181" class="cls-1" d="M809.746,57.023q-1,3.241-1.558,5.11t-.81,3.054q-.249,1.184-.5,2.431c-.035.177-.073.37-.11.569-.44-1.665-.917-3.329-1.448-4.994q-.935-2.929-2.181-5.921L787.933,17.885H775.843L760.138,57.272q-.5,1.371-1.122,3.3t-1.683,5.547c-.237.808-.507,1.739-.8,2.771q-.126-.688-.255-1.4-.5-2.742-1.122-5.422a37.825,37.825,0,0,0-1.371-4.674L736.954,2.8H722.62l27.8,87.251h9.1l21.738-53,22.386,53h9.348L840.782,2.8H826.324Z" transform="translate(-222.922 -2.053)"/>
      <path id="パス_182" data-name="パス 182" class="cls-1" d="M928.659,2.8,894.88,90.054h13.711l8.249-21.688h36.5l8.223,21.688H975.9L942.369,2.8Zm-6.887,52.6,6.638-17.45,1.87-5.3q1.122-3.178,2.306-6.793t2.244-6.855c.121-.372.236-.718.351-1.068l.085.258q1.122,3.428,2.493,7.541t2.431,7.479q1.059,3.365,1.433,4.238l6.8,17.949Z" transform="translate(-275.898 -2.053)"/>
    </g>
    <g id="グループ_85" data-name="グループ 85" transform="translate(-18205 -4604.795)">
      <path id="パス_178" data-name="パス 178" class="cls-1" d="M1327.9,2.8,1294.12,90.054h13.711l8.249-21.688h36.5l8.223,21.688h14.334L1341.609,2.8Zm-6.888,52.6,6.639-17.45,1.869-5.3q1.122-3.178,2.306-6.793t2.244-6.855c.121-.372.236-.718.352-1.068.028.088.055.168.084.258q1.123,3.428,2.494,7.541t2.43,7.479q1.058,3.365,1.433,4.238l6.806,17.949Z" transform="translate(-1142.926 -1.554)"/>
      <path id="パス_179" data-name="パス 179" class="cls-1" d="M1446.721,77.091V2.8H1433.26V90.054H1487.6V77.091Z" transform="translate(-1185.717 -1.554)"/>
      <path id="パス_180" data-name="パス 180" class="cls-1" d="M1196.74,90.054h54.968V77.091H1210.2v-25.3h34.651V38.825H1210.2V15.766h41.507V2.8H1196.74Z" transform="translate(-1112.979 -1.554)"/>
      <path id="パス_183" data-name="パス 183" class="cls-1" d="M1132.867,48.242a36.861,36.861,0,0,0-9.1-5.422,67.2,67.2,0,0,0-12.215-3.8,56.155,56.155,0,0,1-8.351-2.306,19.665,19.665,0,0,1-5.547-2.991,10.767,10.767,0,0,1-3.054-3.864,11.4,11.4,0,0,1-1-4.8,10.043,10.043,0,0,1,2.057-6.295,13.424,13.424,0,0,1,5.671-4.176,22.379,22.379,0,0,1,23.308,4.176,30.449,30.449,0,0,1,5.609,6.918l9.473-9.348a28.882,28.882,0,0,0-7.229-8.413,30.757,30.757,0,0,0-9.972-5.173A41.386,41.386,0,0,0,1110.182,1a37.61,37.61,0,0,0-11.841,1.807,29.562,29.562,0,0,0-9.535,5.11,24.328,24.328,0,0,0-6.357,7.79,20.955,20.955,0,0,0-2.306,9.722,27.22,27.22,0,0,0,1.62,9.66,21.438,21.438,0,0,0,4.986,7.666,27.756,27.756,0,0,0,8.351,5.609,55.755,55.755,0,0,0,11.717,3.615,55.045,55.045,0,0,1,7.479,1.807,31.424,31.424,0,0,1,5.671,2.431,17.219,17.219,0,0,1,3.989,2.991,10.508,10.508,0,0,1,2.306,3.615,11.959,11.959,0,0,1,.748,4.238,8.935,8.935,0,0,1-2.244,5.983,14.965,14.965,0,0,1-6.108,4.113,23.656,23.656,0,0,1-8.6,1.5,25.441,25.441,0,0,1-13.337-3.365Q1091.111,71.924,1085,63.2l-9.224,10.595a41.5,41.5,0,0,0,8.787,9.411,34.447,34.447,0,0,0,10.969,5.671,44.313,44.313,0,0,0,13.15,1.87,39.927,39.927,0,0,0,16.951-3.3,25.153,25.153,0,0,0,10.969-9.411,26.472,26.472,0,0,0,3.864-14.459,18.408,18.408,0,0,0-1.932-8.351A21.79,21.79,0,0,0,1132.867,48.242Z" transform="translate(-1075.779 -1)"/>
    </g>
  </g>
</svg>
