<svg id="コンポーネント_2_2" data-name="コンポーネント 2 – 2" xmlns="http://www.w3.org/2000/svg" xmlns:xlink="http://www.w3.org/1999/xlink" width="96.129" height="158" viewBox="0 0 96.129 158">
  <defs>
    <clipPath id="clip-path">
      <rect id="長方形_57" data-name="長方形 57" width="96.129" height="68.595" transform="translate(0 0)" fill="none"/>
    </clipPath>
  </defs>
  <path id="パス_196" data-name="パス 196" d="M0,43,15,53v97H0Z" transform="translate(0 8)" fill="#e54300"/>
  <g id="グループ_20" data-name="グループ 20" transform="translate(0 0)">
    <g id="グループ_19" data-name="グループ 19" clip-path="url(#clip-path)">
      <path id="パス_184" data-name="パス 184" d="M75.3,38.983l-.008-.1-.062-.074a20.922,20.922,0,0,0-6.04-4.764A47.918,47.918,0,0,0,64,31.865c.4-.3,1.027-.767,1.791-1.383a34.911,34.911,0,0,0,2.632-2.354l.195-.2-4.285-5.24a10.152,10.152,0,0,1-.472,1.674c-3.427,9-12.937,9-12.937,9A6.743,6.743,0,0,1,51,37.233l.271-.2c1.017-.738,2.8-.339,3.2-.24.464.5,3.514,3.849,4.228,5.907a1.488,1.488,0,0,1-.066,1.275,3.771,3.771,0,0,1-2.174,1.345l-.45.1.263.377a12.008,12.008,0,0,0,3.906,3.573,10.494,10.494,0,0,0,4.3,1.049,4.28,4.28,0,0,0,.922-.08l.221-.052.192-2.694,1.622,2.191.243-.158c.024-.016,2.462-1.6,4.756-3.347,3.226-2.456,2.886-7.1,2.87-7.3" fill="#e54300"/>
      <path id="パス_185" data-name="パス 185" d="M10.568,62.489c2.738-1.539,5.508-1.81,6.184-.6s-.991,3.432-3.728,4.97-5.509,1.808-6.186.6.992-3.431,3.73-4.97" fill="#e54300"/>
      <path id="パス_186" data-name="パス 186" d="M15.694,51.162l.789,2.562s7.123-1.633,9.535-2.561,1.535-5.478-2.75-3.508c-4.319,1.984-7.574,3.507-7.574,3.507" fill="#fff"/>
      <path id="パス_187" data-name="パス 187" d="M50.921,33.362s9.51.007,12.937-9c2-5.265-.191-13.434-10.178-16.556-7.461-2.336-16.854,1.239-19.227,7.564-3.018,8.041,3.708,14.2,3.708,14.2s-9.891,3.594-7.3,12C32.871,48.123,42.733,49.6,47.8,43.35c4.857-5.991,3.122-9.988,3.122-9.988" fill="#f9c9b6"/>
      <path id="パス_188" data-name="パス 188" d="M46.7,5.549c-.071,1.027,1.926,2.311,5.508,3.6,4.792,1.73,6.952,1.754,7.673.534.363-.615-.563-1.036-.5-2.529S59.646,1.311,55.89.522c-4.037-.85-5.713,1.914-6.711,3.2S46.791,4.2,46.7,5.549" fill="#fff"/>
      <path id="パス_189" data-name="パス 189" d="M59.22,36.555a1.084,1.084,0,1,0,1.5.292,1.087,1.087,0,0,0-1.5-.292" fill="#474645"/>
      <path id="パス_190" data-name="パス 190" d="M62.53,39.762a1.082,1.082,0,1,0,1.5.29,1.08,1.08,0,0,0-1.5-.29" fill="#474645"/>
      <path id="パス_191" data-name="パス 191" d="M41.155,24.744a2.375,2.375,0,0,0-1.518,2.94,2.377,2.377,0,0,0,2.5,2.162,2.375,2.375,0,0,0,1.518-2.938,2.375,2.375,0,0,0-2.505-2.164" fill="#474645"/>
      <path id="パス_192" data-name="パス 192" d="M52.419,26.582a2.444,2.444,0,0,0-2.356,2.468,2.444,2.444,0,0,0,1.847,2.868,2.447,2.447,0,0,0,2.357-2.468,2.444,2.444,0,0,0-1.848-2.868" fill="#474645"/>
      <path id="パス_193" data-name="パス 193" d="M37.964,39.354l-1.635.709-.44-1.319a.363.363,0,0,0-.689.23l.566,1.695a.366.366,0,0,0,.344.249.362.362,0,0,0,.145-.03l2-.868a.363.363,0,1,0-.29-.666" fill="#474645"/>
      <path id="パス_194" data-name="パス 194" d="M94.009,24.073a12.255,12.255,0,0,0-8.371-4.362,10.343,10.343,0,0,0-7.662,2.873,9.651,9.651,0,0,0-2.823,8.788,7.316,7.316,0,0,0,4.063,5.73,7.856,7.856,0,0,0,7.86-1.508,4.884,4.884,0,0,0,1.889-4.871,5.714,5.714,0,0,0-3.588-4.288,3.2,3.2,0,0,0-3.142.6,3.551,3.551,0,0,0-1.048,4.286,2.35,2.35,0,0,0,2.655,1.3.606.606,0,1,0-.272-1.181,1.166,1.166,0,0,1-1.306-.678,2.364,2.364,0,0,1,.774-2.824,1.992,1.992,0,0,1,1.98-.351,4.543,4.543,0,0,1,2.773,3.425,3.73,3.73,0,0,1-1.508,3.663,6.713,6.713,0,0,1-6.607,1.3,6.134,6.134,0,0,1-3.33-4.821,8.43,8.43,0,0,1,2.445-7.681,9.147,9.147,0,0,1,6.776-2.56A11.043,11.043,0,0,1,93.1,24.867a8.038,8.038,0,0,1,1.576,7.159c-.9,3.742-4.077,6.89-8.952,8.863a20.917,20.917,0,0,1-7.99,1,5.759,5.759,0,0,0-3.112-4,21.089,21.089,0,0,0-5.35-3.995,46.914,46.914,0,0,0-4.9-2.079c.389-.291.913-.692,1.531-1.191a34.354,34.354,0,0,0,2.647-2.368l.306-.31-2.509-3.068a103.3,103.3,0,0,1,6.468-8.723c4.144-4.357,7.943-2.256,7.943-2.256a5.351,5.351,0,0,0,1.337,2.853c1.121,1.069,3.568.717,3.775-.282s-1.093-1.257-1.9-.985c-1.18.4-1.479-1.351-1.479-1.351a13.287,13.287,0,0,1,5.066-1.076c1.126.081,2.622.25,3.064-.66.358-.735-1.135-1.718-2.911-1.465a38.775,38.775,0,0,0-4.811,1.321s2.133-1.868,2.909-2.434S88.41,8.74,88.371,7.87c-.038-.9-1.61-.865-2.5-.349-1.614.937-3.482,3.844-3.482,3.844a8.252,8.252,0,0,1,1.074-3.129c.778-1.382,2.337-2.03,2-2.849s-2.4,0-3.362,2.186a18.289,18.289,0,0,0-1.259,4.436,22.754,22.754,0,0,0-4.076-1.047c-1.944-.3-5.9,1.122-8.885,5.59-.973,1.457-1.981,2.881-2.9,4.144,0-.3,0-.6-.017-.9a32.229,32.229,0,0,0,1.65-3.356c.886-2.112,1.564-4.84-.279-4.874-1.476-.026-1.272,1.844-1.718,6.09a12.667,12.667,0,0,0-.935-2.573,13.73,13.73,0,0,0-3.921-4.711,1.841,1.841,0,0,0,.431-.5,1.2,1.2,0,0,0-.1-1.232,2.823,2.823,0,0,1-.351-1.517c.06-1.512.243-6.113-3.772-6.956C52.011-.667,50.137,1.84,49.13,3.187c-.084.113-.163.219-.24.317a2.048,2.048,0,0,1-1.29.735c-.534.135-1.2.3-1.267,1.284a1.639,1.639,0,0,0,.533,1.205C41.107,7.348,35.726,10.6,34,15.2a12.355,12.355,0,0,0-.771,3.511c-.708-2.456-1.648-4.534-2.616-3.768-1.787,1.413,1.364,6.928,3.495,9.3a17.064,17.064,0,0,0,3.215,5.162c-2.181,1-8.81,4.683-7.1,11.678l-6.157,5.668s-2-1.355-3.163-.707c-1.128.628-1.258,2.259-.567,2.749-2.82,1.3-4.721,2.193-4.721,2.193l-.152.071.339,1.1-4.242,1.287,9.458,9.772L13.631,67.5l-.228-.422c2.845-1.661,4.459-4,3.683-5.378C17,61.542,5.612,48.259,5.612,48.259L0,51.473S6.381,67.428,6.5,67.646a2.29,2.29,0,0,0,2.144.949c.174,0,.357-.009.546-.027a10.458,10.458,0,0,0,3.728-1.231l.495.917L21.9,63.341,12.574,53.71l3.387-1.028.391,1.269.175-.039c.217-.05,4.11-.945,7.064-1.779A2.83,2.83,0,0,0,26.536,52a1.9,1.9,0,0,0,.61-1.507,2.292,2.292,0,0,0,.363-.966,2.121,2.121,0,0,0-1.477-2.42,43.512,43.512,0,0,1,5.056-3.775A9.173,9.173,0,0,0,37.612,47.7a11.146,11.146,0,0,0,1.968.177,10.813,10.813,0,0,0,8.6-4.236,15.87,15.87,0,0,0,2.985-6.285c.764-.814,2.457-.6,3.2-.408.556.6,3.47,3.827,4.157,5.809a1.318,1.318,0,0,1-.053,1.13,3,3,0,0,1-1.58,1.114,6.34,6.34,0,0,0-2.031-.486c-4.225-.3-7.214,1.536-8.247,4.938-1.7,5.591,3.8,10.451,3.8,10.451s-8.207-3.778-9.738-1.98,4.091,3.35,7.278,3.613,4.474-.619,4.474-.619-3.393-4.957-2.512-9.021c.47-2.177,4.06-3.6,5.755-3.221,2.877.65,6.093,3.119,11.005,2.839,4.116-.234,4.546-1.729,5.9-.843,3.6,2.351-7.751,2.448-7.751,2.448s-.823,1.852,1.145,3.87c1.323,1.357,4.846,2.872,5.621.875.61-1.576-4.029-3.287-4.029-3.287s5.838,1.224,9.525-.742,4.3-4.9,1.425-6.687a2.839,2.839,0,0,0-2.619-.363,4.227,4.227,0,0,0,1.985-3.679c.325.009.653.015.985.015a20.3,20.3,0,0,0,7.309-1.114c5.248-2.124,8.684-5.57,9.675-9.7a9.244,9.244,0,0,0-1.839-8.236M12.035,64.541a.274.274,0,1,0-.482.26l1,1.862A9.685,9.685,0,0,1,9.12,67.805c-1,.1-1.7-.1-1.948-.534-.491-.875.86-2.918,3.583-4.448a9.317,9.317,0,0,1,4.195-1.307,2.907,2.907,0,0,1,.787.1,1.061,1.061,0,0,1,.68.463c.479.853-.794,2.812-3.378,4.327Zm9.892-16.579c-.015-.578.419-.488.824-.283l-.835.385c0-.035.012-.067.011-.1m3.061,2.551c-.72,1.1-1.052-.471-2.212.14-.359.19-.153.747.39,1.2-2.591.718-5.777,1.465-6.551,1.645l-.687-2.23c.527-.246,2.386-1.113,4.918-2.283a.975.975,0,0,0,.88-.406l1.428-.657c.162.11.274.2.274.2.276.1,2.081,1.6,1.56,2.394m1.452-2.785a1.839,1.839,0,0,1,.687,1.727c-.214-.739-1.757-1.691-1.678-1.776s.172-.175.261-.264a1.837,1.837,0,0,1,.73.313M47.779,4.943a2.757,2.757,0,0,0,1.687-.994c.078-.1.16-.211.246-.327,1.037-1.387,2.6-3.479,6.1-2.745,3.413.717,3.255,4.712,3.193,6.267a3.291,3.291,0,0,0,.076.84.243.243,0,0,0-.162-.043c-3.5.433-8.185-2.177-8.231-2.2a.242.242,0,0,0-.238.422c.182.1,4.153,2.314,7.638,2.314a7.244,7.244,0,0,0,.889-.052.237.237,0,0,0,.18-.127,4.9,4.9,0,0,0,.273.662c.176.36.194.436.13.545-.638,1.08-2.937.862-7.236-.691C48.375,7.385,47.014,6.2,47.058,5.574c.03-.438.174-.493.721-.631m3.153,27.935-.589-.012.1.579a13.423,13.423,0,0,1-3.029,9.61,9.87,9.87,0,0,1-9.63,3.695c-.167-.03-.331-.066-.494-.1C48.392,43.425,47.355,34,47.343,33.909a.246.246,0,0,0-.271-.211.243.243,0,0,0-.21.271c.011.092,1.022,9.225-9.911,12.275a.239.239,0,0,0-.171.269,7.746,7.746,0,0,1-5.462-5.083A7.837,7.837,0,0,1,33.844,32.8a15.379,15.379,0,0,1,4.482-2.769l.75-.274-.589-.538c-.065-.06-6.451-6.029-3.582-13.674a10.132,10.132,0,0,1,2.616-3.789,10.857,10.857,0,0,1,7.633-1.178,6.815,6.815,0,0,1,5.09,5.6s4.957-3.681,9.142,0c3.965,3.485,3.336,8.675,3.07,10.108-3.719,6.688-11.185,6.613-11.524,6.6M72.24,46.036C69.928,47.793,67.5,49.37,67.5,49.37l-1.945-2.627-.234,3.3a8.529,8.529,0,0,1-5.023-.95,11.858,11.858,0,0,1-3.781-3.469s3.269-.712,2.466-3.021-4.355-6.081-4.355-6.081a5.16,5.16,0,0,0-3.325.13,12.269,12.269,0,0,0,.155-2.822c2.136-.125,9.894-1.147,12.853-9.3.119-.328.216-.664.3-1L68.2,27.912a34.116,34.116,0,0,1-2.607,2.33c-1.353,1.092-2.258,1.72-2.258,1.72a48.192,48.192,0,0,1,5.712,2.36,20.853,20.853,0,0,1,5.942,4.686s.379,4.645-2.75,7.028" fill="#474645"/>
      <path id="パス_195" data-name="パス 195" d="M64.88,32.847a.257.257,0,0,0-.232.088l-2.689,3.257a.25.25,0,0,0,.006.326,8.926,8.926,0,0,0,2.83,2.106,2.941,2.941,0,0,0,1.068.214,2.206,2.206,0,0,0,1.359-.451,2.911,2.911,0,0,0,1.024-2.628c-.245-2.4-3.239-2.893-3.366-2.912m2.038,5.141a1.919,1.919,0,0,1-1.941.17,8.173,8.173,0,0,1-2.49-1.817l2.453-2.972c.557.121,2.628.688,2.807,2.441a2.442,2.442,0,0,1-.829,2.178" fill="#474645"/>
    </g>
  </g>
  <text id="TOP" transform="translate(60 78)" fill="#474645" font-size="14" font-family="LexendDeca-Regular, Lexend Deca" letter-spacing="0.075em"><tspan x="-14.784" y="0">TOP</tspan></text>
</svg>
