<svg xmlns="http://www.w3.org/2000/svg" xmlns:xlink="http://www.w3.org/1999/xlink" width="598" height="525" viewBox="0 0 598 525">
  <defs>
    <linearGradient id="linear-gradient" x1="0.5" x2="0.5" y2="1" gradientUnits="objectBoundingBox">
      <stop offset="0" stop-color="#e54300"/>
      <stop offset="1" stop-color="#ffb798"/>
    </linearGradient>
  </defs>
  <g id="グループ_54" data-name="グループ 54" transform="translate(-580 -3738)">
    <path id="パス_165" data-name="パス 165" d="M501.537,0,224.408,480H778.667Z" transform="translate(378.592 3781.999)" fill="url(#linear-gradient)"/>
    <g id="グループ_30" data-name="グループ 30" transform="translate(0 -314)">
      <path id="パス_266" data-name="パス 266" d="M-52.48,0V-14h2.12l5.1,8.3-1.02-.02L-41.12-14h2V0h-2.16V-5.74q0-1.8.09-3.24t.31-2.86l.28.74-4.58,7.08H-46.5l-4.44-7,.22-.82q.22,1.34.31,2.75t.09,3.35V0Zm20.8.2a4.153,4.153,0,0,1-2.37-.72,5.161,5.161,0,0,1-1.71-1.96,6.015,6.015,0,0,1-.64-2.8,5.923,5.923,0,0,1,.65-2.81,4.98,4.98,0,0,1,1.76-1.93,4.571,4.571,0,0,1,2.49-.7,4.481,4.481,0,0,1,1.5.24,3.775,3.775,0,0,1,1.19.67,3.835,3.835,0,0,1,.84.99,3.1,3.1,0,0,1,.41,1.2l-.46-.16V-10.5h2.08V0h-2.08V-2.5l.48-.14a2.833,2.833,0,0,1-.49,1.05,3.948,3.948,0,0,1-.94.91,5.093,5.093,0,0,1-1.26.64A4.382,4.382,0,0,1-31.68.2Zm.54-1.9a3.016,3.016,0,0,0,1.66-.46,3.17,3.17,0,0,0,1.13-1.27,4.04,4.04,0,0,0,.41-1.85,3.933,3.933,0,0,0-.41-1.82,3.185,3.185,0,0,0-1.13-1.26,3.016,3.016,0,0,0-1.66-.46,2.931,2.931,0,0,0-1.63.46A3.213,3.213,0,0,0-33.89-7.1a3.933,3.933,0,0,0-.41,1.82,4.04,4.04,0,0,0,.41,1.85,3.2,3.2,0,0,0,1.12,1.27A2.931,2.931,0,0,0-31.14-1.7Zm9.96-1.58-.1-2.24,5.02-4.98h2.78ZM-23.06,0V-14.8H-21V0Zm7.08,0-3.96-4.62,1.46-1.34L-13.34,0Zm8.74.2a5.84,5.84,0,0,1-2.87-.69,5.089,5.089,0,0,1-1.96-1.89,5.317,5.317,0,0,1-.71-2.76,6.142,6.142,0,0,1,.4-2.26,5.424,5.424,0,0,1,1.11-1.77,4.882,4.882,0,0,1,1.7-1.16,5.564,5.564,0,0,1,2.15-.41,4.636,4.636,0,0,1,1.9.39A4.763,4.763,0,0,1-3.99-9.28a4.691,4.691,0,0,1,1,1.61,5.434,5.434,0,0,1,.33,2.03l-.02.88h-8.58l-.46-1.64h7.26l-.3.34v-.48A2.317,2.317,0,0,0-5.2-7.72a2.719,2.719,0,0,0-.96-.82,2.7,2.7,0,0,0-1.26-.3,3.71,3.71,0,0,0-1.82.41,2.644,2.644,0,0,0-1.12,1.2,4.479,4.479,0,0,0-.38,1.95,3.8,3.8,0,0,0,.46,1.91,3.134,3.134,0,0,0,1.3,1.25,4.121,4.121,0,0,0,1.94.44,3.974,3.974,0,0,0,1.45-.26,5.1,5.1,0,0,0,1.45-.94L-3.1-1.42a4.738,4.738,0,0,1-1.17.84,7.3,7.3,0,0,1-1.46.57A5.724,5.724,0,0,1-7.24.2ZM5.52,0V-10.5H7.58V0Zm1-12.82a1.428,1.428,0,0,1-1.02-.34,1.257,1.257,0,0,1-.36-.96,1.253,1.253,0,0,1,.37-.94,1.387,1.387,0,0,1,1.01-.36,1.428,1.428,0,0,1,1.02.34,1.257,1.257,0,0,1,.36.96,1.253,1.253,0,0,1-.37.94A1.387,1.387,0,0,1,6.52-12.82ZM12.04,0V-13.18H14.1V0ZM9.86-8.5v-2h6.68v2ZM25.16,0V-11.68a3.167,3.167,0,0,1,.4-1.6,2.905,2.905,0,0,1,1.1-1.1,3.208,3.208,0,0,1,1.62-.4,3.014,3.014,0,0,1,1.2.24,2.393,2.393,0,0,1,.9.64l-.7,1.58a2.339,2.339,0,0,0-.57-.39,1.356,1.356,0,0,0-.59-.15,1.732,1.732,0,0,0-.71.13.868.868,0,0,0-.43.4,1.4,1.4,0,0,0-.14.65V0H25.16ZM23.48-8.42v-1.9h6.24v1.9ZM35.56.2a3.6,3.6,0,0,1-1.95-.52,3.42,3.42,0,0,1-1.28-1.46,5.144,5.144,0,0,1-.45-2.24V-10.5h2.06v5.92a3.983,3.983,0,0,0,.29,1.59,2.27,2.27,0,0,0,.84,1.03,2.375,2.375,0,0,0,1.33.36,2.856,2.856,0,0,0,1.06-.19,2.493,2.493,0,0,0,.83-.53,2.431,2.431,0,0,0,.55-.82,2.677,2.677,0,0,0,.2-1.04V-10.5H41.1V0H39.04V-2.2l.36-.24a3.5,3.5,0,0,1-.81,1.34,4.229,4.229,0,0,1-1.35.95A4.056,4.056,0,0,1,35.56.2ZM43.98,0V-10.5h2.06v2.16l-.36.24a3.018,3.018,0,0,1,.78-1.29,4.651,4.651,0,0,1,1.38-.96,3.868,3.868,0,0,1,1.64-.37,3.9,3.9,0,0,1,2,.47,2.879,2.879,0,0,1,1.2,1.43,6.33,6.33,0,0,1,.4,2.42V0H51.02V-6.26a3.984,3.984,0,0,0-.24-1.49,1.635,1.635,0,0,0-.74-.86,2.314,2.314,0,0,0-1.24-.23,3.073,3.073,0,0,0-1.1.19,2.675,2.675,0,0,0-.87.53,2.5,2.5,0,0,0-.58.79,2.265,2.265,0,0,0-.21.97V0H43.98Z" transform="translate(880 4070)" fill="#e54300"/>
      <path id="パス_209" data-name="パス 209" d="M16,0h4L4,20H0Z" transform="translate(796 4052)" fill="#e54300"/>
      <path id="パス_210" data-name="パス 210" d="M16,0h4L4,20H0Z" transform="translate(944 4052)" fill="#e54300"/>
    </g>
    <path id="パス_267" data-name="パス 267" d="M-25.277-1.414c0,.42-.2.42-.308.42-.252,0-1.2-.574-1.2-1.008s.77-.9,1.512-1.316Zm.014-9.982c0,.364-.014,2.114-.014,2.492-.434.028-.756.056-1.05.056-.462,0-.714-.014-1.456-.056l-.056,1.75c.574.028.9.042,1.2.042s.63-.014,1.3-.042c0,.686.014,1.61.014,2.142-2.52,1.218-3.094,2.338-3.094,3,0,1.358,2.17,2.73,3.514,2.73A1.264,1.264,0,0,0-23.611-.728c0-.784-.014-2.282-.028-3.332a10.513,10.513,0,0,1,3.108-.686c1.722,0,2.058,1.134,2.058,1.834a1.564,1.564,0,0,1-1.47,1.6,1.859,1.859,0,0,1-1.6-1.05,4.393,4.393,0,0,1-1.428,1.05A3.676,3.676,0,0,0-19.943.392a3.158,3.158,0,0,0,3.29-3.262,3.243,3.243,0,0,0-3.542-3.4,11.419,11.419,0,0,0-3.458.658c0-.532.014-1.2.014-1.736,1.092-.238,1.218-.266,2.17-.518l-.042-1.792a13.077,13.077,0,0,1-2.044.532c.028-.868.07-1.26.154-2.268Zm8.82,3.29a11.927,11.927,0,0,0-3.346-1.82l-.868,1.344a12.2,12.2,0,0,1,3.136,1.9Zm11.214,6.02v1.26H-9.905v-1.26ZM-8.435-11.7v1.05h-4.9v2.87h1.68V-9.338h2.184a13.367,13.367,0,0,1-3.92,2.87,6.634,6.634,0,0,1,.924,1.274A17.065,17.065,0,0,0-10.4-6.5,12.987,12.987,0,0,0-8.883-5.264a16.8,16.8,0,0,1-5.124,1.526,5.345,5.345,0,0,1,.784,1.414c.532-.112,1.12-.252,1.638-.406V.994h1.68V.49h4.676v.5h1.708V-2.8c.546.168,1.19.322,1.764.476a6.571,6.571,0,0,1,.742-1.554,19.034,19.034,0,0,1-5-1.442A9.836,9.836,0,0,0-4.375-6.874c.14-.154.308-.364.616-.714l-.952-.924-.154.07h-3.36c.1-.126.21-.252.434-.518l-.644-.378h5.1v1.512H-1.7v-2.828H-6.657V-11.7Zm2.268,4.466A10.583,10.583,0,0,1-7.539-6.09a5.907,5.907,0,0,1-1.54-1.148ZM-9.6-3.374A13.96,13.96,0,0,0-7.441-4.382,24.194,24.194,0,0,0-5.2-3.374Zm21.126-6.72c.224-.308.546-.728.84-1.162l-1.47-.7c-.35.644-.714,1.246-1.064,1.862H8.477l.546-.406a9.2,9.2,0,0,0-1.19-1.428l-1.148.84a5.582,5.582,0,0,1,.784.994H5.845v1.26H8.673v.63H6.4V-7.07H8.673v.6H5.607v.84A9.525,9.525,0,0,1,4.333-6.8v-.84H5.495V-9.17H4.333v-2.548H2.765V-9.17h-1.5v1.526H2.695A13.127,13.127,0,0,1,.763-3.7a6,6,0,0,1,.8,1.764,17.832,17.832,0,0,0,1.2-2.016V1.036H4.333V-4.606c.252.21.5.434.742.6.224-.378.49-.84.742-1.19H8.673V-2.94C6.7-2.1,6.027-1.848,4.809-1.442L5.537.042C6.489-.406,7.945-1.106,8.673-1.5v.952c0,.154-.07.252-.238.252H7.357A3.329,3.329,0,0,1,7.889,1.26c2.226-.168,2.422-.644,2.422-1.512V-1.876A8.205,8.205,0,0,0,13.167.42,3.894,3.894,0,0,1,14.2-1.022a10.543,10.543,0,0,1-2.464-1.5c.6-.448,1.3-.966,1.946-1.4L12.579-5.068c-.644.588-1.232,1.12-1.82,1.582-.126-.14-.28-.35-.448-.574V-5.194h3.5V-6.468h-3.5v-.6h2.548V-8.2H10.311v-.63h3.15v-1.26Zm-5.88,6.02A13.91,13.91,0,0,1,7.133-2.688L8.211-3.752A10.681,10.681,0,0,0,6.7-5.124ZM21.637-8.75a19.59,19.59,0,0,1-1.694,5.4c-.1.168-.392.8-.826.8-.532,0-.868-1.26-.868-2.128a4.148,4.148,0,0,1,.63-2.226A4.334,4.334,0,0,1,21.637-8.75ZM22.869.574A9.588,9.588,0,0,0,25.991-.6a5.159,5.159,0,0,0,2.534-4.662c0-2.94-1.974-5.068-5.656-5.068-3.864,0-6.328,2.716-6.328,5.852,0,1.708.826,3.906,2.338,3.906,1.386,0,3.472-2.506,4.494-8.288A3.735,3.735,0,0,1,25.907-7.6a3.7,3.7,0,0,1,.742,2.268c0,1.47-.742,3.71-4.55,4.186A5.219,5.219,0,0,1,22.869.574ZM-43.05,12.632a13.886,13.886,0,0,1-4.172.532c-.364,0-.784-.014-1.316-.056l.014,1.82a20.246,20.246,0,0,0,3.976-.546A27.378,27.378,0,0,1-49.336,17.5c-.546.056-1.232.1-1.778.112l.042,1.666c.742-.07,1.092-.112,1.428-.154,2.38-.238,2.436-.238,3.416-.308a3.513,3.513,0,0,0-1.3,2.506,2.752,2.752,0,0,0,1.3,2.226c.9.658,2.03,1.176,4.76,1.176L-41.51,22.8c-3.472.126-4.228-1.008-4.228-1.764,0-.6.434-1.554,2.268-2.366,2.352-.112,2.632-.126,4.27-.126l-.028-1.778c-1.988.21-3.822.35-6.93.532a32.517,32.517,0,0,0,4.424-3.066Zm12.012,2.618a19.59,19.59,0,0,1-1.694,5.4c-.1.168-.392.8-.826.8-.532,0-.868-1.26-.868-2.128A4.148,4.148,0,0,1-33.8,17.1,4.334,4.334,0,0,1-31.038,15.25Zm1.232,9.324A9.588,9.588,0,0,0-26.684,23.4a5.159,5.159,0,0,0,2.534-4.662c0-2.94-1.974-5.068-5.656-5.068-3.864,0-6.328,2.716-6.328,5.852,0,1.708.826,3.906,2.338,3.906,1.386,0,3.472-2.506,4.494-8.288a3.735,3.735,0,0,1,2.534,1.26,3.7,3.7,0,0,1,.742,2.268c0,1.47-.742,3.71-4.55,4.186A5.219,5.219,0,0,1-29.806,24.574Zm14.042-12.18v2.142H-17.5c.14-.392.308-.854.448-1.232l-1.6-.546a12.538,12.538,0,0,1-2.044,4.158,7.023,7.023,0,0,1,1.344.966,10.478,10.478,0,0,0,1.19-1.848h2.394v1.932h-5.362v1.5h3.416c-.14,3.276-2.478,3.892-3.668,4.2a3.217,3.217,0,0,1,.9,1.5c4.158-1.316,4.34-4.27,4.438-5.7h1.736v3.962c0,1.428.9,1.442,2.086,1.442h1.792c.966-.014,1.414-.406,1.862-2.212a3.838,3.838,0,0,1-1.54-.644c-.084.56-.182,1.274-.546,1.386-.14.028-1.26.028-1.5.028-.42,0-.532-.1-.532-.308V19.464H-8.96v-1.5h-5.11V16.034h3.948v-1.5H-14.07V12.394ZM-.938,15.25a19.59,19.59,0,0,1-1.694,5.4c-.1.168-.392.8-.826.8-.532,0-.868-1.26-.868-2.128A4.148,4.148,0,0,1-3.7,17.1,4.334,4.334,0,0,1-.938,15.25ZM.294,24.574A9.588,9.588,0,0,0,3.416,23.4,5.159,5.159,0,0,0,5.95,18.736c0-2.94-1.974-5.068-5.656-5.068-3.864,0-6.328,2.716-6.328,5.852,0,1.708.826,3.906,2.338,3.906,1.386,0,3.472-2.506,4.494-8.288A3.735,3.735,0,0,1,3.332,16.4a3.7,3.7,0,0,1,.742,2.268c0,1.47-.742,3.71-4.55,4.186A5.219,5.219,0,0,1,.294,24.574ZM10.486,12.38v2.058H8.876v1.568h3.248a12.079,12.079,0,0,1-3.71,3.668A6.442,6.442,0,0,1,9.2,21.3a10.882,10.882,0,0,0,1.274-1.008v4.718h1.652v-5.1A12.677,12.677,0,0,0,13.3,21.186c.35-.434.714-.9,1.078-1.316A11.942,11.942,0,0,1,12.6,18.078a19.18,19.18,0,0,0,1.848-2.744l-.98-.966-.168.07H12.152V12.38Zm6.006.014v4.172h-2.52V18.2h2.52v4.774H13.02v1.666h8.4V22.978H18.3V18.2h2.688V16.566H18.3V12.394Zm10.7,4.27a23.232,23.232,0,0,0,2.646-2.6,14.036,14.036,0,0,0,2.632,2.6Zm2.086-4.536a15.1,15.1,0,0,1-1.33,1.554,17.121,17.121,0,0,1-4.522,3.556,4.437,4.437,0,0,1,.9,1.4,12.322,12.322,0,0,0,2.044-1.3v.826h6.972v-.9a16.162,16.162,0,0,0,2.352,1.344,4.389,4.389,0,0,1,1.092-1.47,13.685,13.685,0,0,1-5.88-4.228l.21-.21Zm1.9,9.576c.364.364.714.742,1.036,1.092-1.246.182-2.744.336-4.088.434.308-.686.8-1.68,1.162-2.436h3.066Zm4.788-.91V19.31H24.15v1.484h3.206c-.294.756-.686,1.708-1.022,2.534l-1.806.084.406,1.75c4.144-.448,5.642-.63,8.316-1.12a12.8,12.8,0,0,1,.84,1.162l1.386-.994a17.944,17.944,0,0,0-1.246-1.6,15.9,15.9,0,0,0-1.806-1.82Zm8.47-8.428a17.374,17.374,0,0,1-.91,2.072c-.448.028-.77.028-1.022.028-.532,0-.84-.014-2.072-.112v1.652a8.6,8.6,0,0,0,.91.056c.42,0,.7,0,1.232-.028a17.1,17.1,0,0,1-3.416,3.724L40.39,21c.266-.28,1.582-1.722,1.9-2.03a3.134,3.134,0,0,1,1.988-.868c.5,0,.672.378.672.77-1.61.714-3.612,1.638-3.612,3.332a1.982,1.982,0,0,0,.91,1.652c1.2.84,3.276.84,4.326.84a27.075,27.075,0,0,0,3.024-.168l-.014-1.792a20.484,20.484,0,0,1-3.682.28c-.98,0-2.856,0-2.856-.994,0-.616.854-1.036,1.9-1.526,0,.448,0,.938-.014,1.288h1.75v-1.9a35.349,35.349,0,0,1,4.074-1.162l-.532-1.736c-.252.1-2.842.98-3.64,1.274a1.661,1.661,0,0,0-1.834-1.5,2.477,2.477,0,0,0-.966.21c.21-.322.462-.714.686-1.036a40.368,40.368,0,0,0,4.1-.448l-.056-1.708a18.764,18.764,0,0,1-3.024.56c.252-.392.532-.854.784-1.274ZM-46.648,36.59c-.084.756-.308,2.128-.364,2.422-.6-.07-.952-.084-1.274-.126a7.468,7.468,0,0,1-1.33-.308l-.392,1.68a14.065,14.065,0,0,0,2.7.42c-.084.56-.2,1.288-.266,1.82-.616,0-.826-.2-.826-.406a3.073,3.073,0,0,1,.168-.616l-1.456-.308a6.434,6.434,0,0,0-.238,1.358c0,1.33,1.064,1.456,2.2,1.582a8.513,8.513,0,0,0-.056.952,3.3,3.3,0,0,0,1.106,2.856,4.493,4.493,0,0,0,2.758.854c2.45,0,4.256-1.386,4.256-3.57a5.427,5.427,0,0,0-2.366-4.074,4.7,4.7,0,0,1-1.134,1.008A3.728,3.728,0,0,1-41.5,44.948,2.133,2.133,0,0,1-43.834,47.2a2.469,2.469,0,0,1-1.344-.35,2.026,2.026,0,0,1-.84-1.9,5.191,5.191,0,0,1,.042-.756c.742,0,1.568-.07,2.24-.14l-.028-1.652c-.672.084-1.47.154-2.03.168.07-.56.2-1.274.308-1.848a17.713,17.713,0,0,0,2.156-.154l.014-1.666a13.438,13.438,0,0,1-1.834.112c.042-.252.266-1.4.49-2.128Zm12.054,6.594c3.668-.812,4.158-.924,5.1-.924,1.512,0,2.156.812,2.156,1.736,0,2.45-3.43,2.786-5.586,2.786a4.79,4.79,0,0,1,.476,1.694c1.442-.056,6.916-.364,6.916-4.522a3.17,3.17,0,0,0-3.5-3.332,18.825,18.825,0,0,0-3.346.448c-.6.112-1.3.238-2.59.378Zm17.584-6.51c0,3.626,0,3.892.392,5.306-1.148.574-3.4,1.652-3.4,3.738A2.706,2.706,0,0,0-18.158,48.2a13.793,13.793,0,0,0,4.522.574,32,32,0,0,0,3.514-.2l-.084-1.834a34.482,34.482,0,0,1-4.368.28c-.994,0-3.682,0-3.682-1.428a1.542,1.542,0,0,1,.63-1.12c1.582-1.358,4.774-2,7.434-2.534l-.574-1.834c-2.9.8-3.206.882-4.284,1.26a11.471,11.471,0,0,1-.168-1.918c0-.182.014-1.288.112-2.8Zm14.588-.35v1.022h-2.94v4.41H5.068v-4.41H2.142v-.98H.63v.98H-.9V36.324ZM.63,38.438v.616H-.9v-.616Zm0,1.6v.658H-.9v-.658Zm-3.052-1.6v.616H-3.878v-.616Zm0,1.6v.658H-3.878v-.658Zm5.88-1.6v.616H2.142v-.616Zm0,1.6v.658H2.142v-.658ZM2.94,44.822v.812H-3.206v-.812ZM1.428,46.656c-.1.294-.2.588-.322.882H-1.316c-.112-.294-.238-.56-.378-.882ZM-4.746,43.8v2.856h1.484c.126.294.252.588.364.882H-6.314v1.2H6.23v-1.2H2.7c.154-.294.28-.644.378-.882H4.536V43.8Zm-1.442-1.54v1.134H6.076V42.26Zm19.124-5.628a21.731,21.731,0,0,1-.672,2.674c-1.666.21-1.946.252-2.828.322l.28,1.862a14.475,14.475,0,0,1,2.044-.448,33.767,33.767,0,0,1-3.164,6.5l1.68.91a48.386,48.386,0,0,0,3.416-7.756,8,8,0,0,1,.84-.07c.476,0,.994.14.994,1.316,0,1.526-.994,4.774-1.624,4.774-.406,0-.924-.994-.924-1.008a4.767,4.767,0,0,1-1.064,1.246c.742,1.092,1.442,1.722,2.17,1.722,2.114,0,3.164-4.816,3.164-6.79,0-1.078-.35-2.842-2.338-2.842-.182,0-.378.014-.63.028.168-.5.406-1.26.6-1.876Zm4.284,2.842a9.771,9.771,0,0,1,1.736,2.086,5.459,5.459,0,0,1,.644,1.764c0,.476-.266.476-.406.476a4.089,4.089,0,0,1-.686-.07,4.149,4.149,0,0,1,.238,1.694c.42.042.714.07.994.07.6,0,1.736-.014,1.736-1.638,0-1.316-.574-3.136-3.052-5.376Zm8.554-2.282a36.2,36.2,0,0,0-.8,7.2,22.006,22.006,0,0,0,.378,4.172l1.764-.364a23.633,23.633,0,0,1-.364-3.962,29.9,29.9,0,0,1,.826-6.594Zm9.492,1.078c-.546-.014-.98-.014-1.344-.014a21.546,21.546,0,0,0-5.138.5l.168,1.652a21.5,21.5,0,0,1,4.354-.42c.5,0,1.022,0,1.862.028Zm-6.93,5.992c-.2,3.4,2.3,3.724,5.964,3.724a10.6,10.6,0,0,0,1.652-.126l-.084-1.918a11.347,11.347,0,0,1-2.548.2c-3.164,0-3.332-.518-3.332-1.876Zm11.522,2.814a.835.835,0,0,1,.854-.84.857.857,0,0,1,.868.868.875.875,0,0,1-.854.868A.89.89,0,0,1,39.858,47.076Zm2.73.028a1.9,1.9,0,0,0-1.862-1.9,1.869,1.869,0,0,0-1.9,1.9,1.84,1.84,0,0,0,1.9,1.876A1.8,1.8,0,0,0,42.588,47.1Z" transform="translate(880 3894)" fill="#fff"/>
    <path id="パス_268" data-name="パス 268" d="M-85.477-5.922V.924h1.33V-1.582h1.54V-.574a.21.21,0,0,1-.238.224h-.686a6.179,6.179,0,0,1,.49,1.372c1.386-.182,1.6-.448,1.75-.938a2.705,2.705,0,0,1,.7.994,7.956,7.956,0,0,0,1.876-1.89,10.145,10.145,0,0,0,1.582,1.89,5.251,5.251,0,0,1,.966-1.386,5.976,5.976,0,0,1-1.666-1.9,13.874,13.874,0,0,0,1.078-4.816h.364V-8.47h-2.268c.49-1.652.6-2.114.77-2.842l-1.582-.378a16.578,16.578,0,0,1-1.344,4.34,13.12,13.12,0,0,0-.91-1.624l-1.106.518.308.56c-.28.07-.644.14-1.036.224.182-.5.35-.952.518-1.414h2.576V-10.4h-1.876v-1.2H-83.9v1.2h-1.932v1.316h1.344c-.126.532-.294,1.05-.462,1.61l-.588.042.21-.322-1.19-1.022a19.3,19.3,0,0,1-2.94,3.542,5.209,5.209,0,0,1,.742,1.61c.266-.252.49-.448.728-.7V.924h1.54V-6.16c.28-.35.532-.714.784-1.05l.336,1.19c1.316-.28,2.492-.574,3.346-.784l.2.406.7-.308c-.126.21-.28.462-.448.7l.084.084Zm2.87,1.162v.546h-1.54V-4.76Zm0,1.54v.588h-1.54V-3.22Zm2.422-1.89c.154.826.21,1.162.28,1.442.1.322.21.616.434,1.33a7.628,7.628,0,0,1-1.75,1.862V-5.67a11.6,11.6,0,0,1,.658,1.148Zm2.044-1.918a17.9,17.9,0,0,1-.462,2.94,8.858,8.858,0,0,1-.5-2.94Zm-8.582-4.732a15.125,15.125,0,0,1-2.6,2.24,7.826,7.826,0,0,1,.868,1.344,18.218,18.218,0,0,0,2.786-2.394Zm17.808,4.942c.77-.042,2.184-.182,2.674-.238,0,.42.014.826.042,1.26h-2.716ZM-64.673-5.8c-.028-.5-.028-.952-.028-1.456.714-.084,1.526-.21,2.212-.364L-63.231-9a57.085,57.085,0,0,1-6.23.9l-.994-.336v5.95c-.378.056-.756.07-1.134.112l.364,1.526c1.232-.168,1.722-.238,2.156-.308s2.506-.336,3-.406L-66.045-3c-.686.07-1.092.14-1.512.21-.35.042-.728.084-1.358.168v-1.82h2.87a7.686,7.686,0,0,0,1.176,3.6A3.623,3.623,0,0,0-62.7.854a.778.778,0,0,0,.322-.07c.77-.336.994-1.19,1.26-2.17a4.542,4.542,0,0,1-1.5-.8c-.07.49-.112.784-.154.952-.014.07-.056.2-.182.2s-.406-.364-.546-.518a5.756,5.756,0,0,1-1.036-2.884h2.772V-5.8Zm-3.57-5.894v1.12h-4.816c0,6.972-.014,7.924-1.288,10.444a4.87,4.87,0,0,1,1.26,1.2C-71.589-1.512-71.5-3.3-71.5-9.114h9.982V-10.57h-4.872v-1.12ZM-71.295-.644v1.4h6.132v-1.4Zm14.7-10.29c0,1.064-.1,5.782-.1,6.748A6.681,6.681,0,0,0-56.2-.854,3.163,3.163,0,0,0-53.249.518c3.6,0,5.642-3.29,6.468-4.7A4.677,4.677,0,0,1-48.335-5.32c-.784,1.582-2.408,4.13-4.872,4.13a1.551,1.551,0,0,1-1.526-.784,4.4,4.4,0,0,1-.21-1.848c0-1.148.168-4.62.434-7.042Zm16.73-.462c-.2.84-.42,1.694-.63,2.408-.322.014-.672.028-1.008.028a10.819,10.819,0,0,1-1.54-.1l-.028,1.722c.364.014.714.028,1.078.028s.686-.014,1.036-.028A52.6,52.6,0,0,1-44.023-.112l1.624.84a62.1,62.1,0,0,0,3.262-8.246,22.943,22.943,0,0,0,3.332-.6l-.126-1.652a27.437,27.437,0,0,1-2.688.56c.154-.434.364-1.106.518-1.708Zm7.5,4.06c-.56-.028-1.064-.042-1.484-.042a24.072,24.072,0,0,0-4.3.392l.21,1.554A21.954,21.954,0,0,1-34.1-5.7c.392,0,.9,0,1.666.028Zm-7.028,4.158c0,2.184.406,3.71,5.194,3.71A20.493,20.493,0,0,0-31.8.406l-.056-1.834a18.75,18.75,0,0,1-2.618.21,15.789,15.789,0,0,1-2.086-.168c-.966-.2-1.218-.7-1.218-1.33,0-.1.014-.21.028-.35Zm14.112,1.764c0,.42-.2.42-.308.42-.252,0-1.2-.574-1.2-1.008s.77-.9,1.512-1.316Zm.014-9.982c0,.364-.014,2.114-.014,2.492-.434.028-.756.056-1.05.056-.462,0-.714-.014-1.456-.056l-.056,1.75c.574.028.9.042,1.2.042s.63-.014,1.3-.042c0,.686.014,1.61.014,2.142-2.52,1.218-3.094,2.338-3.094,3,0,1.358,2.17,2.73,3.514,2.73A1.264,1.264,0,0,0-23.611-.728c0-.784-.014-2.282-.028-3.332a10.513,10.513,0,0,1,3.108-.686c1.722,0,2.058,1.134,2.058,1.834a1.564,1.564,0,0,1-1.47,1.6,1.859,1.859,0,0,1-1.6-1.05,4.393,4.393,0,0,1-1.428,1.05A3.676,3.676,0,0,0-19.943.392a3.158,3.158,0,0,0,3.29-3.262,3.243,3.243,0,0,0-3.542-3.4,11.419,11.419,0,0,0-3.458.658c0-.532.014-1.2.014-1.736,1.092-.238,1.218-.266,2.17-.518l-.042-1.792a13.077,13.077,0,0,1-2.044.532c.028-.868.07-1.26.154-2.268Zm8.82,3.29a11.927,11.927,0,0,0-3.346-1.82l-.868,1.344a12.2,12.2,0,0,1,3.136,1.9Zm11.214,6.02v1.26H-9.905v-1.26ZM-8.435-11.7v1.05h-4.9v2.87h1.68V-9.338h2.184a13.367,13.367,0,0,1-3.92,2.87,6.634,6.634,0,0,1,.924,1.274A17.065,17.065,0,0,0-10.4-6.5,12.987,12.987,0,0,0-8.883-5.264a16.8,16.8,0,0,1-5.124,1.526,5.345,5.345,0,0,1,.784,1.414c.532-.112,1.12-.252,1.638-.406V.994h1.68V.49h4.676v.5h1.708V-2.8c.546.168,1.19.322,1.764.476a6.571,6.571,0,0,1,.742-1.554,19.034,19.034,0,0,1-5-1.442A9.836,9.836,0,0,0-4.375-6.874c.14-.154.308-.364.616-.714l-.952-.924-.154.07h-3.36c.1-.126.21-.252.434-.518l-.644-.378h5.1v1.512H-1.7v-2.828H-6.657V-11.7Zm2.268,4.466A10.583,10.583,0,0,1-7.539-6.09a5.907,5.907,0,0,1-1.54-1.148ZM-9.6-3.374A13.96,13.96,0,0,0-7.441-4.382,24.194,24.194,0,0,0-5.2-3.374Zm21.126-6.72c.224-.308.546-.728.84-1.162l-1.47-.7c-.35.644-.714,1.246-1.064,1.862H8.477l.546-.406a9.2,9.2,0,0,0-1.19-1.428l-1.148.84a5.582,5.582,0,0,1,.784.994H5.845v1.26H8.673v.63H6.405V-7.07H8.673v.6H5.607v.84A9.525,9.525,0,0,1,4.333-6.8v-.84H5.5V-9.17H4.333v-2.548H2.765V-9.17h-1.5v1.526H2.7A13.127,13.127,0,0,1,.763-3.7a6,6,0,0,1,.8,1.764,17.832,17.832,0,0,0,1.2-2.016V1.036H4.333V-4.606c.252.21.5.434.742.6.224-.378.49-.84.742-1.19H8.673V-2.94C6.7-2.1,6.027-1.848,4.809-1.442L5.537.042C6.489-.406,7.945-1.106,8.673-1.5v.952c0,.154-.07.252-.238.252H7.357A3.329,3.329,0,0,1,7.889,1.26c2.226-.168,2.422-.644,2.422-1.512V-1.876A8.205,8.205,0,0,0,13.167.42,3.894,3.894,0,0,1,14.2-1.022a10.543,10.543,0,0,1-2.464-1.5c.6-.448,1.3-.966,1.946-1.4L12.579-5.068c-.644.588-1.232,1.12-1.82,1.582-.126-.14-.28-.35-.448-.574V-5.194h3.5V-6.468h-3.5v-.6h2.548V-8.2H10.311v-.63h3.15v-1.26Zm-5.88,6.02A13.91,13.91,0,0,1,7.133-2.688L8.211-3.752A10.681,10.681,0,0,0,6.7-5.124Zm20.818-6.02H17.6V-8.3h8.078c-1.372,3.71-3.122,5.754-7.532,7.028A4.261,4.261,0,0,1,19.033.574c4.032-1.372,6.874-3.416,8.61-8.722a3.561,3.561,0,0,1,.308-.756l-1.316-1.288ZM33.3-8.218v1.582h6.314c-.434.434-.938.91-1.386,1.274v-.406h-1.75c0,3.374-.224,4.522-2.954,5.18a4.552,4.552,0,0,1,.77,1.666,5.738,5.738,0,0,0,2.982-1.75,6.52,6.52,0,0,0,.952-3.57l.392.658c1.008-.854,1.512-1.3,2.058-1.82.434-.406.9-.868,1.6-1.512L41.181-8.3,41-8.218Zm13.832,1.96V-4.48h11.06V-6.258Zm23.24-3.878H63.077v1.792h6.2a14.153,14.153,0,0,1-7.84,7.126,3.648,3.648,0,0,1,1.2,1.666,16.413,16.413,0,0,0,5.726-4.2A26.152,26.152,0,0,1,72.037.63l1.61-1.246a25.5,25.5,0,0,0-4.158-4.536,21.3,21.3,0,0,0,1.764-2.9,6.222,6.222,0,0,1,.518-.882l-1.19-1.288Zm9.814-1.176V.84h1.988V-5.684a27.7,27.7,0,0,1,4.914,2.478l1.022-1.75a31.688,31.688,0,0,0-5.936-2.632v-3.724Z" transform="translate(880 4019)" fill="#fff"/>
    <path id="パス_269" data-name="パス 269" d="M-72.576-6.244v.63h-5.4v-.63Zm-3.5-5.432v.966h-5.11v1.288h5.11v.6h-3.458v5.754h8.582V-8.82H-74.41v-.6H-69.5V-10.71H-74.41v-.966Zm3.5,3.934v.6h-5.4v-.6Zm0,3.038v.616h-5.4V-4.7Zm-8.932,2.142v1.246h3.318a10.979,10.979,0,0,1-3.5,1.078,7.012,7.012,0,0,1,.728,1.4,17.579,17.579,0,0,0,4.578-1.68l-.644-.8h3.29l-.616.8A17.393,17.393,0,0,0-69.748,1.12a4.395,4.395,0,0,1,.854-1.33A16.173,16.173,0,0,1-72.45-1.316h3.388V-2.562Zm20.37-6.188a19.59,19.59,0,0,1-1.694,5.4c-.1.168-.392.8-.826.8-.532,0-.868-1.26-.868-2.128A4.148,4.148,0,0,1-63.9-6.9,4.334,4.334,0,0,1-61.138-8.75ZM-59.906.574A9.588,9.588,0,0,0-56.784-.6,5.159,5.159,0,0,0-54.25-5.264c0-2.94-1.974-5.068-5.656-5.068-3.864,0-6.328,2.716-6.328,5.852,0,1.708.826,3.906,2.338,3.906,1.386,0,3.472-2.506,4.494-8.288A3.735,3.735,0,0,1-56.868-7.6a3.7,3.7,0,0,1,.742,2.268c0,1.47-.742,3.71-4.55,4.186A5.218,5.218,0,0,1-59.906.574ZM-41.818-9.772h-8.6v1.764h8.05c-.91,2.324-2.254,5.768-7.56,7.028A4.241,4.241,0,0,1-48.916.854c4.606-1.61,6.678-3.864,8.19-7.784.1-.238.5-1.386.616-1.638l-1.5-1.316Zm1.162-.84a.77.77,0,0,1,.714-.728.75.75,0,0,1,.728.728.71.71,0,0,1-.728.714A.724.724,0,0,1-40.656-10.612Zm.714-1.624a1.643,1.643,0,0,0-1.624,1.624,1.725,1.725,0,0,0,1.652,1.624,1.6,1.6,0,0,0,1.6-1.624A1.616,1.616,0,0,0-39.942-12.236Zm12.7,4.032v5.5H-33.1V-8.2ZM-34.986-9.94v9.8h1.89v-.8h5.852v.672h1.96V-9.94Zm23.828-.154H-20.02V-8.3h8.078c-1.372,3.71-3.122,5.754-7.532,7.028A4.261,4.261,0,0,1-18.592.574C-14.56-.8-11.718-2.842-9.982-8.148A3.561,3.561,0,0,1-9.674-8.9l-1.316-1.288Zm7.266,2.968v1.694H-.924V-1.3H-4.872V.378H4.886V-1.3H.868v-4.13H3.836V-7.126Zm17.108-.182a17.84,17.84,0,0,1,1.26,2.674L16-5.39a16.578,16.578,0,0,0-1.33-2.632Zm4.9-.252c-1.2,5.782-3.948,6.678-6.342,7.238a3.985,3.985,0,0,1,.854,1.652c4.214-1.274,5.964-3.388,7.308-8.358ZM10.29-6.468a15.455,15.455,0,0,1,1.456,2.632l1.512-.8a17.23,17.23,0,0,0-1.484-2.632Zm18.06.322a14.208,14.208,0,0,0-2.982-1.316L24.6-5.95a15.574,15.574,0,0,1,2.87,1.344Zm1.666-3.36a16.814,16.814,0,0,0-3.024-1.582L26.138-9.6A21.909,21.909,0,0,1,28.98-7.938ZM26.222.728a27.853,27.853,0,0,0,5.5-2.786,20.373,20.373,0,0,0,4.536-4.41,4.681,4.681,0,0,1-1.176-1.54,18.092,18.092,0,0,1-9.73,6.818ZM41.594-7.644v1.652h5.6V-4.48H41.608v1.624h5.586V-1.19H41.608V.448h5.586v.42H49V-7.644Zm18.1-3.738V-8.2H54.432v1.778h5.25c-.21,2.954-.742,4.55-4.452,5.558A5.256,5.256,0,0,1,56.252.924c4.886-1.652,5.194-4.62,5.39-7.35H66.22V-8.2H61.684v-3.178Zm15.5.5v9.772l-.126.182L76.2.322a18.892,18.892,0,0,0,5.81-5.558,7.265,7.265,0,0,1-1.428-1.232A13.4,13.4,0,0,1,77.07-2.576v-8.3Zm-3.458.952a22.1,22.1,0,0,1-.336,5.46A5.454,5.454,0,0,1,68.53-.882,4.207,4.207,0,0,1,69.678.728,8.178,8.178,0,0,0,72.6-2.352c.882-1.708.91-3.066,1.022-7.574Z" transform="translate(880 4093)" fill="#fff"/>
    <g id="グループ_6" data-name="グループ 6" transform="translate(65.5 -320.5)">
      <path id="線_1" data-name="線 1" d="M19.646,20.354l-20-20L.354-.354l20,20Z" transform="translate(804.5 4361.5)" fill="#fff"/>
      <path id="線_2" data-name="線 2" d="M.354,20.354l-.707-.707,20-20,.707.707Z" transform="translate(804.5 4361.5)" fill="#fff"/>
    </g>
    <path id="パス_270" data-name="パス 270" d="M-81.326-6.258V-4.48H-69.2V-6.258Zm20.3-5.418V-7.49h-1.848V-10.5h-1.6v3.01h-1.946v1.456h5.39v2.548c0,.168-.084.252-.238.252H-62.4a4.667,4.667,0,0,1,.56,1.526,3.644,3.644,0,0,0,1.96-.63,1.091,1.091,0,0,0,.434-.98V-6.034h5.418V-7.49h-5.418V-8.652H-55.3v-1.442h-4.144v-1.582Zm-2.324,5.67A14.26,14.26,0,0,1-66.486-3.29a5.233,5.233,0,0,1,1.05,1.218A16.88,16.88,0,0,0-62.09-5.054Zm9.478,2.254a27.469,27.469,0,0,0-3.094-2.184l-.91,1.134A24.438,24.438,0,0,1-54.838-2.52ZM-57.414-4A9.3,9.3,0,0,1-62.8-.826a12.559,12.559,0,0,1-3.024.406A7.006,7.006,0,0,1-65.1,1.12,18.022,18.022,0,0,0-60.088-.2a10.241,10.241,0,0,0,3.864-2.842Zm11.55-7.6v2.142H-47.6c.14-.392.308-.854.448-1.232l-1.6-.546a12.538,12.538,0,0,1-2.044,4.158,7.023,7.023,0,0,1,1.344.966,10.477,10.477,0,0,0,1.19-1.848h2.394v1.932h-5.362v1.5h3.416c-.14,3.276-2.478,3.892-3.668,4.2a3.217,3.217,0,0,1,.9,1.5c4.158-1.316,4.34-4.27,4.438-5.7h1.736V-.574c0,1.428.9,1.442,2.086,1.442h1.792c.966-.014,1.414-.406,1.862-2.212a3.838,3.838,0,0,1-1.54-.644c-.084.56-.182,1.274-.546,1.386-.14.028-1.26.028-1.5.028-.42,0-.532-.1-.532-.308V-4.536h3.724v-1.5h-5.11V-7.966h3.948v-1.5H-44.17v-2.142ZM-31.038-8.75a19.59,19.59,0,0,1-1.694,5.4c-.1.168-.392.8-.826.8-.532,0-.868-1.26-.868-2.128A4.148,4.148,0,0,1-33.8-6.9,4.334,4.334,0,0,1-31.038-8.75ZM-29.806.574A9.588,9.588,0,0,0-26.684-.6,5.159,5.159,0,0,0-24.15-5.264c0-2.94-1.974-5.068-5.656-5.068-3.864,0-6.328,2.716-6.328,5.852,0,1.708.826,3.906,2.338,3.906,1.386,0,3.472-2.506,4.494-8.288A3.735,3.735,0,0,1-26.768-7.6a3.7,3.7,0,0,1,.742,2.268c0,1.47-.742,3.71-4.55,4.186A5.219,5.219,0,0,1-29.806.574Zm18.494-8.316v.714h-3.024v-.714Zm-4.564-3.514V-3.57h.952c-.07.868-.224,2.562-2.814,3.318a3.275,3.275,0,0,1,.924,1.442,4.854,4.854,0,0,0,3.43-4.76h.63V-.294C-12.754.9-11.816.9-10.64.9A2.72,2.72,0,0,0-9.422.756C-8.848.49-8.61-.63-8.54-1.176a3.7,3.7,0,0,1-1.47-.476,3.256,3.256,0,0,1-.308,1.078c-.07.056-.224.056-.658.056-.14,0-.224,0-.224-.308V-3.57h1.568v-7.686Zm4.564,1.4v.868h-3.024v-.868Zm0,4.06v.868h-3.024V-5.8Zm-8.442-5.726v2h-1.484v1.484H-18.2a9.889,9.889,0,0,1-3.5,3.514,5.827,5.827,0,0,1,.756,1.652,8.791,8.791,0,0,0,1.134-.9V.994h1.638V-4.074c.308.322.658.714.924.994.336-.42.714-.868,1.05-1.288a17.709,17.709,0,0,1-1.526-1.554A15.244,15.244,0,0,0-16-8.666L-17-9.632l-.126.112h-.994v-2ZM3.206-6.146v2.03H-3.178v-2.03ZM-.952-11.634V-7.56H-4.774V-2.7H4.858V-7.56H.672V-8.708H5.5V-10.15H.672v-1.484Zm-4.13,9.268A18.615,18.615,0,0,1-6.524.1L-5.18.9A12.426,12.426,0,0,0-3.752-1.652Zm8.428.854A19.06,19.06,0,0,1,4.956.994L6.286.2A21.112,21.112,0,0,0,4.578-2.24ZM.308-1.54c.364.77.644,1.4.966,2.184L2.674.07A12.127,12.127,0,0,0,1.582-2.058Zm-3.15.028c.266.756.518,1.484.728,2.282L-.658.294a18.807,18.807,0,0,0-.826-2.268ZM14.336-11.634a17.374,17.374,0,0,1-.91,2.072c-.448.028-.77.028-1.022.028-.532,0-.84-.014-2.072-.112v1.652a8.6,8.6,0,0,0,.91.056c.42,0,.7,0,1.232-.028A17.1,17.1,0,0,1,9.058-4.242L10.29-3c.266-.28,1.582-1.722,1.9-2.03a3.134,3.134,0,0,1,1.988-.868c.5,0,.672.378.672.77-1.61.714-3.612,1.638-3.612,3.332a1.982,1.982,0,0,0,.91,1.652c1.2.84,3.276.84,4.326.84A27.075,27.075,0,0,0,19.5.532L19.488-1.26a20.484,20.484,0,0,1-3.682.28c-.98,0-2.856,0-2.856-.994,0-.616.854-1.036,1.9-1.526,0,.448,0,.938-.014,1.288h1.75v-1.9a35.349,35.349,0,0,1,4.074-1.162l-.532-1.736c-.252.1-2.842.98-3.64,1.274a1.661,1.661,0,0,0-1.834-1.5,2.477,2.477,0,0,0-.966.21c.21-.322.462-.714.686-1.036a40.368,40.368,0,0,0,4.1-.448l-.056-1.708a18.764,18.764,0,0,1-3.024.56c.252-.392.532-.854.784-1.274Zm10.962.028v2.59H23.8v1.5h1.5V-5.4c-.532.154-1.162.35-1.834.518L23.87-3.36c.476-.154.994-.35,1.428-.476V-.77c0,.182-.07.252-.28.252H23.926A4.916,4.916,0,0,1,24.4,1.064c1.75-.21,2.45-.322,2.45-1.75V-4.41c.406-.14.812-.294,1.232-.434V-6.272c-.42.126-.854.28-1.232.378V-7.518h1.232v-1.5H26.852v-2.59Zm3.738,9.142a15.439,15.439,0,0,1,1.75,1.708l1.106-.98a17.054,17.054,0,0,0-1.736-1.652h3.052V-.9c0,.21-.084.266-.294.266H31.78a3.9,3.9,0,0,1,.546,1.652c2.03-.112,2.506-.644,2.506-1.61v-2.8h1.33V-4.844h-1.33V-5.88H36.4V-7.364H33.124V-8.61h2.464v-1.442H33.124v-1.582h-1.75v1.582H28.952V-8.61h2.422v1.246H28.35V-5.88h4.858v1.036h-4.76v1.456h1.54Zm10.458-4.13a34.414,34.414,0,0,1,6.972-1.274,2.125,2.125,0,0,1,2.464,2.3A3,3,0,0,1,47.39-2.9c-1.834,1.134-4.48,1.064-5.7,1.036A4.851,4.851,0,0,1,42.21-.014c2.94-.014,8.582-.742,8.582-5.53a4.6,4.6,0,0,0-.56-2.24,3.95,3.95,0,0,0-3.738-1.764,14.443,14.443,0,0,0-1.9.14c-.8.112-4.634.728-5.488.854ZM63.882-9.968a34.475,34.475,0,0,1-3.808.308,12.49,12.49,0,0,1-3.3-.434l-.434,1.666a13.084,13.084,0,0,0,4.018.518,28.83,28.83,0,0,0,3.71-.28ZM56.126-4.8A4.359,4.359,0,0,0,55.2-2.408C55.2.042,59.836.14,61.25.14a32.306,32.306,0,0,0,4.046-.2l-.2-1.932a26.427,26.427,0,0,1-4.214.322,21.813,21.813,0,0,1-2.408-.168c-.7-.1-1.456-.28-1.456-.882a3,3,0,0,1,.6-1.372ZM73.29-11.326c0,3.626,0,3.892.392,5.306-1.148.574-3.4,1.652-3.4,3.738A2.706,2.706,0,0,0,72.142.2,13.793,13.793,0,0,0,76.664.77a32,32,0,0,0,3.514-.2L80.094-1.26a34.482,34.482,0,0,1-4.368.28c-.994,0-3.682,0-3.682-1.428a1.542,1.542,0,0,1,.63-1.12c1.582-1.358,4.774-2,7.434-2.534L79.534-7.9c-2.9.8-3.206.882-4.284,1.26a11.471,11.471,0,0,1-.168-1.918c0-.182.014-1.288.112-2.8Z" transform="translate(880 4198)" fill="#fff"/>
    <path id="線_3" data-name="線 3" d="M598,.5h-2v-1h2Zm-4,0h-2v-1h2Zm-4,0h-2v-1h2Zm-4,0h-2v-1h2Zm-4,0h-2v-1h2Zm-4,0h-2v-1h2Zm-4,0h-2v-1h2Zm-4,0h-2v-1h2Zm-4,0h-2v-1h2Zm-4,0h-2v-1h2Zm-4,0h-2v-1h2Zm-4,0h-2v-1h2Zm-4,0h-2v-1h2Zm-4,0h-2v-1h2Zm-4,0h-2v-1h2Zm-4,0h-2v-1h2Zm-4,0h-2v-1h2Zm-4,0h-2v-1h2Zm-4,0h-2v-1h2Zm-4,0h-2v-1h2Zm-4,0h-2v-1h2Zm-4,0h-2v-1h2Zm-4,0h-2v-1h2Zm-4,0h-2v-1h2Zm-4,0h-2v-1h2Zm-4,0h-2v-1h2Zm-4,0h-2v-1h2Zm-4,0h-2v-1h2Zm-4,0h-2v-1h2Zm-4,0h-2v-1h2Zm-4,0h-2v-1h2Zm-4,0h-2v-1h2Zm-4,0h-2v-1h2Zm-4,0h-2v-1h2Zm-4,0h-2v-1h2Zm-4,0h-2v-1h2Zm-4,0h-2v-1h2Zm-4,0h-2v-1h2Zm-4,0h-2v-1h2Zm-4,0h-2v-1h2Zm-4,0h-2v-1h2Zm-4,0h-2v-1h2Zm-4,0h-2v-1h2Zm-4,0h-2v-1h2Zm-4,0h-2v-1h2Zm-4,0h-2v-1h2Zm-4,0h-2v-1h2Zm-4,0h-2v-1h2Zm-4,0h-2v-1h2Zm-4,0h-2v-1h2Zm-4,0h-2v-1h2Zm-4,0h-2v-1h2Zm-4,0h-2v-1h2Zm-4,0h-2v-1h2Zm-4,0h-2v-1h2Zm-4,0h-2v-1h2Zm-4,0h-2v-1h2Zm-4,0h-2v-1h2Zm-4,0h-2v-1h2Zm-4,0h-2v-1h2Zm-4,0h-2v-1h2Zm-4,0h-2v-1h2Zm-4,0h-2v-1h2Zm-4,0h-2v-1h2Zm-4,0h-2v-1h2Zm-4,0h-2v-1h2Zm-4,0h-2v-1h2Zm-4,0h-2v-1h2Zm-4,0h-2v-1h2Zm-4,0h-2v-1h2Zm-4,0h-2v-1h2Zm-4,0h-2v-1h2Zm-4,0h-2v-1h2Zm-4,0h-2v-1h2Zm-4,0h-2v-1h2Zm-4,0h-2v-1h2Zm-4,0h-2v-1h2Zm-4,0h-2v-1h2Zm-4,0h-2v-1h2Zm-4,0h-2v-1h2Zm-4,0h-2v-1h2Zm-4,0h-2v-1h2Zm-4,0h-2v-1h2Zm-4,0h-2v-1h2Zm-4,0h-2v-1h2Zm-4,0h-2v-1h2Zm-4,0h-2v-1h2Zm-4,0h-2v-1h2Zm-4,0h-2v-1h2Zm-4,0h-2v-1h2Zm-4,0h-2v-1h2Zm-4,0h-2v-1h2Zm-4,0h-2v-1h2Zm-4,0h-2v-1h2Zm-4,0h-2v-1h2Zm-4,0h-2v-1h2Zm-4,0h-2v-1h2Zm-4,0h-2v-1h2Zm-4,0h-2v-1h2Zm-4,0h-2v-1h2Zm-4,0h-2v-1h2Zm-4,0h-2v-1h2Zm-4,0h-2v-1h2Zm-4,0h-2v-1h2Zm-4,0h-2v-1h2Zm-4,0h-2v-1h2Zm-4,0h-2v-1h2Zm-4,0h-2v-1h2Zm-4,0h-2v-1h2Zm-4,0h-2v-1h2Zm-4,0h-2v-1h2Zm-4,0h-2v-1h2Zm-4,0h-2v-1h2Zm-4,0h-2v-1h2Zm-4,0h-2v-1h2Zm-4,0h-2v-1h2Zm-4,0h-2v-1h2Zm-4,0h-2v-1h2Zm-4,0h-2v-1h2Zm-4,0h-2v-1h2Zm-4,0h-2v-1h2Zm-4,0h-2v-1h2Zm-4,0h-2v-1h2Zm-4,0h-2v-1h2Zm-4,0h-2v-1h2Zm-4,0H96v-1h2Zm-4,0H92v-1h2Zm-4,0H88v-1h2Zm-4,0H84v-1h2Zm-4,0H80v-1h2Zm-4,0H76v-1h2Zm-4,0H72v-1h2Zm-4,0H68v-1h2Zm-4,0H64v-1h2Zm-4,0H60v-1h2Zm-4,0H56v-1h2Zm-4,0H52v-1h2Zm-4,0H48v-1h2Zm-4,0H44v-1h2Zm-4,0H40v-1h2Zm-4,0H36v-1h2Zm-4,0H32v-1h2Zm-4,0H28v-1h2Zm-4,0H24v-1h2Zm-4,0H20v-1h2Zm-4,0H16v-1h2Zm-4,0H12v-1h2Zm-4,0H8v-1h2ZM6,.5H4v-1H6ZM2,.5H0v-1H2Z" transform="translate(580 4262.5)" fill="#474645"/>
    <path id="線_4" data-name="線 4" d="M598,.5h-2v-1h2Zm-4,0h-2v-1h2Zm-4,0h-2v-1h2Zm-4,0h-2v-1h2Zm-4,0h-2v-1h2Zm-4,0h-2v-1h2Zm-4,0h-2v-1h2Zm-4,0h-2v-1h2Zm-4,0h-2v-1h2Zm-4,0h-2v-1h2Zm-4,0h-2v-1h2Zm-4,0h-2v-1h2Zm-4,0h-2v-1h2Zm-4,0h-2v-1h2Zm-4,0h-2v-1h2Zm-4,0h-2v-1h2Zm-4,0h-2v-1h2Zm-4,0h-2v-1h2Zm-4,0h-2v-1h2Zm-4,0h-2v-1h2Zm-4,0h-2v-1h2Zm-4,0h-2v-1h2Zm-4,0h-2v-1h2Zm-4,0h-2v-1h2Zm-4,0h-2v-1h2Zm-4,0h-2v-1h2Zm-4,0h-2v-1h2Zm-4,0h-2v-1h2Zm-4,0h-2v-1h2Zm-4,0h-2v-1h2Zm-4,0h-2v-1h2Zm-4,0h-2v-1h2Zm-4,0h-2v-1h2Zm-4,0h-2v-1h2Zm-4,0h-2v-1h2Zm-4,0h-2v-1h2Zm-4,0h-2v-1h2Zm-4,0h-2v-1h2Zm-4,0h-2v-1h2Zm-4,0h-2v-1h2Zm-4,0h-2v-1h2Zm-4,0h-2v-1h2Zm-4,0h-2v-1h2Zm-4,0h-2v-1h2Zm-4,0h-2v-1h2Zm-4,0h-2v-1h2Zm-4,0h-2v-1h2Zm-4,0h-2v-1h2Zm-4,0h-2v-1h2Zm-4,0h-2v-1h2Zm-4,0h-2v-1h2Zm-4,0h-2v-1h2Zm-4,0h-2v-1h2Zm-4,0h-2v-1h2Zm-4,0h-2v-1h2Zm-4,0h-2v-1h2Zm-4,0h-2v-1h2Zm-4,0h-2v-1h2Zm-4,0h-2v-1h2Zm-4,0h-2v-1h2Zm-4,0h-2v-1h2Zm-4,0h-2v-1h2Zm-4,0h-2v-1h2Zm-4,0h-2v-1h2Zm-4,0h-2v-1h2Zm-4,0h-2v-1h2Zm-4,0h-2v-1h2Zm-4,0h-2v-1h2Zm-4,0h-2v-1h2Zm-4,0h-2v-1h2Zm-4,0h-2v-1h2Zm-4,0h-2v-1h2Zm-4,0h-2v-1h2Zm-4,0h-2v-1h2Zm-4,0h-2v-1h2Zm-4,0h-2v-1h2Zm-4,0h-2v-1h2Zm-4,0h-2v-1h2Zm-4,0h-2v-1h2Zm-4,0h-2v-1h2Zm-4,0h-2v-1h2Zm-4,0h-2v-1h2Zm-4,0h-2v-1h2Zm-4,0h-2v-1h2Zm-4,0h-2v-1h2Zm-4,0h-2v-1h2Zm-4,0h-2v-1h2Zm-4,0h-2v-1h2Zm-4,0h-2v-1h2Zm-4,0h-2v-1h2Zm-4,0h-2v-1h2Zm-4,0h-2v-1h2Zm-4,0h-2v-1h2Zm-4,0h-2v-1h2Zm-4,0h-2v-1h2Zm-4,0h-2v-1h2Zm-4,0h-2v-1h2Zm-4,0h-2v-1h2Zm-4,0h-2v-1h2Zm-4,0h-2v-1h2Zm-4,0h-2v-1h2Zm-4,0h-2v-1h2Zm-4,0h-2v-1h2Zm-4,0h-2v-1h2Zm-4,0h-2v-1h2Zm-4,0h-2v-1h2Zm-4,0h-2v-1h2Zm-4,0h-2v-1h2Zm-4,0h-2v-1h2Zm-4,0h-2v-1h2Zm-4,0h-2v-1h2Zm-4,0h-2v-1h2Zm-4,0h-2v-1h2Zm-4,0h-2v-1h2Zm-4,0h-2v-1h2Zm-4,0h-2v-1h2Zm-4,0h-2v-1h2Zm-4,0h-2v-1h2Zm-4,0h-2v-1h2Zm-4,0h-2v-1h2Zm-4,0h-2v-1h2Zm-4,0h-2v-1h2Zm-4,0h-2v-1h2Zm-4,0h-2v-1h2Zm-4,0h-2v-1h2Zm-4,0H96v-1h2Zm-4,0H92v-1h2Zm-4,0H88v-1h2Zm-4,0H84v-1h2Zm-4,0H80v-1h2Zm-4,0H76v-1h2Zm-4,0H72v-1h2Zm-4,0H68v-1h2Zm-4,0H64v-1h2Zm-4,0H60v-1h2Zm-4,0H56v-1h2Zm-4,0H52v-1h2Zm-4,0H48v-1h2Zm-4,0H44v-1h2Zm-4,0H40v-1h2Zm-4,0H36v-1h2Zm-4,0H32v-1h2Zm-4,0H28v-1h2Zm-4,0H24v-1h2Zm-4,0H20v-1h2Zm-4,0H16v-1h2Zm-4,0H12v-1h2Zm-4,0H8v-1h2ZM6,.5H4v-1H6ZM2,.5H0v-1H2Z" transform="translate(580 4122.5)" fill="#474645"/>
    <path id="線_5" data-name="線 5" d="M598,.5h-2v-1h2Zm-4,0h-2v-1h2Zm-4,0h-2v-1h2Zm-4,0h-2v-1h2Zm-4,0h-2v-1h2Zm-4,0h-2v-1h2Zm-4,0h-2v-1h2Zm-4,0h-2v-1h2Zm-4,0h-2v-1h2Zm-4,0h-2v-1h2Zm-4,0h-2v-1h2Zm-4,0h-2v-1h2Zm-4,0h-2v-1h2Zm-4,0h-2v-1h2Zm-4,0h-2v-1h2Zm-4,0h-2v-1h2Zm-4,0h-2v-1h2Zm-4,0h-2v-1h2Zm-4,0h-2v-1h2Zm-4,0h-2v-1h2Zm-4,0h-2v-1h2Zm-4,0h-2v-1h2Zm-4,0h-2v-1h2Zm-4,0h-2v-1h2Zm-4,0h-2v-1h2Zm-4,0h-2v-1h2Zm-4,0h-2v-1h2Zm-4,0h-2v-1h2Zm-4,0h-2v-1h2Zm-4,0h-2v-1h2Zm-4,0h-2v-1h2Zm-4,0h-2v-1h2Zm-4,0h-2v-1h2Zm-4,0h-2v-1h2Zm-4,0h-2v-1h2Zm-4,0h-2v-1h2Zm-4,0h-2v-1h2Zm-4,0h-2v-1h2Zm-4,0h-2v-1h2Zm-4,0h-2v-1h2Zm-4,0h-2v-1h2Zm-4,0h-2v-1h2Zm-4,0h-2v-1h2Zm-4,0h-2v-1h2Zm-4,0h-2v-1h2Zm-4,0h-2v-1h2Zm-4,0h-2v-1h2Zm-4,0h-2v-1h2Zm-4,0h-2v-1h2Zm-4,0h-2v-1h2Zm-4,0h-2v-1h2Zm-4,0h-2v-1h2Zm-4,0h-2v-1h2Zm-4,0h-2v-1h2Zm-4,0h-2v-1h2Zm-4,0h-2v-1h2Zm-4,0h-2v-1h2Zm-4,0h-2v-1h2Zm-4,0h-2v-1h2Zm-4,0h-2v-1h2Zm-4,0h-2v-1h2Zm-4,0h-2v-1h2Zm-4,0h-2v-1h2Zm-4,0h-2v-1h2Zm-4,0h-2v-1h2Zm-4,0h-2v-1h2Zm-4,0h-2v-1h2Zm-4,0h-2v-1h2Zm-4,0h-2v-1h2Zm-4,0h-2v-1h2Zm-4,0h-2v-1h2Zm-4,0h-2v-1h2Zm-4,0h-2v-1h2Zm-4,0h-2v-1h2Zm-4,0h-2v-1h2Zm-4,0h-2v-1h2Zm-4,0h-2v-1h2Zm-4,0h-2v-1h2Zm-4,0h-2v-1h2Zm-4,0h-2v-1h2Zm-4,0h-2v-1h2Zm-4,0h-2v-1h2Zm-4,0h-2v-1h2Zm-4,0h-2v-1h2Zm-4,0h-2v-1h2Zm-4,0h-2v-1h2Zm-4,0h-2v-1h2Zm-4,0h-2v-1h2Zm-4,0h-2v-1h2Zm-4,0h-2v-1h2Zm-4,0h-2v-1h2Zm-4,0h-2v-1h2Zm-4,0h-2v-1h2Zm-4,0h-2v-1h2Zm-4,0h-2v-1h2Zm-4,0h-2v-1h2Zm-4,0h-2v-1h2Zm-4,0h-2v-1h2Zm-4,0h-2v-1h2Zm-4,0h-2v-1h2Zm-4,0h-2v-1h2Zm-4,0h-2v-1h2Zm-4,0h-2v-1h2Zm-4,0h-2v-1h2Zm-4,0h-2v-1h2Zm-4,0h-2v-1h2Zm-4,0h-2v-1h2Zm-4,0h-2v-1h2Zm-4,0h-2v-1h2Zm-4,0h-2v-1h2Zm-4,0h-2v-1h2Zm-4,0h-2v-1h2Zm-4,0h-2v-1h2Zm-4,0h-2v-1h2Zm-4,0h-2v-1h2Zm-4,0h-2v-1h2Zm-4,0h-2v-1h2Zm-4,0h-2v-1h2Zm-4,0h-2v-1h2Zm-4,0h-2v-1h2Zm-4,0h-2v-1h2Zm-4,0h-2v-1h2Zm-4,0h-2v-1h2Zm-4,0h-2v-1h2Zm-4,0h-2v-1h2Zm-4,0H96v-1h2Zm-4,0H92v-1h2Zm-4,0H88v-1h2Zm-4,0H84v-1h2Zm-4,0H80v-1h2Zm-4,0H76v-1h2Zm-4,0H72v-1h2Zm-4,0H68v-1h2Zm-4,0H64v-1h2Zm-4,0H60v-1h2Zm-4,0H56v-1h2Zm-4,0H52v-1h2Zm-4,0H48v-1h2Zm-4,0H44v-1h2Zm-4,0H40v-1h2Zm-4,0H36v-1h2Zm-4,0H32v-1h2Zm-4,0H28v-1h2Zm-4,0H24v-1h2Zm-4,0H20v-1h2Zm-4,0H16v-1h2Zm-4,0H12v-1h2Zm-4,0H8v-1h2ZM6,.5H4v-1H6ZM2,.5H0v-1H2Z" transform="translate(580 3982.5)" fill="#474645"/>
    <path id="線_6" data-name="線 6" d="M598,.5h-2v-1h2Zm-4,0h-2v-1h2Zm-4,0h-2v-1h2Zm-4,0h-2v-1h2Zm-4,0h-2v-1h2Zm-4,0h-2v-1h2Zm-4,0h-2v-1h2Zm-4,0h-2v-1h2Zm-4,0h-2v-1h2Zm-4,0h-2v-1h2Zm-4,0h-2v-1h2Zm-4,0h-2v-1h2Zm-4,0h-2v-1h2Zm-4,0h-2v-1h2Zm-4,0h-2v-1h2Zm-4,0h-2v-1h2Zm-4,0h-2v-1h2Zm-4,0h-2v-1h2Zm-4,0h-2v-1h2Zm-4,0h-2v-1h2Zm-4,0h-2v-1h2Zm-4,0h-2v-1h2Zm-4,0h-2v-1h2Zm-4,0h-2v-1h2Zm-4,0h-2v-1h2Zm-4,0h-2v-1h2Zm-4,0h-2v-1h2Zm-4,0h-2v-1h2Zm-4,0h-2v-1h2Zm-4,0h-2v-1h2Zm-4,0h-2v-1h2Zm-4,0h-2v-1h2Zm-4,0h-2v-1h2Zm-4,0h-2v-1h2Zm-4,0h-2v-1h2Zm-4,0h-2v-1h2Zm-4,0h-2v-1h2Zm-4,0h-2v-1h2Zm-4,0h-2v-1h2Zm-4,0h-2v-1h2Zm-4,0h-2v-1h2Zm-4,0h-2v-1h2Zm-4,0h-2v-1h2Zm-4,0h-2v-1h2Zm-4,0h-2v-1h2Zm-4,0h-2v-1h2Zm-4,0h-2v-1h2Zm-4,0h-2v-1h2Zm-4,0h-2v-1h2Zm-4,0h-2v-1h2Zm-4,0h-2v-1h2Zm-4,0h-2v-1h2Zm-4,0h-2v-1h2Zm-4,0h-2v-1h2Zm-4,0h-2v-1h2Zm-4,0h-2v-1h2Zm-4,0h-2v-1h2Zm-4,0h-2v-1h2Zm-4,0h-2v-1h2Zm-4,0h-2v-1h2Zm-4,0h-2v-1h2Zm-4,0h-2v-1h2Zm-4,0h-2v-1h2Zm-4,0h-2v-1h2Zm-4,0h-2v-1h2Zm-4,0h-2v-1h2Zm-4,0h-2v-1h2Zm-4,0h-2v-1h2Zm-4,0h-2v-1h2Zm-4,0h-2v-1h2Zm-4,0h-2v-1h2Zm-4,0h-2v-1h2Zm-4,0h-2v-1h2Zm-4,0h-2v-1h2Zm-4,0h-2v-1h2Zm-4,0h-2v-1h2Zm-4,0h-2v-1h2Zm-4,0h-2v-1h2Zm-4,0h-2v-1h2Zm-4,0h-2v-1h2Zm-4,0h-2v-1h2Zm-4,0h-2v-1h2Zm-4,0h-2v-1h2Zm-4,0h-2v-1h2Zm-4,0h-2v-1h2Zm-4,0h-2v-1h2Zm-4,0h-2v-1h2Zm-4,0h-2v-1h2Zm-4,0h-2v-1h2Zm-4,0h-2v-1h2Zm-4,0h-2v-1h2Zm-4,0h-2v-1h2Zm-4,0h-2v-1h2Zm-4,0h-2v-1h2Zm-4,0h-2v-1h2Zm-4,0h-2v-1h2Zm-4,0h-2v-1h2Zm-4,0h-2v-1h2Zm-4,0h-2v-1h2Zm-4,0h-2v-1h2Zm-4,0h-2v-1h2Zm-4,0h-2v-1h2Zm-4,0h-2v-1h2Zm-4,0h-2v-1h2Zm-4,0h-2v-1h2Zm-4,0h-2v-1h2Zm-4,0h-2v-1h2Zm-4,0h-2v-1h2Zm-4,0h-2v-1h2Zm-4,0h-2v-1h2Zm-4,0h-2v-1h2Zm-4,0h-2v-1h2Zm-4,0h-2v-1h2Zm-4,0h-2v-1h2Zm-4,0h-2v-1h2Zm-4,0h-2v-1h2Zm-4,0h-2v-1h2Zm-4,0h-2v-1h2Zm-4,0h-2v-1h2Zm-4,0h-2v-1h2Zm-4,0h-2v-1h2Zm-4,0h-2v-1h2Zm-4,0h-2v-1h2Zm-4,0h-2v-1h2Zm-4,0h-2v-1h2Zm-4,0H96v-1h2Zm-4,0H92v-1h2Zm-4,0H88v-1h2Zm-4,0H84v-1h2Zm-4,0H80v-1h2Zm-4,0H76v-1h2Zm-4,0H72v-1h2Zm-4,0H68v-1h2Zm-4,0H64v-1h2Zm-4,0H60v-1h2Zm-4,0H56v-1h2Zm-4,0H52v-1h2Zm-4,0H48v-1h2Zm-4,0H44v-1h2Zm-4,0H40v-1h2Zm-4,0H36v-1h2Zm-4,0H32v-1h2Zm-4,0H28v-1h2Zm-4,0H24v-1h2Zm-4,0H20v-1h2Zm-4,0H16v-1h2Zm-4,0H12v-1h2Zm-4,0H8v-1h2ZM6,.5H4v-1H6ZM2,.5H0v-1H2Z" transform="translate(580 3842.5)" fill="#474645"/>
  </g>
</svg>
