<svg xmlns="http://www.w3.org/2000/svg" xmlns:xlink="http://www.w3.org/1999/xlink" width="200" height="47.218" viewBox="0 0 200 47.218">
  <defs>
    <clipPath id="clip-path">
      <rect id="長方形_88" data-name="長方形 88" width="200" height="47.218" fill="none"/>
    </clipPath>
  </defs>
  <g id="グループ_37" data-name="グループ 37" transform="translate(-403 -109)">
    <g id="グループ_38" data-name="グループ 38" transform="translate(403 109)">
      <g id="グループ_37-2" data-name="グループ 37" transform="translate(0 0)" clip-path="url(#clip-path)">
        <path id="パス_234" data-name="パス 234" d="M73.4,3.257V4.533h1.239V5.871H73.4v.991l1.326,1.461v1.921L73.4,8.621v5.786H72.025v-4.3a8.515,8.515,0,0,1-.681,1.1,6.638,6.638,0,0,1-.793.9V10.071a6.36,6.36,0,0,0,.917-1.512,6.4,6.4,0,0,0,.557-2.081V5.871H70.551V4.533h1.474V3.257Zm3.283.2L76.6,4.484h1.14V3.257h1.413V4.484H81.44V5.871H79.149V7.977h2.527V9.316H79.607a6.106,6.106,0,0,0,.8,1.734,5.42,5.42,0,0,0,1.27,1.413v1.8a4.4,4.4,0,0,1-1.381-1.3,9.1,9.1,0,0,1-1.146-2.094v3.531H77.736V10.876a8.434,8.434,0,0,1-1.245,2.051,5.079,5.079,0,0,1-1.567,1.332v-1.8a5.66,5.66,0,0,0,1.387-1.413,5.685,5.685,0,0,0,.868-1.734h-2.07V7.977h2.627V5.871H76.386c-.058.288-.117.535-.179.737s-.146.448-.254.736h-1.3a8.858,8.858,0,0,0,.564-1.765,9.988,9.988,0,0,0,.217-2.125Z" transform="translate(-12.238 -0.565)" fill="#474645"/>
        <path id="パス_235" data-name="パス 235" d="M94.224,3.257v1.5h1.115l-.248-1.5h1.1l.26,1.5h.57V6.181h-2.8v.174a9.419,9.419,0,0,0,.675,3.858,5.061,5.061,0,0,0,2.125,2.336v1.846a6.833,6.833,0,0,1-3.24-3.1,10.717,10.717,0,0,1-1.059-4.948V6.181H85.9V4.756h6.826v-1.5ZM92.341,7.9V9.278h-2.5v3.468a13.776,13.776,0,0,0,1.518-.229,9.3,9.3,0,0,0,1.3-.378v1.437a13.256,13.256,0,0,1-2.776.514q-1.66.155-3.976.155V12.858l2.453-.025V9.278H85.9V7.9Z" transform="translate(-14.9 -0.565)" fill="#474645"/>
        <path id="パス_236" data-name="パス 236" d="M105.805,3.258h2.007A4.8,4.8,0,0,0,109.615,5a7.541,7.541,0,0,0,2.757.867V7.433c-.116-.017-.229-.036-.341-.056s-.32-.072-.626-.155V8.387H102.25V7.2l-1,.236V5.872a7.717,7.717,0,0,0,2.725-.855,4.823,4.823,0,0,0,1.833-1.759m6.566,6.368v1.35h-7.458l-.9,1.957q2.131,0,3.425-.093a12.221,12.221,0,0,0,2.373-.39l-.484-1.041h1.635l1.413,2.985h-1.635l-.4-.805a10.232,10.232,0,0,1-2.54.527q-1.437.13-3.952.13h-2.6V12.933h1.09l.879-1.957h-1.97V9.626Zm-9.477-2.6h7.793a7.512,7.512,0,0,1-3.878-2.478,6.9,6.9,0,0,1-1.672,1.48,9,9,0,0,1-2.242,1" transform="translate(-17.562 -0.565)" fill="#474645"/>
        <path id="パス_237" data-name="パス 237" d="M119.568,3.257V4.471h1.5V5.76a5.4,5.4,0,0,1-.446,1.555,8.664,8.664,0,0,1-.9,1.567l1.611,1.326v1.684l-1.71-1.512v4.014h-1.412V10.541a6.276,6.276,0,0,1-1.611,1.115V9.935A5.988,5.988,0,0,0,118.552,8.2a5.26,5.26,0,0,0,1.065-2.366H116.6V4.471h1.561V3.257Zm5.724,0V6.292h2.168V7.8h-2.168v4.955h2.428v1.487h-6.33V12.759h2.44V7.8h-2.156V6.292h2.156V3.257Z" transform="translate(-20.225 -0.565)" fill="#474645"/>
        <path id="パス_238" data-name="パス 238" d="M63.869,27.159V46.495h-3.1v-4.3a12.382,12.382,0,0,1-3.676,2.56v-3.6a9.9,9.9,0,0,0,1.8-1.007,11.55,11.55,0,0,0,1.88-1.662V34.893L57.088,32.9V29.692l3.676,1.987v-4.52Zm7.082-5.148v1.036h10.4v5.446H80.292v6.238H65.776V32.987H77.241v-1.2H65.776V30.045H77.241v-1.2H65.776V27.159H78.3V25.716H60.383v2.777h-3.1V23.047h10.4V22.011ZM81.136,35.955v4.032h-1.8v.843a10.993,10.993,0,0,1-3.459,3.16q1.226.218,2.683.341t2.982.123v2.042a30.014,30.014,0,0,1-4.589-.326,28.53,28.53,0,0,1-3.908-.872,28.373,28.373,0,0,1-3.636.872,23.919,23.919,0,0,1-4.072.326V44.453q1.389,0,2.37-.1t2.369-.34A18.461,18.461,0,0,1,68.322,42.9a13.77,13.77,0,0,1-1.43-1.2h3.35a9.355,9.355,0,0,0,1.157.789,7.775,7.775,0,0,0,1.594.654,9,9,0,0,0,3.458-2.316h-9.8v-.843H64.986V35.955ZM67.845,39.169H78.331V37.916H67.845Z" transform="translate(-9.903 -3.818)" fill="#474645"/>
        <path id="パス_239" data-name="パス 239" d="M114.959,22.539v6.482H95.214v4.766a24.36,24.36,0,0,1-1.008,7.3,11.49,11.49,0,0,1-3.376,5.5V41.6a8.587,8.587,0,0,0,1.062-3.187,28.772,28.772,0,0,0,.354-4.738V22.539Zm-.327,8.143v2.287h-2.124l2.315,4.875h-3.077l-.491-1.089a12.1,12.1,0,0,1-1.988.585q-1.008.2-2.342.341v1.961h7.707v2.4h-7.707v1.851h8.361V46.26H94.777V43.891H103.9V42.04H95.568v-2.4H103.9V37.818l-7.435.026V35.421h2.042l1.008-2.452H96.467V30.682ZM95.214,26.651h16.722V24.909H95.214Zm6.482,8.77q3.4,0,5.092-.055a13.168,13.168,0,0,0,3.459-.6l-.762-1.8h-6.7Z" transform="translate(-15.755 -3.91)" fill="#474645"/>
        <path id="パス_240" data-name="パス 240" d="M129.663,22.011V33.668a19.82,19.82,0,0,1-1.117,7.026,15.4,15.4,0,0,1-3.976,5.8V41.512a10.012,10.012,0,0,0,1.361-3.172,18.733,18.733,0,0,0,.464-4.508V22.011Zm9.369,24.157h-3.35V22.011h3.35Zm9.313.326H145.1V22.011h3.241Z" transform="translate(-21.608 -3.818)" fill="#474645"/>
        <path id="パス_241" data-name="パス 241" d="M182.217,29.008a26.172,26.172,0,0,1-1.2,8.579,12.055,12.055,0,0,1-4.766,6.346q-3.732,2.478-10,2.478H158.9V42.924h7.9a12.924,12.924,0,0,0,7.571-1.961,9.416,9.416,0,0,0,3.486-5.093,25.334,25.334,0,0,0,.844-7.107V26.585h3.514Zm-11.194-2.07H159.312V23.724h11.711Zm0,7.789H159.312V31.54h11.711Z" transform="translate(-27.564 -4.115)" fill="#474645"/>
        <rect id="長方形_87" data-name="長方形 87" width="11.794" height="3.759" transform="translate(159.881 28.759)" fill="#474645"/>
        <path id="パス_242" data-name="パス 242" d="M219.1,35.258A34.141,34.141,0,0,1,218.532,42a14.951,14.951,0,0,1-1.389,4.234H213.6a13.748,13.748,0,0,0,1.484-4.3,34.717,34.717,0,0,0,.531-6.592V22.7H219.1Zm17.948-1.8q0,6.21-2.506,9.4a8.727,8.727,0,0,1-7.3,3.186h-4.3V22.7h3.486V42.585h1.443a4.611,4.611,0,0,0,4.057-2.233q1.635-2.532,1.635-7.326V26.816h3.486Z" transform="translate(-37.052 -3.938)" fill="#474645"/>
        <path id="パス_243" data-name="パス 243" d="M35.9,3.676,34.592,21.427,28.01,47.211h7.032l6.583-25.768L52.044,0Zm-3.945,38.48a.8.8,0,0,1,.986-.614.893.893,0,0,1,.56,1.081.8.8,0,0,1-.986.615.892.892,0,0,1-.56-1.082M34.4,45.393H29.564l.193-.774h4.834Zm5.616-22H35.2l.193-.774h4.819Z" transform="translate(-4.859 0)" fill="#474645"/>
        <path id="パス_244" data-name="パス 244" d="M0,37.983H7.128l3.677-14.945L6.864,11Z" transform="translate(0 -1.908)" fill="#474645"/>
        <path id="パス_245" data-name="パス 245" d="M16.974,8.751H8.933v0l13.11,39.983h1.533l3.009-11.681Z" transform="translate(-1.55 -1.518)" fill="#e54300"/>
      </g>
    </g>
  </g>
</svg>
