<svg xmlns="http://www.w3.org/2000/svg" xmlns:xlink="http://www.w3.org/1999/xlink" width="180" height="42.497" viewBox="0 0 180 42.497">
  <defs>
    <clipPath id="clip-path">
      <rect id="長方形_77" data-name="長方形 77" width="180" height="42.497" fill="none"/>
    </clipPath>
  </defs>
  <g id="グループ_27" data-name="グループ 27" transform="translate(-520 -9156)">
    <g id="グループ_26" data-name="グループ 26" transform="translate(520 9156)">
      <g id="グループ_25" data-name="グループ 25" transform="translate(0 0)" clip-path="url(#clip-path)">
        <path id="パス_197" data-name="パス 197" d="M73.115,3.257V4.406H74.23v1.2H73.115V6.5l1.193,1.315V9.546L73.115,8.085v5.207H71.877V9.423a7.664,7.664,0,0,1-.613.992,5.974,5.974,0,0,1-.713.814V9.39a5.724,5.724,0,0,0,.825-1.361,5.757,5.757,0,0,0,.5-1.873V5.61H70.551v-1.2h1.326V3.257Zm2.955.179-.078.925h1.026v-1.1h1.271v1.1h2.062V5.61H78.289v1.9h2.274v1.2H78.7a5.5,5.5,0,0,0,.719,1.561,4.878,4.878,0,0,0,1.143,1.271v1.616a3.964,3.964,0,0,1-1.243-1.171A8.187,8.187,0,0,1,78.289,10.1v3.178H77.018V10.114A7.59,7.59,0,0,1,75.9,11.96a4.571,4.571,0,0,1-1.41,1.2V11.542a5.094,5.094,0,0,0,1.248-1.271,5.117,5.117,0,0,0,.781-1.561H74.654v-1.2h2.364V5.61H75.8c-.052.26-.106.481-.161.664s-.132.4-.228.663H74.241a7.972,7.972,0,0,0,.507-1.588,8.989,8.989,0,0,0,.195-1.913Z" transform="translate(-18.069 -0.834)" fill="#474645"/>
        <path id="パス_198" data-name="パス 198" d="M93.391,3.257V4.606h1l-.223-1.349h.992L95.4,4.606h.513V5.889h-2.52v.156A8.478,8.478,0,0,0,94,9.518a4.555,4.555,0,0,0,1.913,2.1v1.661A6.15,6.15,0,0,1,93,10.488a9.646,9.646,0,0,1-.953-4.454V5.889H85.9V4.606h6.144V3.257ZM91.7,7.438V8.676H89.444V11.8a12.4,12.4,0,0,0,1.366-.206,8.373,8.373,0,0,0,1.166-.34v1.294a11.93,11.93,0,0,1-2.5.463q-1.494.139-3.579.139V11.9l2.208-.022v-3.2H85.9V7.438Z" transform="translate(-22 -0.834)" fill="#474645"/>
        <path id="パス_199" data-name="パス 199" d="M105.35,3.258h1.806a4.319,4.319,0,0,0,1.622,1.572,6.787,6.787,0,0,0,2.481.78V7.015c-.1-.015-.206-.032-.306-.051s-.288-.065-.563-.139V7.874H102.15V6.8l-.9.212V5.61a6.945,6.945,0,0,0,2.453-.769,4.34,4.34,0,0,0,1.65-1.583m5.909,5.731V10.2h-6.712l-.814,1.762q1.918,0,3.083-.083a11,11,0,0,0,2.136-.351l-.435-.937h1.471l1.271,2.687h-1.471l-.357-.725a9.209,9.209,0,0,1-2.286.474q-1.293.117-3.557.117h-2.341V11.965h.981l.791-1.762h-1.773V8.989ZM102.73,6.647h7.013a6.761,6.761,0,0,1-3.49-2.23,6.21,6.21,0,0,1-1.5,1.332,8.1,8.1,0,0,1-2.018.9" transform="translate(-25.931 -0.835)" fill="#474645"/>
        <path id="パス_200" data-name="パス 200" d="M119.271,3.257V4.35h1.349v1.16a4.863,4.863,0,0,1-.4,1.4,7.8,7.8,0,0,1-.814,1.41l1.45,1.193v1.516l-1.539-1.361v3.613h-1.271V9.813a5.648,5.648,0,0,1-1.45,1V9.267a5.389,5.389,0,0,0,1.762-1.561,4.734,4.734,0,0,0,.959-2.129H116.6V4.35H118V3.257Zm5.151,0V5.989h1.951V7.349h-1.951v4.46h2.186v1.338h-5.7V11.809h2.2V7.349h-1.94V5.989h1.94V3.257Z" transform="translate(-29.862 -0.834)" fill="#474645"/>
        <path id="パス_201" data-name="パス 201" d="M63.191,26.644v17.4H60.4V40.174a11.143,11.143,0,0,1-3.309,2.3V39.242a8.906,8.906,0,0,0,1.617-.906,10.4,10.4,0,0,0,1.692-1.5V33.605l-3.309-1.79V28.924L60.4,30.712V26.644Zm6.374-4.633v.932h9.363v4.9h-.955v5.614H64.907v-1.57H75.226V30.811H64.907v-1.57H75.226V28.164H64.907v-1.52H76.183v-1.3H60.053v2.5H57.259v-4.9h9.363v-.932ZM78.731,34.56v3.629H77.113v.759A9.893,9.893,0,0,1,74,41.792q1.1.2,2.415.306t2.684.111v1.837a27.013,27.013,0,0,1-4.13-.294,25.678,25.678,0,0,1-3.517-.785,25.536,25.536,0,0,1-3.272.785,21.527,21.527,0,0,1-3.664.294V42.209q1.25,0,2.133-.087t2.132-.306a16.615,16.615,0,0,1-1.581-1,12.392,12.392,0,0,1-1.287-1.078h3.015a8.42,8.42,0,0,0,1.041.71,7,7,0,0,0,1.434.588,8.1,8.1,0,0,0,3.112-2.084H65.691v-.759H64.2V34.56ZM66.77,37.453h9.437V36.326H66.77Z" transform="translate(-14.621 -5.638)" fill="#474645"/>
        <path id="パス_202" data-name="パス 202" d="M112.546,22.539v5.834H94.775v4.289a21.923,21.923,0,0,1-.908,6.569,10.341,10.341,0,0,1-3.039,4.951V39.7a7.729,7.729,0,0,0,.956-2.868,25.894,25.894,0,0,0,.318-4.264V22.539Zm-.295,7.329v2.058H110.34l2.084,4.387h-2.769l-.442-.98a10.888,10.888,0,0,1-1.789.527q-.907.184-2.108.306v1.764h6.937v2.158h-6.937v1.666h7.525v2.132H94.383V41.756h8.212V40.089h-7.5V37.931h7.5V36.29l-6.691.024V34.132H97.74l.907-2.206H95.9V29.868ZM94.775,26.24h15.05V24.672H94.775Zm5.834,7.893q3.063,0,4.583-.049a11.852,11.852,0,0,0,3.113-.539l-.686-1.618h-6.03Z" transform="translate(-23.263 -5.773)" fill="#474645"/>
        <path id="パス_203" data-name="パス 203" d="M129.154,22.011V32.5a17.838,17.838,0,0,1-1,6.324,13.862,13.862,0,0,1-3.579,5.221V39.561a9.011,9.011,0,0,0,1.225-2.855,16.86,16.86,0,0,0,.417-4.057V22.011Zm8.432,21.742h-3.015V22.011h3.015Zm8.382.294h-2.917V22.011h2.917Z" transform="translate(-31.904 -5.638)" fill="#474645"/>
        <path id="パス_204" data-name="パス 204" d="M179.886,28.48a23.555,23.555,0,0,1-1.079,7.721,10.85,10.85,0,0,1-4.289,5.712q-3.359,2.231-9,2.23H158.9V41h7.109a11.631,11.631,0,0,0,6.814-1.764,8.474,8.474,0,0,0,3.138-4.584,22.8,22.8,0,0,0,.76-6.4V26.3h3.162Zm-10.074-1.863h-10.54V23.724h10.54Zm0,7.01h-10.54V30.758h10.54Z" transform="translate(-40.698 -6.076)" fill="#474645"/>
        <rect id="長方形_76" data-name="長方形 76" width="10.614" height="3.383" transform="translate(143.893 25.883)" fill="#474645"/>
        <path id="パス_205" data-name="パス 205" d="M218.554,34a30.727,30.727,0,0,1-.515,6.067,13.456,13.456,0,0,1-1.25,3.811H213.6a12.373,12.373,0,0,0,1.335-3.873,31.246,31.246,0,0,0,.478-5.932V22.7h3.138Zm16.153-1.617q0,5.589-2.255,8.456a7.855,7.855,0,0,1-6.569,2.868H222.01V22.7h3.137V40.6h1.3a4.149,4.149,0,0,0,3.652-2.01,12.2,12.2,0,0,0,1.471-6.594V26.4h3.138Z" transform="translate(-54.707 -5.815)" fill="#474645"/>
        <path id="パス_206" data-name="パス 206" d="M35.112,3.309,33.934,19.284,28.01,42.49h6.329L40.263,19.3,49.641,0ZM31.561,37.941a.717.717,0,0,1,.887-.553.8.8,0,0,1,.5.973.717.717,0,0,1-.887.553.8.8,0,0,1-.5-.974m2.2,2.912h-4.35l.174-.7h4.351Zm5.055-19.8H34.477l.174-.7h4.337Z" transform="translate(-7.174 0)" fill="#474645"/>
        <path id="パス_207" data-name="パス 207" d="M0,35.284H6.415l3.31-13.45L6.178,11Z" transform="translate(0 -2.817)" fill="#474645"/>
        <path id="パス_208" data-name="パス 208" d="M16.17,8.751H8.933v0l11.8,35.985h1.38l2.708-10.513Z" transform="translate(-2.288 -2.242)" fill="#e54300"/>
      </g>
    </g>
  </g>
</svg>
