<svg xmlns="http://www.w3.org/2000/svg" xmlns:xlink="http://www.w3.org/1999/xlink" width="1154.899" height="276.565" viewBox="0 0 1154.899 276.565">
  <defs>
    <style>
      .cls-1 {
        fill: none;
      }

      .cls-2 {
        opacity: 0.5;
      }

      .cls-3 {
        clip-path: url(#clip-path);
      }

      .cls-4 {
        fill: #fff;
      }
    </style>
    <clipPath id="clip-path">
      <rect id="長方形_386" data-name="長方形 386" class="cls-1" width="1154.899" height="276.565"/>
    </clipPath>
  </defs>
  <g id="グループ_246" data-name="グループ 246" class="cls-2">
    <g id="グループ_245" data-name="グループ 245" class="cls-3">
      <path id="パス_421" data-name="パス 421" class="cls-4" d="M867,275.134l-23.289-.178-.284-.5-23.416-41.571H796.019v42.08h-19.28v-114h48.676a35.444,35.444,0,0,1,18.19,4.857,36.763,36.763,0,0,1,13.237,13.156,35.866,35.866,0,0,1,4.938,18.672,32.849,32.849,0,0,1-4.948,17.479,37.661,37.661,0,0,1-13.148,12.9c-.963.565-1.981,1.1-3.038,1.584Zm-22.115-2.169,18.631.142-25.728-44.439,1.041-.443a33.483,33.483,0,0,0,3.843-1.927,35.657,35.657,0,0,0,12.452-12.218l0-.008a30.852,30.852,0,0,0,4.649-16.428v-.018a33.866,33.866,0,0,0-4.662-17.639A34.764,34.764,0,0,0,842.6,167.546a33.458,33.458,0,0,0-16.9-4.586H778.739v110h15.28v-42.08H821.18Zm-17.643-56.723-.231,0H794.019V177.6h28.512l.378,0a24.277,24.277,0,0,1,10.71,2.5,18.757,18.757,0,0,1,10.56,17.386,20.7,20.7,0,0,1-2.185,9.478,16.948,16.948,0,0,1-6.12,6.8l-.005,0A16.255,16.255,0,0,1,827.243,216.243Zm-31.224-2h31.015a14.262,14.262,0,0,0,7.772-2.166,14.95,14.95,0,0,0,5.4-6l0,0a18.69,18.69,0,0,0,1.974-8.579v-.042a16.754,16.754,0,0,0-9.436-15.551l-.008,0a22.263,22.263,0,0,0-10.18-2.3H796.019Z"/>
      <path id="パス_422" data-name="パス 422" class="cls-4" d="M1071.939,160.961h82.96V179.6h-32.32v95.36H1103.3V179.6h-31.36Zm80.96,2h-78.96V177.6h31.36v95.36h15.28V177.6h32.32Z"/>
      <path id="パス_423" data-name="パス 423" class="cls-4" d="M1001.379,160.961h55.44v18h-18.08v78h18.08v18h-55.44v-18h18.08v-78h-18.08Zm53.44,2h-51.44v14h18.08v82h-18.08v14h51.44v-14h-18.08v-82h18.08Z"/>
      <path id="パス_424" data-name="パス 424" class="cls-4" d="M265.055.961h18.972l43.809,114H307.29l-10.556-27.84H251.259l-10.589,27.84H220.921Zm17.6,2H266.425l-42.586,110H239.29l10.589-27.84h48.235l10.556,27.84h16.254ZM274.11,18.2l1.06,3.208c1,3.043,2.072,6.3,3.2,9.677,1.169,3.509,2.221,6.745,3.125,9.616,1.108,3.523,1.593,4.852,1.805,5.347l.016.039,9.249,24.395H255.449l9.033-23.745,2.4-6.788c.942-2.669,1.935-5.6,2.953-8.7s1.973-6.026,2.88-8.8c.119-.365.233-.711.346-1.054Zm7.343,28.615c-.341-.8-.951-2.606-1.866-5.513-.9-2.861-1.949-6.085-3.115-9.584-.817-2.45-1.608-4.835-2.36-7.12q-1.137,3.477-2.381,7.275c-1.022,3.118-2.02,6.059-2.967,8.742l-2.408,6.823-8.005,21.044h31.317Z"/>
      <path id="パス_425" data-name="パス 425" class="cls-4" d="M381.62,114.961H362.34V64.7L317.247.961H340.5l31.747,45.564L401.19.961h22.247L381.62,64.381Zm-17.28-2h15.28V63.781l.165-.25,39.938-60.57H402.289L372.326,50.134,339.457,2.961H321.112l43.228,61.1Z"/>
      <path id="パス_426" data-name="パス 426" class="cls-4" d="M207.38,114.961H134.82V.961h72.56V19.6H154.1V47.2h44.48v18.64H154.1v30.48h53.28Zm-70.56-2h68.56V98.321H152.1V63.841h44.48V49.2H152.1V17.6h53.28V2.961H136.82Z"/>
      <path id="パス_427" data-name="パス 427" class="cls-4" d="M180.34,274.961H107.78v-114h72.56V179.6H127.06v27.6h44.48v18.64H127.06v30.48h53.28Zm-70.56-2h68.56v-14.64H125.06v-34.48h44.48V209.2H125.06V177.6h53.28v-14.64H109.78Z"/>
      <path id="パス_428" data-name="パス 428" class="cls-4" d="M318.02,160.961H337.3v95.36h52.48v18.64H318.02Zm17.28,2H320.02v110h67.76v-14.64H335.3Z"/>
      <path id="パス_429" data-name="パス 429" class="cls-4" d="M7.939.961H24.96L88.177,85.595c-.285-2.886-.553-5.99-.8-9.239-.266-3.558-.482-7.392-.642-11.395-.159-3.986-.294-8.217-.4-12.576-.107-4.333-.161-8.917-.161-13.624V.961h19.28v114H88.124L24.713,31.819q.365,4.447.663,8.06c.371,4.511.694,8.386.96,11.518s.454,5.715.562,7.71c.107,1.967.188,3.613.241,4.893.054,1.3.081,2.44.081,3.4v47.56H7.939Zm16.019,2H9.939v110h15.28V67.4c0-.934-.027-2.05-.079-3.319s-.133-2.909-.239-4.867c-.107-1.975-.295-4.549-.558-7.65-.266-3.133-.589-7.01-.96-11.523q-.408-4.945-.942-11.464l-.279-3.4,66.953,87.786h14.345v-110H88.179v35.8c0,4.69.054,9.258.161,13.575.105,4.349.239,8.569.4,12.545s.374,7.791.638,11.325c.266,3.56.561,6.942.878,10.053.083.817.176,1.664.3,2.745l.43,3.693Z"/>
      <path id="パス_430" data-name="パス 430" class="cls-4" d="M42.972,276.563a57.816,57.816,0,0,1-16.64-2.445l-.005,0a45.055,45.055,0,0,1-14.4-7.445l-.005,0A54.231,54.231,0,0,1,.431,254.362L0,253.725,13.185,238.58l.734,1.048c5.118,7.312,10.073,12.436,14.727,15.231a31.7,31.7,0,0,0,15.748,4.194c.279,0,.562,0,.84-.011h.04l.4,0a29.233,29.233,0,0,0,10.279-1.859l.013,0a18.27,18.27,0,0,0,7.432-5.005,10.452,10.452,0,0,0,2.627-7.007v-.012a14.34,14.34,0,0,0-.9-5.084,12.4,12.4,0,0,0-2.737-4.29,21.1,21.1,0,0,0-4.885-3.663,39.47,39.47,0,0,0-7.1-3.045,69.735,69.735,0,0,0-9.464-2.287l-.022,0a72.664,72.664,0,0,1-15.25-4.7,36.513,36.513,0,0,1-11.021-7.4l0,0A28.335,28.335,0,0,1,8,204.475L8,204.461a35.854,35.854,0,0,1-2.14-12.743,28.034,28.034,0,0,1,3.07-12.933,32.036,32.036,0,0,1,8.423-10.323,38.8,38.8,0,0,1,12.564-6.734,49.2,49.2,0,0,1,15.5-2.367,54.1,54.1,0,0,1,16.128,2.282,40.346,40.346,0,0,1,13.127,6.809l0,0a37.932,37.932,0,0,1,9.531,11.091l.379.667L70.97,193.652l-.652-1.1A38.034,38.034,0,0,0,63.3,183.9a26.7,26.7,0,0,0-18.068-7.018l-.285,0h-.032c-.2,0-.393-.006-.589-.006a27.218,27.218,0,0,0-9.907,1.859,16.245,16.245,0,0,0-6.854,5.043,11.935,11.935,0,0,0-2.429,7.445v.032a13.729,13.729,0,0,0,1.189,5.732,12.889,12.889,0,0,0,3.627,4.589,24.183,24.183,0,0,0,6.831,3.683l.012,0a71.339,71.339,0,0,0,10.571,2.919l.014,0a87.426,87.426,0,0,1,15.862,4.937,48.3,48.3,0,0,1,11.923,7.106,28.787,28.787,0,0,1,7.54,9.28l.006.011A24.763,24.763,0,0,1,85.3,240.672a34.92,34.92,0,0,1-5.105,19.09l-.012.019a33.21,33.21,0,0,1-14.51,12.451,44.447,44.447,0,0,1-10.222,3.251A62.8,62.8,0,0,1,43.5,276.561ZM26.909,272.2a55.816,55.816,0,0,0,16.581,2.357H43.5a60.8,60.8,0,0,0,11.569-1.041,42.446,42.446,0,0,0,9.77-3.105l.016-.007a31.214,31.214,0,0,0,13.639-11.7,32.925,32.925,0,0,0,4.807-18v-.033a22.754,22.754,0,0,0-2.372-10.261,26.8,26.8,0,0,0-7.017-8.634,46.313,46.313,0,0,0-11.434-6.814,85.437,85.437,0,0,0-15.494-4.823,73.345,73.345,0,0,1-10.857-3,26.18,26.18,0,0,1-7.4-3.99l-.012-.009a14.9,14.9,0,0,1-4.2-5.319l-.007-.015a15.743,15.743,0,0,1-1.368-6.564,13.943,13.943,0,0,1,2.845-8.691L26,182.54a18.245,18.245,0,0,1,7.7-5.671,29.208,29.208,0,0,1,10.631-1.994c.2,0,.411,0,.616.006h.291a28.7,28.7,0,0,1,19.419,7.544,40.04,40.04,0,0,1,6.719,8.022l10.713-10.571a35.925,35.925,0,0,0-8.644-9.846,38.351,38.351,0,0,0-12.473-6.47,52.105,52.105,0,0,0-15.539-2.2H45.41a47.222,47.222,0,0,0-14.885,2.272A36.811,36.811,0,0,0,18.6,170.021a30.043,30.043,0,0,0-7.9,9.678,26.024,26.024,0,0,0-2.849,12.014v.022a33.861,33.861,0,0,0,2.018,12.038,26.348,26.348,0,0,0,6.163,9.474,34.52,34.52,0,0,0,10.417,7,70.66,70.66,0,0,0,14.82,4.573A71.742,71.742,0,0,1,51,227.168a41.462,41.462,0,0,1,7.46,3.2,23.091,23.091,0,0,1,5.347,4.011l.006.006a14.388,14.388,0,0,1,3.18,4.984l0,.006a16.335,16.335,0,0,1,1.024,5.787,12.452,12.452,0,0,1-3.132,8.344,20.28,20.28,0,0,1-8.245,5.556,31.226,31.226,0,0,1-10.972,1.984l-.4,0c-.289.007-.583.011-.873.011a33.706,33.706,0,0,1-16.751-4.464l-.017-.01a38.072,38.072,0,0,1-7.564-6.2,76.411,76.411,0,0,1-7.042-8.561l-10.5,12.056a52.231,52.231,0,0,0,10.631,11.219A43.063,43.063,0,0,0,26.909,272.2Z"/>
      <path id="パス_431" data-name="パス 431" class="cls-4" d="M238.015,160.961h18.972l43.809,114H280.25l-10.556-27.84H224.219l-10.589,27.84H193.881Zm17.6,2H239.385l-42.586,110H212.25l10.589-27.84h48.235l10.556,27.84h16.254ZM247.07,178.2l1.06,3.209c1,3.046,2.073,6.3,3.2,9.677,1.169,3.509,2.221,6.745,3.125,9.616,1.108,3.523,1.593,4.852,1.805,5.347l.016.039,9.249,24.395H228.409l9.032-23.745,2.4-6.788c.942-2.669,1.935-5.6,2.953-8.7s1.973-6.026,2.88-8.8c.12-.367.234-.714.348-1.059Zm7.342,28.616c-.341-.8-.952-2.606-1.866-5.513-.9-2.861-1.949-6.085-3.115-9.584-.817-2.449-1.607-4.833-2.36-7.12q-1.137,3.477-2.381,7.275c-1.022,3.118-2.02,6.059-2.967,8.742l-2.408,6.823-8.005,21.044h31.317Z"/>
      <path id="パス_432" data-name="パス 432" class="cls-4" d="M749.595,114.961H729.049l-10.555-27.84H673.018l-10.59,27.84H642.68l44.134-114h18.972l.246.641Zm-19.165-2h16.254l-42.271-110H688.184l-42.586,110h15.451l10.59-27.84h48.235Zm-16.106-42.48H677.208l9.032-23.744,2.4-6.789c.956-2.709,1.949-5.635,2.953-8.7q1.519-4.639,2.88-8.8c.121-.372.237-.723.353-1.073l1.048-3.179,1.059,3.209c.947,2.892,2.023,6.147,3.2,9.678,1.17,3.511,2.221,6.746,3.125,9.616.893,2.837,1.5,4.636,1.805,5.347l.016.039Zm-34.215-2h31.318l-8.215-21.666c-.337-.793-.948-2.6-1.866-5.513-.9-2.859-1.948-6.084-3.115-9.584-.841-2.525-1.632-4.91-2.36-7.12q-1.138,3.477-2.381,7.276c-1.008,3.078-2.006,6.019-2.967,8.742l-2.408,6.823Z"/>
      <path id="パス_433" data-name="パス 433" class="cls-4" d="M932.444,275.928c-.26,0-.524,0-.785-.006s-.524.006-.785.006a48.168,48.168,0,0,1-22.892-5.807,42.666,42.666,0,0,1-16.468-16.058,45.081,45.081,0,0,1-5.976-23.15V160.8H904.82v68.7a27.166,27.166,0,0,0,3.7,14.12,28.5,28.5,0,0,0,9.815,9.969,25.131,25.131,0,0,0,13.313,3.7h.021l.349,0a26.891,26.891,0,0,0,13.613-3.7,28.048,28.048,0,0,0,9.963-9.964,27.137,27.137,0,0,0,3.7-14.118V160.8h18.48v70.112a45.076,45.076,0,0,1-5.972,23.146,42.677,42.677,0,0,1-16.469,16.06A48.159,48.159,0,0,1,932.444,275.928Zm-.785-2.007h.017c.255,0,.513.006.768.006a46.15,46.15,0,0,0,21.938-5.566,40.672,40.672,0,0,0,15.693-15.3,43.073,43.073,0,0,0,5.7-22.122V162.8H961.3v66.672a29.139,29.139,0,0,1-3.977,15.152A30.054,30.054,0,0,1,946.646,255.3a28.9,28.9,0,0,1-14.991,3.978,27.14,27.14,0,0,1-14.358-3.987,30.5,30.5,0,0,1-10.5-10.668,29.165,29.165,0,0,1-3.976-15.152V162.8H887.539v68.136a43.078,43.078,0,0,0,5.708,22.126,40.661,40.661,0,0,0,15.691,15.3,46.159,46.159,0,0,0,21.936,5.564c.255,0,.513,0,.768-.006Z"/>
      <path id="パス_434" data-name="パス 434" class="cls-4" d="M715.495,160l.489,0a54.17,54.17,0,0,1,30.562,9.536,42.816,42.816,0,0,1,10.562,10.236l.492.677L744.79,193.8l-.722-.732a59.731,59.731,0,0,0-9.207-7.632,39.035,39.035,0,0,0-9.359-4.6,30.349,30.349,0,0,0-9.525-1.548h-.007a35.185,35.185,0,0,0-25.746,10.889,37.253,37.253,0,0,0-7.712,12.231A41.728,41.728,0,0,0,679.7,217.95v.024a45.526,45.526,0,0,0,2.74,16.205,35.247,35.247,0,0,0,7.7,12.367,33.31,33.31,0,0,0,11.88,7.841,41.571,41.571,0,0,0,14.861,2.736c.175,0,.352,0,.527,0h.011a37.745,37.745,0,0,0,19.484-5.455,42.23,42.23,0,0,0,7.972-6.252l.9-.9,9.691,15.794-.494.555a36.769,36.769,0,0,1-10.272,8.055,60.2,60.2,0,0,1-14.307,5.609,63.363,63.363,0,0,1-15.841,2.031c-.21,0-.422,0-.632,0a55.133,55.133,0,0,1-21.2-4.241l-.005,0a50.2,50.2,0,0,1-17.3-12.162A55.472,55.472,0,0,1,664.08,241.5a66.974,66.974,0,0,1-3.981-23.542,59.155,59.155,0,0,1,4.314-22.693,58.345,58.345,0,0,1,11.964-18.477A53.962,53.962,0,0,1,715.495,160Zm39.5,20.28a40.819,40.819,0,0,0-9.576-9.091A52.169,52.169,0,0,0,715.977,162h-.007l-.475,0a51.964,51.964,0,0,0-37.671,16.171,56.356,56.356,0,0,0-11.557,17.847,57.155,57.155,0,0,0-4.168,21.935v.02a64.976,64.976,0,0,0,3.862,22.849A53.472,53.472,0,0,0,676.876,258.8a48.2,48.2,0,0,0,16.609,11.675,53.132,53.132,0,0,0,20.429,4.086c.2,0,.41,0,.613,0h.011a61.36,61.36,0,0,0,15.351-1.968l.008,0a58.193,58.193,0,0,0,13.841-5.427l.013-.007a34.77,34.77,0,0,0,9.223-7.074l-7.593-12.375a44.236,44.236,0,0,1-7.444,5.668,39.744,39.744,0,0,1-20.511,5.745c-.182,0-.365,0-.547,0a43.568,43.568,0,0,1-15.577-2.869,35.308,35.308,0,0,1-12.6-8.317l-.006-.006a37.237,37.237,0,0,1-8.136-13.069,47.518,47.518,0,0,1-2.861-16.9,43.719,43.719,0,0,1,2.947-16.279,39.242,39.242,0,0,1,8.126-12.886l0,0a37.185,37.185,0,0,1,26.9-11.511h.31a32.349,32.349,0,0,1,10.15,1.651,41.041,41.041,0,0,1,9.841,4.839,61.733,61.733,0,0,1,8.788,7.162Z"/>
      <path id="パス_435" data-name="パス 435" class="cls-4" d="M748.212.962h20.505l.217.705,21.594,70.056a49.7,49.7,0,0,1,1.787,6.1c.358,1.545.694,3.107,1,4.667.84-2.856,1.521-5.1,2.028-6.672.54-1.672,1.029-3.11,1.453-4.276l.011-.028,20.411-51.19h16.884l19.762,51.187c1.07,2.568,2.02,5.148,2.825,7.669.255.8.505,1.614.753,2.452.219-1,.56-2.276,1.015-3.795.476-1.583,1.131-3.73,2-6.567L881.96.962h20.668l-36.317,114H852.917L824.858,48.529l-27.247,66.433H784.529Zm19.029,2H750.948l35.043,110h10.278L824.83,43.325l29.413,69.637h10.606l35.043-110H883.44L862.375,71.854c-.871,2.834-1.524,4.978-2,6.555s-.813,2.863-1.018,3.838c-.227,1.08-.436,2.1-.638,3.11-.047.23-.094.482-.139.72l-1.949.071c-.61-2.3-1.213-4.383-1.845-6.363-.788-2.47-1.72-5-2.77-7.519l-.01-.025-19.273-49.92H818.578l-19.9,49.916c-.415,1.14-.894,2.55-1.424,4.191S796,80.458,795.1,83.523c-.3,1.024-.647,2.22-1.032,3.553l-1.945-.1-.327-1.8c-.418-2.3-.9-4.626-1.43-6.913l0-.007a47.692,47.692,0,0,0-1.724-5.876l-.016-.048Z"/>
      <path id="パス_436" data-name="パス 436" class="cls-4" d="M519.836,114.961H499.289l-10.555-27.84H443.259l-10.59,27.84H412.92l44.135-114h18.971Zm-19.166-2h16.255l-42.272-110H458.425l-42.587,110h15.451l10.59-27.84h48.235Zm-16.106-42.48H447.448l9.032-23.744,2.4-6.788c.956-2.709,1.95-5.636,2.953-8.7l.1-.3q1.466-4.476,2.783-8.5c.119-.366.234-.712.347-1.056l1.053-3.195.951,2.876.11.334c.941,2.876,2.017,6.131,3.2,9.675,1.169,3.508,2.22,6.743,3.125,9.616.9,2.845,1.5,4.644,1.805,5.347l.016.039Zm-34.215-2h31.318l-8.215-21.666c-.333-.785-.944-2.589-1.866-5.513-.9-2.862-1.949-6.087-3.115-9.585-.843-2.531-1.634-4.916-2.359-7.12q-1.093,3.341-2.285,6.979l-.1.3c-1.008,3.077-2.006,6.018-2.967,8.742l-2.408,6.823Z"/>
      <path id="パス_437" data-name="パス 437" class="cls-4" d="M548.922,275.134l-23.29-.178-23.7-42.076H477.94v42.08H458.66v-114h48.676a35.453,35.453,0,0,1,18.19,4.857,36.779,36.779,0,0,1,13.237,13.156,35.876,35.876,0,0,1,4.938,18.672,32.869,32.869,0,0,1-4.948,17.479,37.666,37.666,0,0,1-13.149,12.9c-.964.566-1.982,1.1-3.037,1.584Zm-22.116-2.169,18.632.142L519.71,228.668l1.041-.443a33.477,33.477,0,0,0,3.842-1.927,35.663,35.663,0,0,0,12.453-12.218l0-.007a30.871,30.871,0,0,0,4.65-16.428v-.018a33.875,33.875,0,0,0-4.662-17.639,34.779,34.779,0,0,0-12.519-12.441,33.463,33.463,0,0,0-16.9-4.586H460.66v110h15.28v-42.08H503.1Zm-17.642-56.723-.231,0H475.94V177.6h28.512l.378,0a24.271,24.271,0,0,1,10.708,2.5A18.756,18.756,0,0,1,526.1,197.489a20.685,20.685,0,0,1-2.184,9.477,16.954,16.954,0,0,1-6.12,6.8l-.005,0A16.255,16.255,0,0,1,509.164,216.243Zm-31.224-2h31.015a14.261,14.261,0,0,0,7.773-2.167,14.955,14.955,0,0,0,5.4-6l0,0a18.676,18.676,0,0,0,1.973-8.579v-.043a16.752,16.752,0,0,0-9.436-15.55l-.008,0a22.259,22.259,0,0,0-9.825-2.3l-.354,0H477.94Z"/>
      <path id="パス_438" data-name="パス 438" class="cls-4" d="M1008.156,114.961H987.61l-10.556-27.84H931.579l-10.589,27.84H901.241l44.134-114h18.972l.246.641Zm-19.165-2h16.254l-42.271-110H946.745l-42.586,110H919.61L930.2,85.121h48.235Zm-16.107-42.48H935.769L944.8,46.736l2.4-6.788c.943-2.67,1.936-5.6,2.953-8.7s1.973-6.026,2.88-8.8c.119-.366.234-.713.348-1.057L954.43,18.2l1.059,3.209c1,3.048,2.074,6.3,3.2,9.677,1.169,3.508,2.22,6.743,3.125,9.616,1.108,3.523,1.593,4.852,1.805,5.347l.016.039Zm-34.214-2h31.317l-8.214-21.666c-.341-.8-.952-2.606-1.866-5.513-.9-2.862-1.949-6.087-3.115-9.584-.816-2.447-1.607-4.832-2.36-7.12q-1.137,3.477-2.381,7.275c-1.021,3.116-2.02,6.057-2.967,8.742l-2.408,6.823Z"/>
      <path id="パス_439" data-name="パス 439" class="cls-4" d="M585.427,116.563h0l-.486,0-.465,0a59.288,59.288,0,0,1-41.515-16.927,56.4,56.4,0,0,1-12.623-18.651,58.876,58.876,0,0,1-4.478-23.025,57.873,57.873,0,0,1,4.478-22.785,56.326,56.326,0,0,1,12.542-18.489A57.873,57.873,0,0,1,561.686,4.394,60.412,60.412,0,0,1,584.306,0l.477,0h.069a58.825,58.825,0,0,1,16.771,2.441,55.782,55.782,0,0,1,14.9,6.84A42.643,42.643,0,0,1,627.5,19.437l.515.68L615.522,33.143l-.722-.708a54.5,54.5,0,0,0-9.663-7.541,44.542,44.542,0,0,0-10.091-4.537A35.218,35.218,0,0,0,584.776,18.8h-.008l-.431,0a39.712,39.712,0,0,0-15.1,2.968,38.824,38.824,0,0,0-12.475,8.266,37.245,37.245,0,0,0-8.338,12.39,39.706,39.706,0,0,0-2.965,15.528v.015a38.247,38.247,0,0,0,3.119,15.361,39.565,39.565,0,0,0,8.663,12.722,41.147,41.147,0,0,0,12.81,8.592,38.266,38.266,0,0,0,15.178,3.12h.2A36.618,36.618,0,0,0,596.95,95.97a31.488,31.488,0,0,0,9.62-5.042l0,0a23.827,23.827,0,0,0,6.45-7.449,18.287,18.287,0,0,0,2.274-8.835h-31.84V55.521H634.9l.149.822c.217,1.2.382,2.384.49,3.523s.192,2.243.243,3.244.081,2.021.081,3a51.844,51.844,0,0,1-3.916,20.468,47.858,47.858,0,0,1-10.868,15.937A49.072,49.072,0,0,1,604.9,112.892,53.3,53.3,0,0,1,585.427,116.563Zm-.486-2h.009a51.314,51.314,0,0,0,19.226-3.531,47.076,47.076,0,0,0,15.512-9.949A45.858,45.858,0,0,0,630.1,85.816a49.845,49.845,0,0,0,3.763-19.681v-.013c0-.951-.026-1.929-.079-2.907s-.13-2.036-.237-3.158c-.079-.823-.188-1.673-.327-2.535H585.459v15.12H617.3V74.6a20.29,20.29,0,0,1-2.525,9.844,25.816,25.816,0,0,1-6.986,8.07,33.478,33.478,0,0,1-10.225,5.359,38.616,38.616,0,0,1-11.938,1.888h-.4a40.253,40.253,0,0,1-15.965-3.282,43.134,43.134,0,0,1-13.428-9.007,41.55,41.55,0,0,1-9.1-13.36,40.469,40.469,0,0,1-3.28-16.149,41.7,41.7,0,0,1,3.115-16.3,39.238,39.238,0,0,1,8.784-13.054,40.82,40.82,0,0,1,13.118-8.692,41.708,41.708,0,0,1,15.86-3.118l.448,0a37.216,37.216,0,0,1,10.848,1.644,46.546,46.546,0,0,1,10.546,4.742,56.5,56.5,0,0,1,9.292,7.119l9.909-10.334a40.641,40.641,0,0,0-9.942-9.009l-.006,0a53.784,53.784,0,0,0-14.373-6.6l-.006,0A56.826,56.826,0,0,0,584.851,2h-.08l-.465,0a58.412,58.412,0,0,0-21.871,4.249,55.874,55.874,0,0,0-18.156,11.868,54.327,54.327,0,0,0-12.1,17.831,55.874,55.874,0,0,0-4.323,22.006v.017a56.872,56.872,0,0,0,4.325,22.249,54.4,54.4,0,0,0,12.175,17.988,57.345,57.345,0,0,0,40.116,16.356l.457,0Z"/>
      <path id="パス_440" data-name="パス 440" class="cls-4" d="M642.42,274.961h-72.56v-114h72.56V179.6H589.14v27.6h44.48v18.64H589.14v30.48h53.28Zm-70.56-2h68.56v-14.64H587.14v-34.48h44.48V209.2H587.14V177.6h53.28v-14.64h-68.56Z"/>
    </g>
  </g>
</svg>
