<svg xmlns="http://www.w3.org/2000/svg" xmlns:xlink="http://www.w3.org/1999/xlink" width="360" height="134.547" viewBox="0 0 360 134.547">
  <defs>
    <style>
      .cls-1 {
        fill: none;
      }

      .cls-2 {
        clip-path: url(#clip-path);
      }

      .cls-3 {
        fill: #fff;
      }
    </style>
    <clipPath id="clip-path">
      <rect id="長方形_385" data-name="長方形 385" class="cls-1" width="360" height="134.547"/>
    </clipPath>
  </defs>
  <g id="グループ_243" data-name="グループ 243" class="cls-2">
    <path id="パス_406" data-name="パス 406" class="cls-3" d="M39.256,8.112V56.1H31.145V53.25H7.74v3.22H0V8.112H13.064C13.746,5.573,14.427,2.663,15.109,0l8.421,1.548c-.867,2.167-1.61,4.4-2.6,6.564ZM7.74,20.619H31.145V14.551H7.74Zm0,12.817H31.145V26.873H7.74Zm0,13.064H31.145V39.875H7.74Z"/>
    <path id="パス_407" data-name="パス 407" class="cls-3" d="M78.55,56.841H71.244V29.1a42.359,42.359,0,0,1-3.715,5.944A54.074,54.074,0,0,0,64,27.058,102.77,102.77,0,0,0,76.631,0l7.616,2.6c-1.238,2.662-1.981,4.333-2.6,6.005-.867,1.982-1.672,4.025-3.1,7.431Zm43.466-39.875H81.027V10.9h40.99Zm-3.963,19.566V56.656h-7.8V54.365h-17.4v2.477H85.609V36.532ZM116.63,25.325H86.724V19.5H116.63Zm0,8.483H86.724v-5.7H116.63Zm0-25.448H86.847V2.229H116.63Zm-23.777,40h17.4V42.6h-17.4Z" transform="translate(-14.466)"/>
    <path id="パス_408" data-name="パス 408" class="cls-3" d="M168.555,20.145c-.836,1.393-1.765,2.926-2.6,4.226a62.251,62.251,0,0,0,10.031-1.857l.186,5.665a133.909,133.909,0,0,1-13.605,1.486c-.743,1.068-1.579,2.368-2.275,3.436a8.222,8.222,0,0,1,3.2-.7c4.969,0,5.712,3.343,6.083,4.969,2.647-.976,11.237-3.9,12.073-4.226l1.765,5.758A117.288,117.288,0,0,0,169.9,42.759v6.316h-5.8c.046-1.161.046-2.786.046-4.272-3.482,1.625-6.315,3.018-6.315,5.061,0,3.3,6.223,3.3,9.473,3.3a68.017,68.017,0,0,0,12.213-.928l.046,5.944a89.791,89.791,0,0,1-10.031.556c-3.483,0-10.355,0-14.348-2.785a6.575,6.575,0,0,1-3.018-5.48c0-5.619,6.641-8.684,11.98-11.052,0-1.3-.556-2.553-2.229-2.553a10.4,10.4,0,0,0-6.593,2.878c-1.068,1.022-5.433,5.8-6.316,6.733l-4.087-4.133A56.724,56.724,0,0,0,156.25,29.99c-1.765.093-2.693.093-4.087.093a28.533,28.533,0,0,1-3.018-.186V24.418c4.087.324,5.108.371,6.873.371.836,0,1.9,0,3.39-.093a57.63,57.63,0,0,0,3.018-6.873Z" transform="translate(-32.757 -4.029)"/>
    <path id="パス_409" data-name="パス 409" class="cls-3" d="M213.22,36.907h-4.4a56.529,56.529,0,0,1-4.334,19.5,27.321,27.321,0,0,0-5.449-4.768c3.529-8.731,3.653-17.4,3.715-25.944.062-2.849.062-6.254.062-22.724h16.656v12.26A72.954,72.954,0,0,0,225.79.561l6.873,1.919a55.286,55.286,0,0,1-2.6,6.377h25.7c0,24.52-.062,32.879-.867,39.69-.681,6.254-1.734,8.235-11.579,8.668a19.846,19.846,0,0,0-2.105-6.564h5.387c1.548,0,1.672-.681,1.919-2.785.62-6.316.8-11.827.8-32.694H227.276a69.583,69.583,0,0,1-4.025,6.935,28.194,28.194,0,0,0-3.777-3.158v31.7c-.186,3.22-1.176,5.326-8.73,5.821a18.6,18.6,0,0,0-2.106-6.5h3.654c.742,0,.928-.433.928-1.176Zm-4.21-20.124h4.21V9.414h-4.21Zm0,14.055h4.21v-7.8h-4.21Zm31.64-6.44h5.821v23.22H228.143v2.415h-5.882V24.4h5.882v9.288a29.208,29.208,0,0,0,3.034-5.015c-.929-1.61-2.105-3.282-4.52-6.749l4.768-3.405,2.539,3.777c.681-1.8,1.424-3.839,2.043-5.882l5.7,2.167a57.76,57.76,0,0,1-3.9,9.659c1.053,1.61,1.858,3.034,2.848,4.768ZM228.143,41.922H240.65V36.782L237.183,39.2c-.867-1.672-1.61-3.1-2.539-4.644-1.053,1.919-2.291,3.777-3.282,5.263a40.847,40.847,0,0,0-3.22-2.847Z" transform="translate(-44.991 -0.127)"/>
    <path id="パス_410" data-name="パス 410" class="cls-3" d="M291.877,22.85c-1.764,8.312-2.739,14.489-2.739,21.871a78.372,78.372,0,0,0,1.207,13.141l-5.851,1.208a73,73,0,0,1-1.254-13.838,120.051,120.051,0,0,1,2.647-23.868Zm7.988,21.964c0,4.5.557,6.223,11.051,6.223a37.683,37.683,0,0,0,8.452-.65l.278,6.362a35.253,35.253,0,0,1-5.48.418c-12.165,0-20.431-1.068-19.781-12.352Zm17.181-14.07c-2.787-.093-4.5-.093-6.176-.093a71.312,71.312,0,0,0-14.442,1.393l-.556-5.48c3.576-.975,9.705-1.672,17.042-1.672,1.207,0,2.647,0,4.458.046Z" transform="translate(-64.023 -4.829)"/>
    <path id="パス_411" data-name="パス 411" class="cls-3" d="M341.734,55.8a74.608,74.608,0,0,1,7.476,8.405l-4.69,3.715c-1.858-2.74-2.368-3.344-6.919-8.452Z" transform="translate(-76.311 -12.613)"/>
    <path id="パス_412" data-name="パス 412" class="cls-3" d="M115.877,111.432h21.672v5.634H115.877Zm13.561,43.962V153.6h-4.954v2.91h-6.316V135.642H136v19.752Zm-10.588-28.11h16.841v5.325H118.85Zm.062-2.477v-5.263h16.779v1.981c6.625-4.148,7.863-6.316,9.288-8.792h-7.369v-6.562h10.216a29.282,29.282,0,0,0,1.115-5.449l7.74.619a39.39,39.39,0,0,1-1.177,4.83h16.037l.062,6.5H162.75c2.911,4.583,7.306,7.306,11.021,9.35A17.658,17.658,0,0,0,169,127.778c-1.238-.743-3.22-2.291-5.263-3.839v2.786H143.989v-2.168a39.611,39.611,0,0,1-4.211,2.911,41.067,41.067,0,0,0-4.087-5.945v3.282Zm0-21.734h16.718v5.883H118.912Zm10.526,38.575h-4.953v6.192h4.953Zm20.186-6.254c-.186,1.053-.681,2.477-.929,3.591h19.442c-.248,5.883-.8,13.56-2.6,15.727-1.672,1.982-4.583,2.229-10.4,2.6a29.822,29.822,0,0,0-2.167-6.192h4.582c1.857,0,1.981,0,2.229-1.548a37.919,37.919,0,0,0,.619-4.892H147.085l-.619,2.477L139.1,145.3c1.8-5.573,2.043-6.254,3.1-9.907h-4.271v-5.82H171.48v5.82ZM155.2,112.67h-2.044c-2.415,4.335-3.343,5.883-5.325,8.236h13.065a31.568,31.568,0,0,1-5.7-8.236" transform="translate(-26.193 -22.767)"/>
    <path id="パス_413" data-name="パス 413" class="cls-3" d="M212.312,107.092c-1.238,3.963-4.334,13.559-4.334,22.972,0,1.486.248,1.919.681,1.919.31,0,.434-.433.557-.681.248-.681.5-1.919,1.114-3.777a14.576,14.576,0,0,0,5.7,2.6c-1.858,7.617-4.4,13.127-8.606,13.127-3.22,0-6.5-3.468-6.5-15.232a58.7,58.7,0,0,1,.681-9.288,128.518,128.518,0,0,1,2.725-13.436Zm23.22-2.292c.434,10.96.434,12.136.434,17.833,0,17.461-2.106,30.031-24.892,34.365a20.835,20.835,0,0,0-3.1-8.049c14.985-1.363,20-6.626,20-24.582a184.875,184.875,0,0,0-1.115-18.7Z" transform="translate(-45.415 -23.689)"/>
    <path id="パス_414" data-name="パス 414" class="cls-3" d="M280.673,120.145c-.836,1.393-1.765,2.926-2.6,4.226a62.268,62.268,0,0,0,10.031-1.857l.186,5.665a133.9,133.9,0,0,1-13.606,1.486c-.743,1.068-1.578,2.368-2.275,3.436a8.225,8.225,0,0,1,3.2-.7c4.969,0,5.712,3.343,6.083,4.969,2.646-.976,11.237-3.9,12.073-4.226l1.765,5.757a117.247,117.247,0,0,0-13.513,3.854v6.316h-5.8c.046-1.161.046-2.786.046-4.272-3.482,1.625-6.315,3.018-6.315,5.061,0,3.3,6.222,3.3,9.473,3.3a68,68,0,0,0,12.212-.928l.047,5.944a89.809,89.809,0,0,1-10.031.556c-3.483,0-10.355,0-14.348-2.785a6.576,6.576,0,0,1-3.019-5.48c0-5.619,6.641-8.684,11.981-11.052,0-1.3-.557-2.553-2.229-2.553a10.4,10.4,0,0,0-6.594,2.878c-1.067,1.022-5.432,5.8-6.315,6.733l-4.087-4.133a56.724,56.724,0,0,0,11.331-12.352c-1.765.093-2.693.093-4.087.093a28.53,28.53,0,0,1-3.018-.186v-5.479c4.087.324,5.108.371,6.873.371.836,0,1.9,0,3.39-.093a57.653,57.653,0,0,0,3.018-6.873Z" transform="translate(-58.1 -26.632)"/>
    <path id="パス_415" data-name="パス 415" class="cls-3" d="M345.049,103.148V109.9h-4.21V122.4h5.387v7h-5.387v27.12h-7.182V129.4h-5.449c-1.239,15.356-4.4,21.734-8.607,27.8a29.428,29.428,0,0,0-5.882-4.953c3.1-5.016,6.5-11.27,7.368-22.849h-6.5v-7h6.749V109.9h-5.82v-6.749ZM328.331,122.4h5.326V109.9h-5.326ZM370.5,141.167c-3.467,3.467-9.906,9.72-23.714,15.665a18,18,0,0,0-4.025-6.254c10.279-4.211,15.6-7.555,22.848-14.675Zm-3.714-34.118A97.124,97.124,0,0,1,347.9,119.184a20.286,20.286,0,0,0-4.087-6.192c5.511-2.477,9.535-4.458,18.328-11.393Zm1.919,16.656a90.7,90.7,0,0,1-19.875,13.436,19.793,19.793,0,0,0-4.148-6.192A65.706,65.706,0,0,0,364,118.38Z" transform="translate(-70.912 -22.965)"/>
    <path id="パス_416" data-name="パス 416" class="cls-3" d="M403.995,122.85c-1.764,8.312-2.74,14.489-2.74,21.871a78.362,78.362,0,0,0,1.208,13.141l-5.851,1.208a73,73,0,0,1-1.254-13.838A120.054,120.054,0,0,1,398,121.364Zm7.987,21.964c0,4.5.557,6.223,11.051,6.223a37.684,37.684,0,0,0,8.452-.65l.279,6.362a35.252,35.252,0,0,1-5.48.418c-12.166,0-20.431-1.068-19.781-12.352Zm17.181-14.07c-2.786-.093-4.5-.093-6.175-.093a71.309,71.309,0,0,0-14.442,1.393l-.556-5.48c3.575-.975,9.7-1.672,17.041-1.672,1.208,0,2.647,0,4.458.046Z" transform="translate(-89.366 -27.433)"/>
    <path id="パス_417" data-name="パス 417" class="cls-3" d="M455.315,168.22A6.1,6.1,0,0,1,449,162a6.2,6.2,0,0,1,6.316-6.316A6.289,6.289,0,0,1,461.49,162a5.986,5.986,0,0,1-6.175,6.223m0-3.344A2.9,2.9,0,0,0,458.146,162a2.84,2.84,0,0,0-2.879-2.878,2.768,2.768,0,0,0-2.833,2.785,2.954,2.954,0,0,0,2.88,2.972" transform="translate(-101.491 -35.19)"/>
  </g>
</svg>
