<svg id="グループ_293" data-name="グループ 293" xmlns="http://www.w3.org/2000/svg" xmlns:xlink="http://www.w3.org/1999/xlink" width="130" height="130" viewBox="0 0 130 130">
  <defs>
    <clipPath id="clip-path">
      <rect id="長方形_427" data-name="長方形 427" width="130" height="130" fill="none"/>
    </clipPath>
  </defs>
  <rect id="長方形_425" data-name="長方形 425" width="130" height="130" fill="#f68e00"/>
  <g id="グループ_292" data-name="グループ 292">
    <g id="グループ_291" data-name="グループ 291" clip-path="url(#clip-path)">
      <path id="パス_534" data-name="パス 534" d="M13.374,19.19a20.212,20.212,0,0,1-1.959.765q-1.285.43-1.622.581v-3.52a20.251,20.251,0,0,0,2.524-1.224,8.5,8.5,0,0,0,2.1-1.5h3.7V39.082H13.374Z" transform="translate(-2.046 -2.986)" fill="#fff"/>
      <path id="パス_535" data-name="パス 535" d="M26.488,19.19a20.212,20.212,0,0,1-1.959.765q-1.285.43-1.622.581v-3.52a20.251,20.251,0,0,0,2.524-1.224,8.5,8.5,0,0,0,2.1-1.5h3.7V39.082H26.488Z" transform="translate(-4.786 -2.986)" fill="#fff"/>
      <path id="パス_536" data-name="パス 536" d="M27.9,121.677H47.541a.479.479,0,0,0,.355-.8l-.027-.028L38.1,108.2l-.1-.105a.48.48,0,0,0-.356-.157.491.491,0,0,0-.316.123l-.059.069-.092.1-9.536,12.513-.146.179a.477.477,0,0,0-.082.27.483.483,0,0,0,.483.483" transform="translate(-5.727 -22.55)" fill="#fff"/>
      <path id="パス_537" data-name="パス 537" d="M47.455,127.559H27.773a.482.482,0,0,0-.483.482v15.4a.483.483,0,0,0,.483.483h6.335v-9.691a.481.481,0,0,1,.482-.483H40.47a.481.481,0,0,1,.482.483v9.691h6.5a.483.483,0,0,0,.482-.483v-15.4a.482.482,0,0,0-.482-.482" transform="translate(-5.701 -26.649)" fill="#fff"/>
      <path id="パス_538" data-name="パス 538" d="M133.5,122.461H114.022a.467.467,0,0,0-.475.463V142.6a.469.469,0,0,0,.475.463H133.5a.47.47,0,0,0,.477-.463V122.924a.468.468,0,0,0-.477-.463M122.845,135.3a.47.47,0,0,1-.475.467h-5.82a.472.472,0,0,1-.479-.467v-3.536a.47.47,0,0,1,.479-.464h5.82a.468.468,0,0,1,.475.464Zm0-6.537a.47.47,0,0,1-.475.465h-5.82a.471.471,0,0,1-.479-.465v-3.539a.471.471,0,0,1,.479-.463h5.82a.469.469,0,0,1,.475.463Zm8.9,6.537a.471.471,0,0,1-.477.467h-5.819a.471.471,0,0,1-.477-.467v-3.536a.469.469,0,0,1,.477-.464h5.819a.469.469,0,0,1,.477.464Zm0-6.537a.471.471,0,0,1-.477.465h-5.819a.471.471,0,0,1-.477-.465v-3.539a.47.47,0,0,1,.477-.463h5.819a.47.47,0,0,1,.477.463Z" transform="translate(-23.722 -25.584)" fill="#fff"/>
      <path id="パス_539" data-name="パス 539" d="M76.371,64.74H57.3a.467.467,0,0,0-.466.468v65.156a.468.468,0,0,0,.466.466H76.371a.471.471,0,0,0,.469-.466V65.208a.47.47,0,0,0-.469-.468M65.029,123.407a.251.251,0,0,1-.25.251H60.414a.251.251,0,0,1-.251-.251v-4.864a.25.25,0,0,1,.251-.249h4.365a.25.25,0,0,1,.25.249Zm0-11.172a.248.248,0,0,1-.25.25H60.414a.249.249,0,0,1-.251-.25v-4.864a.249.249,0,0,1,.251-.25h4.365a.248.248,0,0,1,.25.25Zm0-11.17a.251.251,0,0,1-.25.25H60.414a.251.251,0,0,1-.251-.25V96.2a.251.251,0,0,1,.251-.25h4.365a.251.251,0,0,1,.25.25Zm0-11.173a.251.251,0,0,1-.25.25H60.414a.251.251,0,0,1-.251-.25V85.025a.248.248,0,0,1,.251-.248h4.365a.248.248,0,0,1,.25.248Zm0-11.17a.251.251,0,0,1-.25.249H60.414a.251.251,0,0,1-.251-.249V73.855a.25.25,0,0,1,.251-.251h4.365a.25.25,0,0,1,.25.251Zm8.561,44.686a.251.251,0,0,1-.252.251H68.974a.25.25,0,0,1-.25-.251v-4.864a.249.249,0,0,1,.25-.249h4.364a.25.25,0,0,1,.252.249Zm0-11.172a.249.249,0,0,1-.252.25H68.974a.248.248,0,0,1-.25-.25v-4.864a.248.248,0,0,1,.25-.25h4.364a.249.249,0,0,1,.252.25Zm0-11.17a.251.251,0,0,1-.252.25H68.974a.25.25,0,0,1-.25-.25V96.2a.25.25,0,0,1,.25-.25h4.364a.251.251,0,0,1,.252.25Zm0-11.173a.251.251,0,0,1-.252.25H68.974a.249.249,0,0,1-.25-.25V85.025a.247.247,0,0,1,.25-.248h4.364a.248.248,0,0,1,.252.248Zm0-11.17a.251.251,0,0,1-.252.249H68.974a.25.25,0,0,1-.25-.249V73.855a.249.249,0,0,1,.25-.251h4.364a.251.251,0,0,1,.252.251Z" transform="translate(-11.875 -13.525)" fill="#fff"/>
      <rect id="長方形_426" data-name="長方形 426" width="20.392" height="4.706" rx="0.495" transform="translate(89.846 90.585)" fill="#fff"/>
      <path id="パス_540" data-name="パス 540" d="M105.374,80.2a.5.5,0,0,0-.479-.365.5.5,0,0,0-.273.09c-.012.008-.024.014-.036.024l-.161.2-18.738,23.77-.086.116a.54.54,0,0,0-.162.371v29.21a.466.466,0,0,0,.468.464h19.046a.464.464,0,0,0,.466-.464V80.391a.469.469,0,0,0-.045-.195M97.486,93.106l.134-.169c1.282-1.645,3.443-4.3,4.5-5.6l.138-.165a.543.543,0,0,1,.419-.2.534.534,0,0,1,.52.436v6.014a.539.539,0,0,1-.517.536c-.009,0-.016,0-.024,0s-.015,0-.024,0H97.945c-.009,0-.016,0-.024,0s-.015,0-.024,0a.538.538,0,0,1-.412-.858M94.521,126.4a.465.465,0,0,1-.466.466H88.373a.465.465,0,0,1-.466-.466v-3.557a.464.464,0,0,1,.466-.464h5.682a.465.465,0,0,1,.466.464Zm0-6.572a.465.465,0,0,1-.466.467H88.373a.465.465,0,0,1-.466-.467v-3.557a.464.464,0,0,1,.466-.466h5.682a.464.464,0,0,1,.466.466Zm0-6.572a.465.465,0,0,1-.466.464H88.373a.465.465,0,0,1-.466-.464v-3.558a.465.465,0,0,1,.466-.466h5.682a.465.465,0,0,1,.466.466Zm.016-14.4v7.835a.467.467,0,0,1-.466.466H88.39a.467.467,0,0,1-.47-.466V105.7a.546.546,0,0,1,.036-.174.371.371,0,0,1,.028-.055.419.419,0,0,1,.041-.062c.014-.022.036-.051.053-.076.726-1.039,4-5.077,5.38-6.765L93.6,98.4a.543.543,0,0,1,.419-.2.535.535,0,0,1,.52.436Zm8.67,27.545a.467.467,0,0,1-.466.466H97.06a.466.466,0,0,1-.469-.466v-3.557a.466.466,0,0,1,.469-.464h5.681a.467.467,0,0,1,.466.464Zm0-6.572a.467.467,0,0,1-.466.467H97.06a.467.467,0,0,1-.469-.467v-3.557a.465.465,0,0,1,.469-.466h5.681a.466.466,0,0,1,.466.466Zm0-6.572a.467.467,0,0,1-.466.464H97.06a.467.467,0,0,1-.469-.464v-3.558a.466.466,0,0,1,.469-.466h5.681a.467.467,0,0,1,.466.466Zm0-6.573a.466.466,0,0,1-.466.464H97.06a.466.466,0,0,1-.469-.464v-3.557a.466.466,0,0,1,.469-.466h5.681a.467.467,0,0,1,.466.466Zm0-6.573a.467.467,0,0,1-.466.466H97.06a.466.466,0,0,1-.469-.466V96.548a.466.466,0,0,1,.469-.468h5.681a.467.467,0,0,1,.466.468Z" transform="translate(-17.85 -16.678)" fill="#fff"/>
      <path id="パス_541" data-name="パス 541" d="M49.845,15.028c-.251.714-.544,1.392-.852,2.073v7.092H47.915V18.931a5.039,5.039,0,0,1-.714,1.015l-.706-.827a11.866,11.866,0,0,0,2.272-4.951L50,14.7a.156.156,0,0,1,.1.134c0,.123-.173.18-.248.19m-.3,8.877v-.96h2.384V20.581H50.014v-.969h1.918V17.58h-2.2V16.545H55.3V17.58H53.05v2.031h1.956v.969H53.05v2.364h2.49v.96ZM52.6,16.489a10.839,10.839,0,0,0-1.766-1.417l.763-.937c.316.233.623.513.918.781a8.811,8.811,0,0,1,.774.735Z" transform="translate(-9.713 -2.953)" fill="#fff"/>
      <path id="パス_542" data-name="パス 542" d="M67.653,22.347a13.587,13.587,0,0,0-1.3-.927,5.691,5.691,0,0,1-1.967,2.721L63.4,23.5a4.683,4.683,0,0,0,1.946-2.585,7.042,7.042,0,0,0-1.785-.647,11.223,11.223,0,0,1-.458,1.114c-.411.892-.927,1.8-1.9,1.8a1.51,1.51,0,0,1-1.365-1.674A2.346,2.346,0,0,1,61.6,19.246a4.061,4.061,0,0,1,1.164-.1,16.844,16.844,0,0,0,.7-2.644l-2.032.346-.221-1.282h.107a13.874,13.874,0,0,0,3.217-.4c.142.177.306.346.467.513-.2.679-.421,1.349-.629,2.029-.164.513-.316,1.024-.5,1.528a7.335,7.335,0,0,1,1.784.556,9.822,9.822,0,0,0,.317-2.228c.38.256.761.5,1.123.778a11.709,11.709,0,0,1-.353,1.941A11.813,11.813,0,0,1,68.2,21.1c-.17.412-.35.835-.543,1.25m-6.735-.893c0,.28.1.524.361.524a.494.494,0,0,0,.4-.2,5.833,5.833,0,0,0,.771-1.639c-.668.055-1.535.381-1.535,1.316" transform="translate(-12.501 -3.168)" fill="#fff"/>
      <path id="パス_543" data-name="パス 543" d="M73.832,21.052a11.629,11.629,0,0,1-.648,2.6l-.82-.441a11.581,11.581,0,0,0,.61-2.823l.921.386a.117.117,0,0,1,.063.108.176.176,0,0,1-.127.165m6.047-.473V19.5H76.828v1.109H75.9v-.78l-.673.3c-.034-.12-.071-.252-.1-.374l-.175.034v4.4H74V19.9c-.452.032-.914.085-1.366.142l-.119-.945a2.149,2.149,0,0,0,.462-.055.4.4,0,0,0,.247-.187c.249-.329.462-.692.685-1.042a10.579,10.579,0,0,0-1.227-.528V16.79a11.847,11.847,0,0,0,1.566-2.668l1,.549c.074.044.2.1.2.218,0,.188-.175.188-.284.178-.434.561-.858,1.13-1.327,1.657.176.112.358.2.536.32.172-.286.339-.585.505-.88l.867.614a.191.191,0,0,1,.093.156c0,.151-.146.142-.239.142-.5.66-.97,1.341-1.494,1.965a6.842,6.842,0,0,0,.811-.065,5.578,5.578,0,0,0-.185-.559l.74-.3c.165.514.293,1.044.439,1.571V18.625h5.01v1.954Zm-4.4,2.065c-.138-.6-.257-1.217-.359-1.833l.711-.307c.108.615.23,1.239.377,1.843ZM78.12,20.36a7.583,7.583,0,0,1-.3,1.823,3.976,3.976,0,0,1-1.6,2.163l-.83-.68c1.422-.89,1.652-1.967,1.709-3.767l.994.185a.14.14,0,0,1,.13.133.181.181,0,0,1-.11.142m.646-3.941v.791h1.7V18.1H76.136V17.21h1.579v-.8H75.7v-.953h2V14.177l1.071.087a.142.142,0,0,1,.147.131.209.209,0,0,1-.147.176v.88h2.082v.966Zm2.415,7.4a3.387,3.387,0,0,1-1.623.408c-.682,0-1.126-.385-1.126-1.243V19.9l.979.11c.055.01.147.032.147.12a.19.19,0,0,1-.129.156v2.262c0,.536.065.678.534.678a2.551,2.551,0,0,0,1.29-.6Z" transform="translate(-15.118 -2.95)" fill="#fff"/>
      <path id="パス_544" data-name="パス 544" d="M87.915,23.375c-.317.05-.64.088-.957.117a11.107,11.107,0,0,1-.664-4.113,22.186,22.186,0,0,1,.484-4.22c.284.068.579.147.865.227a2.171,2.171,0,0,1,.369.113c.059.023.115.045.115.119a.2.2,0,0,1-.165.17,17.432,17.432,0,0,0-.552,4.469,5.88,5.88,0,0,0,.095,1.395c.19-.537.377-1.088.566-1.625a9.727,9.727,0,0,0,.685.873,10.275,10.275,0,0,0-.842,2.475m4.7-4.68c0,.485,0,.972-.015,1.457a8.8,8.8,0,0,1-.2,1.8,4.03,4.03,0,0,1-1.4,2.336,11.285,11.285,0,0,0-1.039-.589,4.306,4.306,0,0,0,1.5-3.631c.016-.443.015-.885.012-1.331a14.9,14.9,0,0,1-1.721.044c-.18-.006-.362-.023-.543-.031-.043-.392-.065-.782-.1-1.171a12.206,12.206,0,0,0,1.233.111c.364.014.718.016,1.08,0,0-.615-.049-1.222-.073-1.828-.017-.324-.044-.663-.088-1,.305.055.608.09.913.131a1.518,1.518,0,0,1,.379.068c.066.013.134.047.131.134a.2.2,0,0,1-.131.159c0,.733.039,1.471.041,2.206a6.8,6.8,0,0,0,1.7-.4c.012.411-.024.834-.01,1.244a9.8,9.8,0,0,1-1.682.3" transform="translate(-18.028 -3.105)" fill="#fff"/>
      <path id="パス_545" data-name="パス 545" d="M101.74,23.992c-.192.055-.384.1-.585.139-.092-.168-.6-.955-.6-.955,0-.034.038-.044.056-.044a6.045,6.045,0,0,0,1.419-.408,2.034,2.034,0,0,0,1.414-1.8,1.159,1.159,0,0,0-1.177-1.341c-1.114-.014-2.132,1.188-2.5,2.342-.313-.058-.637-.13-.952-.178a12.731,12.731,0,0,1-.093-1.7,22.051,22.051,0,0,1,.388-3.619l1.105.337a.133.133,0,0,1,.112.133.221.221,0,0,1-.144.178,13.5,13.5,0,0,0-.369,2.707,3.547,3.547,0,0,1,2.773-1.327,2.173,2.173,0,0,1,2.122,2.313c-.026,2.03-1.5,2.8-2.972,3.218m.548-7.186a9.414,9.414,0,0,0-2-1.831c.252-.286.486-.585.736-.872a7.047,7.047,0,0,1,2.134,1.8c-.3.3-.581.608-.869.9" transform="translate(-20.625 -2.946)" fill="#fff"/>
      <path id="パス_546" data-name="パス 546" d="M115.375,23.179c-.858,0-1.241-.646-1.241-1.6,0-.99.153-1.971.219-2.965.011-.145.011-.3.011-.446,0-.212-.029-.413-.258-.413-.553,0-1.879,1.284-2.194,1.819,0,1.413.017,2.866.076,4.282l-1.174.131c0-1.169.01-2.362.01-3.544-.422.714-.869,1.393-1.3,2.085-.3-.312-.556-.67-.841-1a18,18,0,0,0,2.081-3.21v-.537c-.535.1-1.051.245-1.588.336-.066-.38-.123-.759-.209-1.127a9.625,9.625,0,0,0,1.766-.288c0-.771-.028-1.541-.059-2.3a6.763,6.763,0,0,1,1.215.133.15.15,0,0,1,.123.157.121.121,0,0,1-.076.123c-.028.546-.059,1.081-.066,1.618.17-.047.334-.126.5-.18.068.291.124.581.191.858-.171.213-.324.446-.487.681l.02.032a3.7,3.7,0,0,1,2.44-1.314c.641,0,.994.6.994,1.3a15.447,15.447,0,0,1-.112,1.685,17.784,17.784,0,0,0-.165,1.785v.032c-.009.246.02.6.3.6.593,0,.983-.96,1.221-1.494.144.512.287,1.023.421,1.539a2.109,2.109,0,0,1-1.823,1.214" transform="translate(-22.707 -3.009)" fill="#fff"/>
      <path id="パス_547" data-name="パス 547" d="M125.237,24.283c-.793,0-2.07-.337-2.07-1.548a1.3,1.3,0,0,1,1.374-1.261,1.417,1.417,0,0,1,1.317,1.039,2.7,2.7,0,0,1,.094.637,1.754,1.754,0,0,0,1.223-1.71,1.6,1.6,0,0,0-1.672-1.769c-1.44,0-2.271,1.376-3.169,2.52q-.44-.47-.888-.934a24.368,24.368,0,0,0,3.616-4.879c-.759.185-1.524.335-2.288.5l-.21-1.363a2.464,2.464,0,0,0,.3.013,9.4,9.4,0,0,0,1.27-.116,15.129,15.129,0,0,0,1.748-.326,5.611,5.611,0,0,0,.6-.195c.222.31.441.612.659.924a3.6,3.6,0,0,0-.286.253,9.263,9.263,0,0,0-.62.774c-.459.626-.885,1.273-1.326,1.908a3.227,3.227,0,0,1,.879-.1,2.418,2.418,0,0,1,2.539,2.6,2.865,2.865,0,0,1-3.093,3.042m-.812-1.885c-.181,0-.3.082-.3.312,0,.428.544.485.791.485-.048-.334-.143-.8-.5-.8" transform="translate(-25.373 -3.11)" fill="#fff"/>
      <path id="パス_548" data-name="パス 548" d="M54.413,41.218a11.4,11.4,0,0,0-2.158-1.292,1.68,1.68,0,0,1-.536,1.474,2.426,2.426,0,0,1-1.3.428c-.947-.013-2.38-.338-2.359-1.752a1.706,1.706,0,0,1,1.577-1.617,4.389,4.389,0,0,1,.755-.022,4.714,4.714,0,0,1,.666.065c0-.357-.017-.714-.031-1.058-.316.016-.641.024-.964.019-.736-.011-1.766-.082-1.75-1.23a2.16,2.16,0,0,1,.244-.924l1.023-.051a2.638,2.638,0,0,0-.222.766c0,.358.4.363.6.366a6.294,6.294,0,0,0,1.032-.031c-.028-.535-.029-1.081-.032-1.616A23.588,23.588,0,0,0,47.741,35c-.062-.394-.1-.782-.146-1.175,1.116-.071,2.234-.134,3.353-.161-.006-.346,0-.692,0-1.049l.007-.479c.268.037.534.063.8.1.134.025.286.028.421.062.048.014.105.036.1.115a.186.186,0,0,1-.127.165c-.027.346-.032.68-.036,1.026.852-.034,1.7-.053,2.548-.065l0,1.138c-.85-.012-1.7-.026-2.539.006-.009.548,0,1.081.013,1.63a11.013,11.013,0,0,0,2.44-.478L54.512,37.1c-.783.12-1.558.221-2.344.276.006.457.017.926.039,1.383a11.125,11.125,0,0,1,2.861,1.371c-.214.365-.433.729-.655,1.083M51.087,39.6a2.076,2.076,0,0,0-.846-.181c-.343,0-1.006.131-1.014.656s.62.68.964.684c.535.008.892-.244.9-.913,0-.079-.007-.167-.006-.246" transform="translate(-9.943 -6.713)" fill="#fff"/>
      <path id="パス_549" data-name="パス 549" d="M65.385,40.8a5.332,5.332,0,0,1-2.718,1.07c-.2-.356-.365-.736-.584-1.082,1.07-.1,3.017-.446,3.017-2.1a1.127,1.127,0,0,0-1.25-1.147,2.865,2.865,0,0,0-1.681.681,4.038,4.038,0,0,0-.993,1.428l-1.058-.569A9.169,9.169,0,0,0,61.4,35.261c-.373.022-.735.034-1.108.034h-.772c-.028-.415-.078-.816-.086-1.225a11.787,11.787,0,0,0,1.395.089c.225,0,.456,0,.685-.015a19.37,19.37,0,0,0,.106-2.116c.286.043.571.077.858.123a2.269,2.269,0,0,1,.383.066c.067.021.142.056.142.157a.279.279,0,0,1-.172.222c-.038.492-.066.982-.132,1.46a14.542,14.542,0,0,0,2.909-.579l-.017,1.305a26.645,26.645,0,0,1-3.073.413,14.005,14.005,0,0,1-.448,1.962,3.587,3.587,0,0,1,2.079-.6,2.051,2.051,0,0,1,2.127,2.25,2.648,2.648,0,0,1-.888,2" transform="translate(-12.416 -6.691)" fill="#fff"/>
      <path id="パス_550" data-name="パス 550" d="M77.385,39.81a6.779,6.779,0,0,1-3.651,1.54c-.287-.368-.555-.748-.851-1.083a10.672,10.672,0,0,0,2.2-.512,2.7,2.7,0,0,0,2.082-2.609c0-1.471-.76-1.963-1.879-1.963A8.514,8.514,0,0,0,72,36.276a7.925,7.925,0,0,1-1.229.434c-.047-.157-.464-1.426-.464-1.459,0-.113.12-.079.176-.079a7.628,7.628,0,0,0,2.341-.593,8.729,8.729,0,0,1,2.79-.6A2.789,2.789,0,0,1,78.4,37.035a3.677,3.677,0,0,1-1.02,2.775m-1.164-6.144a12.014,12.014,0,0,0-.96-1.36l.72-.423a8.538,8.538,0,0,1,.926,1.347Zm1.3-.358a9.937,9.937,0,0,0-.979-1.448l.738-.415a8.265,8.265,0,0,1,.915,1.418Z" transform="translate(-14.689 -6.57)" fill="#fff"/>
      <path id="パス_551" data-name="パス 551" d="M88,41.782a17.88,17.88,0,0,0-2.8-3.155,8.5,8.5,0,0,0-.808-.706,2.383,2.383,0,0,1-.464-.411.944.944,0,0,1-.175-.586A1.242,1.242,0,0,1,84.179,36c.447-.479.912-.922,1.345-1.41.65-.738,1.31-1.475,1.943-2.257.269.229.538.445.806.673a2.047,2.047,0,0,1,.309.259.148.148,0,0,1,.044.1c0,.152-.2.175-.305.152-.613.587-1.245,1.162-1.867,1.758-.259.249-.5.521-.761.77-.121.12-.26.227-.37.358a.7.7,0,0,0-.225.433.416.416,0,0,0,.168.326c.392.369.825.684,1.226,1.031a18.746,18.746,0,0,1,2.467,2.659c-.323.3-.638.627-.962.932" transform="translate(-17.498 -6.755)" fill="#fff"/>
      <path id="パス_552" data-name="パス 552" d="M95.369,39.007c-.325-.024-.658-.059-.976-.092a7.431,7.431,0,0,1-.377-2.528c.042-1.2.241-2.4.386-3.592.287.044.582.1.872.144.1.026.24.031.342.068a.114.114,0,0,1,.08.115.231.231,0,0,1-.119.164,15.455,15.455,0,0,0-.475,3.186q-.009.335.006.671c0,.02-.009.079.026.081s.05-.09.06-.1c.134-.356.275-.694.418-1.036l.539.8a9.855,9.855,0,0,0-.781,2.115m3.773-5.75c-.009,1.305-.018,2.645-.064,3.962-.073,2.1-.521,4.048-2.224,5.012a5.223,5.223,0,0,0-1-.606c-.027-.011-.056-.012-.055-.059s.05-.076.081-.1a3.8,3.8,0,0,0,.648-.423c1.095-.909,1.345-2.418,1.4-3.913a44.152,44.152,0,0,0-.1-4.437,7.557,7.557,0,0,1,.873.122,3.376,3.376,0,0,1,.464.082.111.111,0,0,1,.088.128.412.412,0,0,1-.11.229" transform="translate(-19.641 -6.831)" fill="#fff"/>
      <path id="パス_553" data-name="パス 553" d="M110.972,37.192a.219.219,0,0,1-.134-.055c-.646.235-1.891.76-2.483,1.051v1.72l-1.061-.011c.01-.156.01-.324.01-.513v-.626c-.717.357-1.077.814-1.077,1.327,0,.449.412.683,1.229.683a7.479,7.479,0,0,0,2.611-.447l-.037,1.307a6.922,6.922,0,0,1-2.251.324c-1.759,0-2.637-.592-2.637-1.789a2.262,2.262,0,0,1,.736-1.605,6.283,6.283,0,0,1,1.363-.961c-.017-.5-.161-.76-.421-.76a1.269,1.269,0,0,0-.924.425,8.366,8.366,0,0,0-.691.76c-.331.391-.538.66-.663.791-.161-.2-.412-.5-.746-.914a8.024,8.024,0,0,0,2.262-3.027c-.476.066-1.005.111-1.581.143-.036-.425-.089-.816-.142-1.161a14.6,14.6,0,0,0,2.055-.112,9.974,9.974,0,0,0,.3-1.542l1.212.289a.136.136,0,0,1,.107.136c0,.065-.046.123-.142.167-.047.19-.127.479-.241.861a13.394,13.394,0,0,0,1.675-.415l-.1,1.232c-.493.109-1.157.222-1.981.343a7.1,7.1,0,0,1-.556,1.12,1.671,1.671,0,0,1,.512-.078c.547,0,.9.389,1.066,1.194.718-.4,1.534-.814,2.423-1.239l.411,1.25c0,.091-.035.134-.107.134" transform="translate(-21.685 -6.727)" fill="#fff"/>
    </g>
  </g>
</svg>
