<svg id="グループ_290" data-name="グループ 290" xmlns="http://www.w3.org/2000/svg" xmlns:xlink="http://www.w3.org/1999/xlink" width="130" height="130" viewBox="0 0 130 130">
  <defs>
    <clipPath id="clip-path">
      <rect id="長方形_424" data-name="長方形 424" width="130" height="130" fill="none"/>
    </clipPath>
  </defs>
  <rect id="長方形_423" data-name="長方形 423" width="130" height="130" fill="#e85200"/>
  <g id="グループ_289" data-name="グループ 289">
    <g id="グループ_288" data-name="グループ 288" clip-path="url(#clip-path)">
      <path id="パス_517" data-name="パス 517" d="M14.748,37.762A6.912,6.912,0,0,1,13.264,33v-.367h4.468a5.791,5.791,0,0,0,.351,2.387,1.465,1.465,0,0,0,1.454.7,1.41,1.41,0,0,0,1.148-.459,3.1,3.1,0,0,0,.536-1.515,22.9,22.9,0,0,0,.153-3.045V28.2a2.654,2.654,0,0,1-1.255,1.056,4.846,4.846,0,0,1-1.99.382,4.366,4.366,0,0,1-4.008-2.02,10.049,10.049,0,0,1-1.255-5.356q0-8.354,6.671-8.355a5.963,5.963,0,0,1,5.049,2.112,9.331,9.331,0,0,1,1.622,5.814v9.027A11.208,11.208,0,0,1,24.724,37.1q-1.484,2.234-5.218,2.234-3.3,0-4.758-1.576m6.625-12.869V20.946a6.8,6.8,0,0,0-.4-2.571,1.565,1.565,0,0,0-2.907.077,10.5,10.5,0,0,0-.367,3.259,24.213,24.213,0,0,0,.092,2.433,2.6,2.6,0,0,0,.5,1.362,1.521,1.521,0,0,0,1.27.52,2.035,2.035,0,0,0,1.805-1.132" transform="translate(-2.688 -2.905)" fill="#fff"/>
      <path id="パス_518" data-name="パス 518" d="M106.961,98.3l-15.525-8.96V71.419a1.059,1.059,0,0,0-.529-.917l-16.05-9.268a1.064,1.064,0,0,0-1.059,0L57.745,70.5a1.057,1.057,0,0,0-.529.917V89.343L41.693,98.3a1.057,1.057,0,0,0-.529.917v18.538a1.057,1.057,0,0,0,.529.917l16.052,9.266a1.06,1.06,0,0,0,1.058,0l15.523-8.96,15.521,8.96a1.061,1.061,0,0,0,1.059,0l16.054-9.266a1.056,1.056,0,0,0,.529-.917V99.22a1.057,1.057,0,0,0-.529-.917M73.268,115.924l-12.876-7.435,12.876-7.435ZM88.259,89.956,75.385,97.386V82.52ZM73.268,97.386,60.393,89.955,73.268,82.52Zm3.177,1.835,13.932-8.042,13.936,8.041-13.936,8.047Zm12.873-11.1L76.445,80.687l12.873-7.433Zm-17.11-7.434L59.334,88.121V73.254Zm-14.992,44.5-13.934-8.043V101.055L57.216,109.1Zm2.118,0V110.324l12.874,7.435Zm46.039-8.043L91.436,125.19V109.1l13.936-8.047Z" transform="translate(-8.6 -12.764)" fill="#fff"/>
      <path id="パス_519" data-name="パス 519" d="M47.944,18.934c.007.292.017.575.017.869a12.566,12.566,0,0,1-.43,3.493,5.587,5.587,0,0,1-.676,1.556l-.889-.642a7.479,7.479,0,0,0,.918-4.137c0-.687-.02-1.388-.047-2.073h1.888c-.169-.34-.332-.69-.514-1.017l.7-.315h-2.1V15.641h3.1V14.49l1.145.079c.085,0,.181,0,.181.136a.214.214,0,0,1-.143.168v.768h3.235v1.026H52.152l.619.238a.119.119,0,0,1,.1.111c0,.066-.077.1-.123.113-.145.3-.276.587-.441.87h2.35v.934ZM47.9,24.663v-.9h2.71v-1h-1.44v-.868h1.44v-.836H49.4a8.531,8.531,0,0,1-.7,1.713l-.791-.528a9.447,9.447,0,0,0,.839-3.022l1.013.282a.132.132,0,0,1,.113.122c0,.092-.075.127-.142.136-.04.136-.078.272-.115.407H50.6V19.1l1.163.1c.059,0,.1.082.1.139,0,.112-.126.179-.2.2v.566h2.462v.924H51.655v.834h1.965v.892H51.655v.98h2.813v.926Zm1.44-8c.135.374.336,1.028.44,1.41A.376.376,0,0,1,49.288,18H51.3c.124-.441.237-.881.323-1.332Z" transform="translate(-9.603 -3.027)" fill="#fff"/>
      <path id="パス_520" data-name="パス 520" d="M67.171,24.848a6.733,6.733,0,0,1-3.389-2.073v2.2H62.724v-2.22a7.2,7.2,0,0,1-3.3,2.043l-.631-.926a6.553,6.553,0,0,0,3.121-1.684H59.163v-.916h3.561v-.445H60.061v-.838h2.663V19.5H59.478V18.6h1.975c-.1-.258-.2-.525-.324-.78H59.048v-.938H60.67a9.668,9.668,0,0,0-.8-1.315l1.021-.626c.229.547.449,1.1.657,1.663l-.535.278h.869V14.757l1.068.1a.1.1,0,0,1,.1.112c0,.078-.085.143-.142.167v1.75h.649v-2.14l1.088.089a.115.115,0,0,1,.105.122c0,.079-.1.134-.145.156v1.763h.8l-.477-.256c.21-.559.429-1.105.591-1.686l1.09.525a.2.2,0,0,1,.123.167c0,.125-.165.134-.23.134-.238.38-.476.748-.714,1.115h1.679v.949H65.414c-.152.267-.3.522-.457.78H67.15V19.5H63.773v.488h2.738v.838H63.773v.445h3.6v.916H64.506c.62.835,2.368,1.426,3.284,1.66Zm-4.888-7.024.145.78h1.554c.068-.258.126-.525.183-.78Z" transform="translate(-12.282 -3.081)" fill="#fff"/>
      <path id="パス_521" data-name="パス 521" d="M76.212,24.985c-1.339,0-3.475-.212-3.475-2.342a3.256,3.256,0,0,1,2.181-2.879,17.31,17.31,0,0,1-.374-3.946c.28.021.571.044.853.068.139.011.28.02.42.044.047.01.1.034.1.1a.225.225,0,0,1-.063.122,7.716,7.716,0,0,0-.056,1.028,6.869,6.869,0,0,0,.176,1.994.127.127,0,0,0,.087.032,10.287,10.287,0,0,0,2.358-.99c.139.479.234.98.346,1.471-1.168.279-4.887.994-4.887,2.832,0,1.038,1.386,1.239,2.033,1.239a7.962,7.962,0,0,0,3.005-.5c.056.467.1.946.131,1.425a13.444,13.444,0,0,1-2.834.3" transform="translate(-15.196 -3.305)" fill="#fff"/>
      <path id="パス_522" data-name="パス 522" d="M86.183,20.42v2.4a2.574,2.574,0,0,1-1.21,2.4l-.824-.757a1.833,1.833,0,0,0,.992-1.786V20.888c-.263.179-.539.324-.8.514-.007.088-.047.232-.142.232-.055,0-.077-.054-.094-.112L83.788,20.3c.455-.2.909-.4,1.352-.623V18.089H84.016v-.981H85.13V14.955l1.091.145a.118.118,0,0,1,.1.1c0,.079-.085.157-.133.191v1.718h.69v.981h-.71v1.249l.805-.413v1.049c-.265.157-.531.288-.8.445m5.86,4.762a6.894,6.894,0,0,1-2.452-1.7,6.862,6.862,0,0,1-2.52,1.594l-.755-.846a5.733,5.733,0,0,0,2.556-1.571,8.961,8.961,0,0,1-1.3-2.332l.415-.389h-.73v-.927h1.668V17.588H87.092v-.994h1.8v-1.65l1.135.1a.149.149,0,0,1,.153.167c0,.089-.125.157-.182.179v1.195h2.331v1H89.98v1.426h1.837v.671c0,.032-.122.413-.142.479A7.308,7.308,0,0,1,90.312,22.7a6.1,6.1,0,0,0,2.441,1.429Zm-3.521-5.264a6.554,6.554,0,0,0,1.08,2.009,6.226,6.226,0,0,0,.946-2.009Z" transform="translate(-17.505 -3.122)" fill="#fff"/>
      <path id="パス_523" data-name="パス 523" d="M101.206,18.611v6.579h-1.051V18.622H98.972v-.144c-.218.423-.426.846-.672,1.247v5.5H97.249V21.108a5.645,5.645,0,0,1-.558.569l-.531-.88a9.17,9.17,0,0,0,2.13-3.311l.682.612v-.423h1.164v-2.42l1.088.112c.066.012.162.034.162.133a.239.239,0,0,1-.18.211v1.964h1.3v.937Zm-2.31-2.33a10.025,10.025,0,0,1-1.789,2.093l-.767-.7a6.985,6.985,0,0,0,1.74-2.4l.979.68a.189.189,0,0,1,.093.146.206.206,0,0,1-.256.18m.956,3.935a21.151,21.151,0,0,1-.521,3.88l-.814-.723a16.916,16.916,0,0,0,.407-3.792l.985.366a.12.12,0,0,1,.067.112c0,.068-.085.134-.124.156M102.01,23.4a18.5,18.5,0,0,1-.529-3.39l.892-.267a18.519,18.519,0,0,0,.5,3.155Zm.863-6.4v-.824a.116.116,0,0,1-.122.09c-.144.4-.286.812-.445,1.214l-.683-.312c.132-.511.219-1.026.332-1.539l.89.434.028.046v-.2h2.016v1.091Zm1.448,2.678v3.569A1.821,1.821,0,0,1,103,25.29l-.7-.87a1.152,1.152,0,0,0,.986-1.3V19.67h-.816V18.7h2.587v.969Z" transform="translate(-20.09 -3.187)" fill="#fff"/>
      <path id="パス_524" data-name="パス 524" d="M113.863,23.706V25.39h-1.051V23.706h-3.68v-1h3.68v-.721h-2.62V18.93h2.62v-.543H111.4V17.032h-1.966V16.05h1.948V14.942l1.1.08a.126.126,0,0,1,.123.11c0,.07-.094.148-.142.182v.736h1.789V14.942l1.1.08a.127.127,0,0,1,.124.11c0,.07-.094.148-.14.182v.736h1.9v.983h-1.889v1.355h-1.492v.543h2.74v3.059h-2.74v.721h3.772v1Zm-1.051-3.91h-1.593v1.279h1.593Zm1.441-2.81h-1.788v.61h1.788ZM115.5,19.8h-1.657v1.279H115.5Z" transform="translate(-22.8 -3.122)" fill="#fff"/>
      <path id="パス_525" data-name="パス 525" d="M124.5,19.659l-.01.668h1.441v.892h-1.315a4.548,4.548,0,0,0,1.179,1.164l-.525.837a4.063,4.063,0,0,1-.77-.76v2.769h-.99V22.586a5.54,5.54,0,0,1-1.259,1.455l-.69-.778a5.7,5.7,0,0,0,1.659-2.044h-1.332v-.892h1.622v-.668h-1.676v-.9h1.078c-.154-.428-.316-.858-.508-1.264l.661-.248H122v-.95h1.486V14.984l1.1.066a.142.142,0,0,1,.146.134.2.2,0,0,1-.146.193v.915h1.332v.95h-1.042l.652.372a.159.159,0,0,1,.091.123c0,.127-.134.161-.208.161-.127.293-.272.574-.418.858h.98v.9Zm-1.07-2.416c.1.417.35,1.359.433,1.787-.18.093-.5-.354-.676-.275h.986c.118-.5.227-1,.318-1.513Zm5.727,2.429v5.477h-1.07V19.672h-.725c-.01,1.863-.3,4.246-1.605,5.42l-.777-.679c1.321-1.232,1.375-3.33,1.375-5.205,0-1.039-.034-2.091-.044-3.129l.634.045a2.913,2.913,0,0,0,.625-.181,13.207,13.207,0,0,0,1.6-.71l.726,1.31a.16.16,0,0,1-.162.17.276.276,0,0,1-.183-.07,20.334,20.334,0,0,1-2.175.362v1.729h2.656v.938Z" transform="translate(-25.396 -3.13)" fill="#fff"/>
      <path id="パス_526" data-name="パス 526" d="M138.791,25.157c-.286-.335-.544-.692-.83-1.017,1.458-.437,2.805-1.072,2.805-3.263a3.031,3.031,0,0,0-1.928-3.136c-.249,1.994-.739,5.167-2.188,6.342a1.332,1.332,0,0,1-.858.368,1.36,1.36,0,0,1-.988-.668,4.341,4.341,0,0,1-.592-2.365c0-2.824,1.873-4.819,4.072-4.819,2.028,0,3.68,1.513,3.68,4.2a4.147,4.147,0,0,1-3.175,4.36m-3.249-5.318a4.758,4.758,0,0,0-.257,1.579c0,.476.081,1.7.6,1.7.184,0,.342-.222.451-.371.868-1.107,1.236-3.472,1.328-4.981a3.418,3.418,0,0,0-2.122,2.075" transform="translate(-28.04 -3.468)" fill="#fff"/>
      <path id="パス_527" data-name="パス 527" d="M54.3,40.93a6.282,6.282,0,0,1-1.6-.983v.669H50.89v.736h2.834v.9H47.071v-.9H49.86v-.736H48.094v-.748A7.965,7.965,0,0,1,46.472,40.9l-.631-.849a6.087,6.087,0,0,0,2.5-1.806h-2.2v-.981h1.976V34.348H46.49v-.956H48.1V32.2l1.087.066a.115.115,0,0,1,.115.123c0,.078-.085.145-.144.167v.839h2.453V32.2l1.107.066a.123.123,0,0,1,.123.123c0,.078-.087.145-.143.167v.839h1.509v.956H52.7v2.913H54.63v.981H52.367a5.959,5.959,0,0,0,2.616,1.717Zm-3.263-2.743h-1.4a6.9,6.9,0,0,1-1.355,1.526h1.565v-.981l1.049.079a.121.121,0,0,1,.126.112.207.207,0,0,1-.144.178v.612h1.545a7,7,0,0,1-1.383-1.526m.564-3.838H49.161v.48h2.444Zm0,1.25H49.161v.459h2.444Zm0,1.216H49.161v.49h2.444Z" transform="translate(-9.577 -6.727)" fill="#fff"/>
      <path id="パス_528" data-name="パス 528" d="M67.449,38.752a6.028,6.028,0,0,1-2.138-.916,6.444,6.444,0,0,1-1.755.726l-.534-.736A1.341,1.341,0,0,1,62,38.651l-.611-.658c.535-.157.791-.324.791-1.026V35.74l-.313.032V37.58h-.774V35.863l-.238.022a4.649,4.649,0,0,1-.917,2.988l-.831-.513a3.821,3.821,0,0,0,.782-2.353c-.152.032-.3.079-.458.112-.018.078-.075.156-.151.156s-.1-.088-.116-.156l-.238-1c.314,0,.639,0,.956-.023,0-.76-.021-1.53-.021-2.287h.994c.116-.29.211-.59.3-.892l1.185.144a.146.146,0,0,1,.114.133c0,.146-.163.2-.258.213-.116.134-.23.267-.354.4h1.289v3.98a3.3,3.3,0,0,1-.114,1.016,5.111,5.111,0,0,0,1.479-.581,6.519,6.519,0,0,1-.841-.868,4.728,4.728,0,0,1,.392-.277h-.668V35.26h.689l-.794-.366a2.658,2.658,0,0,0,.44-1.652c0-.256-.01-.524-.019-.78h2.7c-.009.435-.021.871-.021,1.305,0,.278.059.379.305.379a2.281,2.281,0,0,0,1.079-.536l-.074,1.149a2.739,2.739,0,0,1-1.2.312c-.717,0-1.108-.078-1.108-.991,0-.246.01-.5.01-.747H64.71a2.754,2.754,0,0,1-.6,1.927h3.2V35.9a4.062,4.062,0,0,1-1.156,1.326,5.328,5.328,0,0,0,1.831.559Zm-8.207,3.479v-.9h1.08V38.705h6.307v2.622H67.6v.9Zm2.921-8.587H60.855v.536c.228-.157.456-.312.687-.46.18.269.352.549.524.827l-.544.468.639-.044Zm-1.307.558v.861l.63-.047a8.661,8.661,0,0,0-.63-.814m1.289,5.375h-.793V41.34h.793Zm1.706,0h-.771V41.34h.771Zm.813-3.5a5.479,5.479,0,0,0,.678.632,3.021,3.021,0,0,0,.638-.632Zm.945,3.5h-.822V41.34h.822Z" transform="translate(-12.311 -6.668)" fill="#fff"/>
      <path id="パス_529" data-name="パス 529" d="M79.848,37.45A.273.273,0,0,1,79.7,37.4c-.686.233-2.013.757-2.641,1.047V40.16l-1.127-.013c.008-.154.008-.323.008-.513v-.623c-.763.355-1.146.812-1.146,1.325,0,.447.442.682,1.308.682a8.4,8.4,0,0,0,2.777-.447l-.04,1.3a7.762,7.762,0,0,1-2.393.324c-1.871,0-2.8-.592-2.8-1.785a2.194,2.194,0,0,1,.782-1.605,6.851,6.851,0,0,1,1.449-.96c-.018-.5-.172-.759-.448-.759a1.4,1.4,0,0,0-.983.425,8.444,8.444,0,0,0-.733.759c-.354.389-.574.657-.706.789-.172-.2-.438-.5-.792-.913a8.065,8.065,0,0,0,2.4-3.023c-.506.066-1.07.112-1.679.146-.037-.425-.1-.814-.153-1.161A16.49,16.49,0,0,0,74.972,34a9.266,9.266,0,0,0,.326-1.539l1.287.289a.137.137,0,0,1,.116.134c0,.066-.047.124-.154.167-.047.191-.133.481-.256.859a15.2,15.2,0,0,0,1.785-.412L77.97,34.73c-.524.11-1.231.223-2.109.343a7.062,7.062,0,0,1-.593,1.119,1.838,1.838,0,0,1,.546-.078c.581,0,.961.388,1.134,1.191.763-.4,1.632-.812,2.577-1.236l.438,1.248c0,.089-.035.133-.115.133" transform="translate(-15.087 -6.783)" fill="#fff"/>
      <path id="パス_530" data-name="パス 530" d="M89.677,41.684a8.481,8.481,0,0,1-1.711.46c-.3-.35-.572-.72-.884-1.037a12.7,12.7,0,0,0,2.2-.584A2.731,2.731,0,0,0,91.3,37.857c-.031-1.471-.791-1.939-1.909-1.911-1.544.045-2.971,1.21-4.478,1.642-.051-.154-.493-1.392-.494-1.448,0-.111.136-.071.2-.073a8.148,8.148,0,0,0,2.291-.642,8.494,8.494,0,0,1,2.789-.691,2.777,2.777,0,0,1,2.846,2.978,3.789,3.789,0,0,1-2.868,3.972" transform="translate(-17.636 -7.256)" fill="#fff"/>
      <path id="パス_531" data-name="パス 531" d="M102.2,42.417a18.491,18.491,0,0,0-2.872-3.244,9.225,9.225,0,0,0-.831-.726,2.334,2.334,0,0,1-.479-.422.96.96,0,0,1-.181-.6,1.287,1.287,0,0,1,.439-.95c.46-.491.935-.947,1.384-1.45.669-.759,1.346-1.516,2-2.319.276.235.555.456.829.692a1.922,1.922,0,0,1,.317.266.142.142,0,0,1,.046.1c0,.152-.21.176-.315.152-.629.6-1.278,1.2-1.917,1.808-.27.256-.517.536-.782.791-.125.123-.267.235-.384.369a.735.735,0,0,0-.229.445.428.428,0,0,0,.173.336c.4.378.848.7,1.258,1.058a19.325,19.325,0,0,1,2.54,2.732c-.335.312-.66.647-.992.959" transform="translate(-20.441 -6.833)" fill="#fff"/>
      <path id="パス_532" data-name="パス 532" d="M110.42,42.326a5.133,5.133,0,0,0-.516-.914.222.222,0,0,1-.047-.1c0-.032.047-.042.067-.055a8.533,8.533,0,0,0,1.41-.176c1-.258,1.9-.771,1.9-2.13a1.391,1.391,0,0,0-1.566-1.539,3.227,3.227,0,0,0-2.5,1.562c-.382.5-.725,1.024-1.059,1.56-.324-.29-.649-.59-.971-.89a32.48,32.48,0,0,0,2.727-3.76,9.806,9.806,0,0,0,.824-1.473c-.251.056-.5.134-.747.2-.448.123-.906.258-1.362.357-.069-.434-.136-.869-.22-1.305a21.085,21.085,0,0,0,3.13-.546,4.53,4.53,0,0,0,.659-.211,7.722,7.722,0,0,1,.6.947c0,.112-.115.146-.18.156a19.588,19.588,0,0,0-1.947,2.567,4.6,4.6,0,0,1,1.239-.191,2.46,2.46,0,0,1,2.606,2.709c0,2.376-2.4,3.145-4.045,3.236" transform="translate(-22.383 -6.874)" fill="#fff"/>
      <path id="パス_533" data-name="パス 533" d="M121.436,42.278c-.351-.331-.7-.674-1.077-.972a4.62,4.62,0,0,0,2.749-1.994,3.739,3.739,0,0,0,.374-1.682c0-1.02-.326-1.606-1.214-1.606a7.836,7.836,0,0,0-2.7,1.225c-.066-.172-.524-1.35-.524-1.454,0-.08.095-.07.134-.07a6.064,6.064,0,0,0,1.183-.331,6.4,6.4,0,0,1,2.224-.584c1.528,0,2.2,1.238,2.2,2.942a4.875,4.875,0,0,1-3.342,4.524m1.672-8.256a13.768,13.768,0,0,0-2.7-1.032c.181-.411.354-.824.534-1.236a10.354,10.354,0,0,1,2.768,1.043c-.191.41-.382.824-.6,1.225" transform="translate(-24.87 -6.634)" fill="#fff"/>
    </g>
  </g>
</svg>
