<svg id="グループ_299" data-name="グループ 299" xmlns="http://www.w3.org/2000/svg" xmlns:xlink="http://www.w3.org/1999/xlink" width="130" height="130" viewBox="0 0 130 130">
  <defs>
    <clipPath id="clip-path">
      <rect id="長方形_431" data-name="長方形 431" width="130" height="130" fill="none"/>
    </clipPath>
  </defs>
  <rect id="長方形_430" data-name="長方形 430" width="130" height="130" fill="#830025"/>
  <g id="グループ_298" data-name="グループ 298">
    <g id="グループ_297" data-name="グループ 297" clip-path="url(#clip-path)">
      <path id="パス_571" data-name="パス 571" d="M12.866,31.841A8.264,8.264,0,0,1,13.6,28.23a4.79,4.79,0,0,1,2.172-2.266,6.076,6.076,0,0,1-1.836-2.218,7.427,7.427,0,0,1-.7-3.381,6.611,6.611,0,0,1,1.622-4.758,6.125,6.125,0,0,1,4.652-1.7,6.058,6.058,0,0,1,4.621,1.683,6.545,6.545,0,0,1,1.592,4.682,8.061,8.061,0,0,1-.673,3.489,5.551,5.551,0,0,1-1.806,2.2,4.753,4.753,0,0,1,2.173,2.327,8.915,8.915,0,0,1,.734,3.764,8.236,8.236,0,0,1-1.591,5.386q-1.591,1.928-5.049,1.928-6.642,0-6.641-7.528m8.248,2.922a7.787,7.787,0,0,0,.413-2.739,8.3,8.3,0,0,0-.413-2.908,1.572,1.572,0,0,0-1.607-1.07A1.574,1.574,0,0,0,17.9,29.132a8.323,8.323,0,0,0-.413,2.893,7.787,7.787,0,0,0,.413,2.739,1.573,1.573,0,0,0,1.607,1.086,1.573,1.573,0,0,0,1.607-1.086m.138-14.4a4.442,4.442,0,0,0-.429-2.127,1.406,1.406,0,0,0-1.316-.78,1.472,1.472,0,0,0-1.346.78,4.191,4.191,0,0,0-.46,2.127q0,3.826,1.806,3.826,1.744,0,1.744-3.826" transform="translate(-2.688 -2.906)" fill="#fff"/>
      <path id="パス_572" data-name="パス 572" d="M109.784,80.738,96.51,93.365a2.2,2.2,0,0,0-.757,1.9v35.391a.757.757,0,0,0,.757.755h13.712a.756.756,0,0,0,.755-.755v-49.6c0-.418-.327-1.18-1.193-.319" transform="translate(-20.005 -16.786)" fill="#fff"/>
      <path id="パス_573" data-name="パス 573" d="M61.444,101.534,48.168,114.159a2.2,2.2,0,0,0-.756,1.895V135a.757.757,0,0,0,.756.754H61.881a.756.756,0,0,0,.756-.754V101.851c0-.418-.33-1.183-1.193-.317" transform="translate(-9.905 -21.13)" fill="#fff"/>
      <path id="パス_574" data-name="パス 574" d="M104.537,61.38a.379.379,0,0,0-.112-.288.4.4,0,0,0-.246-.108l-.073,0L104,61,93.833,63.288l-.184.019a.407.407,0,0,0-.2.1.389.389,0,0,0,0,.547l.115.115,2.321,2.321L72.855,89.425,62.217,78.786a.3.3,0,0,0-.433,0L58.9,81.674l0,0L41.844,98.726a.31.31,0,0,0,0,.434l2.891,2.889a.3.3,0,0,0,.43,0L62,85.212l7.719,7.72a.163.163,0,0,0,.025.036l2.887,2.884a.3.3,0,0,0,.433,0l26.14-26.14,2.437,2.437a.382.382,0,0,0,.543,0,.374.374,0,0,0,.111-.251l0-.032,2.232-10.376Z" transform="translate(-8.723 -12.741)" fill="#fff"/>
      <path id="パス_575" data-name="パス 575" d="M85.731,104.32,79.308,110.8a.307.307,0,0,1-.414-.016l-5.818-5.932c-1.066-1.061-1.3-.2-1.3.217v30.5a.754.754,0,0,0,.752.755H86.248a.757.757,0,0,0,.755-.755V104.559c0-.416-.329-1.182-1.271-.239" transform="translate(-14.996 -21.7)" fill="#fff"/>
      <path id="パス_576" data-name="パス 576" d="M53.515,22.627c-.076,1.338-.459,1.907-1.6,2.208l-.63-.924c.8-.157,1.108-.369,1.185-1.363.106-1.394.106-2.809.106-4.215h-.316a17.945,17.945,0,0,1-.439,3.838,6.256,6.256,0,0,1-1.394,2.708l-.877-.634a6.832,6.832,0,0,0,.514-.581c-.829.18-1.66.348-2.491.536-.009.089-.057.167-.143.167s-.133-.078-.161-.154l-.4-.983c.517-.055,1.022-.134,1.537-.2v-.546H47.083v-.827H48.4v-.38H47.111V18.033H48.39v-.369H47.083v-.88H48.39v-.457c-.313.021-.629.046-.945.078l-.267-.49c-.114.433-.218.88-.343,1.315-.021.079-.137.413-.137.468v7.158H45.68V19.839a6.153,6.153,0,0,1-.391.6l-.621-.924a12.689,12.689,0,0,0,1.623-4.886l1.126.411a.166.166,0,0,1,.095.134c0,.089-.123.133-.182.145l-.037.167a10.483,10.483,0,0,0,2.911-.626l.715,1.105a.118.118,0,0,1-.133.122.257.257,0,0,1-.172-.065c-.41.086-.83.144-1.24.21v.547H50.8v.57h.489v-2.6l1.069.145c.066.011.182.057.182.157a.219.219,0,0,1-.136.189c-.018.7-.046,1.415-.075,2.118.429-.009.858-.021,1.289-.021-.01,1.763,0,3.524-.105,5.286m-5.086-3.9h-.478v.6h.478Zm0,1.313h-.478v.548h.478Zm1.316-1.313h-.43v.6h.43Zm.019,1.313h-.449v.548h.449Zm1-1.706v-.669H49.345v.369h1.25v3.243h-1.25v.38h1.23v.8h-1.23v.457c.384-.057.752-.134,1.136-.2l-.058.379a11.088,11.088,0,0,0,.83-4.762Z" transform="translate(-9.332 -3.057)" fill="#fff"/>
      <path id="パス_577" data-name="パス 577" d="M64.085,19.411A7.911,7.911,0,0,0,65.327,21.4c-.21.323-.438.626-.667.927a5.194,5.194,0,0,0-2.578-.671c-.389,0-1.249.19-1.249.8,0,.981,1.316,1.049,1.918,1.049a10.744,10.744,0,0,0,1.975-.256c-.094.423-.17.846-.248,1.271a8.752,8.752,0,0,1-1.4.133c-1.216,0-3.353-.156-3.353-2.073,0-1.4,1.357-1.864,2.338-1.864a7.035,7.035,0,0,1,1.527.2c-.19-.423-.391-.846-.572-1.281a22.628,22.628,0,0,1-3.473.422L59.3,18.944a15.114,15.114,0,0,0,3.313-.334c-.116-.336-.221-.67-.317-1.005a14.514,14.514,0,0,1-2.422.344c-.105-.355-.2-.723-.3-1.08a14.055,14.055,0,0,0,2.441-.3c-.142-.535-.256-1.092-.351-1.639.391-.032.782-.079,1.172-.1h.04a.136.136,0,0,1,.152.134.264.264,0,0,1-.095.178c.047.369.105.736.181,1.1a5.232,5.232,0,0,0,1.327-.637c.078.413.171.827.247,1.25-.438.167-.886.324-1.335.468.1.357.229.7.362,1.047a12.739,12.739,0,0,0,2.233-.835c.085.425.133.848.209,1.261a12.549,12.549,0,0,1-2.072.612" transform="translate(-12.388 -3.098)" fill="#fff"/>
      <path id="パス_578" data-name="パス 578" d="M75.034,23.8a1.417,1.417,0,0,1-1.077.346,2.158,2.158,0,0,1-.935-.235c-.039-.422-.066-.836-.114-1.259a2,2,0,0,0,1.049.312c.772,0,.763-2.509.763-3.144,0-.457.009-1.272-.536-1.272a2.531,2.531,0,0,0-.573.09,21.7,21.7,0,0,1-2.043,5.542c-.371-.2-.714-.425-1.086-.6a15.66,15.66,0,0,0,1.929-4.75c-.441.086-.88.2-1.308.323l-.277-1.195c0-.055.066-.066.094-.066.086,0,.161.024.248.024a7.392,7.392,0,0,0,1.48-.2,18.786,18.786,0,0,0,.343-2.655c.285.068.562.157.839.248.125.043.268.078.392.133.048.023.124.057.124.134s-.068.1-.114.122c-.113.626-.24,1.261-.393,1.885a4.737,4.737,0,0,1,.574-.056,1.126,1.126,0,0,1,1.259.948,6.21,6.21,0,0,1,.191,1.7c0,1.013-.143,2.933-.831,3.634m1.4-7.024A12.263,12.263,0,0,0,75.7,15.2l.771-.369a13.184,13.184,0,0,1,.679,1.541ZM77.4,21.7c-.21-.326-.44-.626-.668-.926.276-.057.974-.225.974-.649a5.526,5.526,0,0,0-1.375-2.488,11.706,11.706,0,0,0,1.069-.6A7.12,7.12,0,0,1,78.92,20.36c0,.837-.964,1.149-1.517,1.339m.306-5.311a11.111,11.111,0,0,0-.717-1.582l.735-.4a9.821,9.821,0,0,1,.716,1.571Z" transform="translate(-14.725 -3.01)" fill="#fff"/>
      <path id="パス_579" data-name="パス 579" d="M86.866,24.242a1.033,1.033,0,0,1-.759-.293,5.825,5.825,0,0,1-1.278-3.623,18.045,18.045,0,0,1,.063-3.067c.028-.392.059-.774.108-1.159a7.741,7.741,0,0,1,1.37.441.142.142,0,0,1,.076.119.24.24,0,0,1-.185.225,11.613,11.613,0,0,0-.272,2.265,11.854,11.854,0,0,0,.044,1.418,5.463,5.463,0,0,0,.3,1.474c.071.212.24.711.477.7.457-.032.964-1.531,1.142-1.993l.663,1.4c-.252.757-.992,2.05-1.744,2.1m4.2-2a10.164,10.164,0,0,0-1.543-4.732c.395-.183.767-.4,1.166-.574A12.138,12.138,0,0,1,92.3,21.682c-.409.207-.819.389-1.236.562" transform="translate(-17.714 -3.363)" fill="#fff"/>
      <path id="パス_580" data-name="パス 580" d="M101.49,24.649c-1.337.011-2.634-.556-2.652-2.355,0-.266.028-.534.048-.8-.7-.248-1.634-.558-1.652-1.595a4.117,4.117,0,0,1,.421-1.429c.361.079.725.189,1.077.267a2.133,2.133,0,0,0-.467.983c.009.391.551.558.811.626.152-.883.323-1.752.476-2.634-.172.212-.333.424-.5.637a17.722,17.722,0,0,0-1.53-1.318c.213-.335.431-.668.66-1a13.453,13.453,0,0,1,1.422,1.226,14.47,14.47,0,0,0,.306-2.231c.3.055.621.147.926.224a2.279,2.279,0,0,1,.381.1c.066.021.134.055.134.144a.444.444,0,0,1-.182.29c-.067.246-.123.514-.18.757-.116.525-.23,1.049-.354,1.574-.18.824-.371,1.661-.515,2.5.381.068.773.068,1.154.1l-.172,1.084a7.6,7.6,0,0,1-1.125-.092,2.786,2.786,0,0,0-.029.493,1.243,1.243,0,0,0,1.384,1.3c.811-.013,1.174-.5,1.163-1.428a4.742,4.742,0,0,0-1.4-2.8,8.373,8.373,0,0,0,1.047-.509,5.244,5.244,0,0,1,1.6,3.623,2.148,2.148,0,0,1-2.26,2.263" transform="translate(-20.314 -3.139)" fill="#fff"/>
      <path id="パス_581" data-name="パス 581" d="M46.372,39.1a9.742,9.742,0,0,1-.778,2.61l-.8-.415a9.12,9.12,0,0,0,.714-2.8l.864.324a.151.151,0,0,1,.1.155c0,.055-.065.1-.1.122m6.933-.7a7.372,7.372,0,0,1-2.536-1.5,6.588,6.588,0,0,1-1.861,1.307l-.392-.592.112.49a5.836,5.836,0,0,1-.744.324c-.047-.19-.1-.391-.15-.581l-.244.045v4.482h-.967V38.006c-.471.057-.93.136-1.4.19l-.1-.97a2.294,2.294,0,0,0,.562-.057c.318-.4.612-.836.893-1.27a5.7,5.7,0,0,0-1.3-.5V34.9a12.471,12.471,0,0,0,1.737-2.675,9.07,9.07,0,0,1,.977.512c.078.045.209.112.209.235s-.161.145-.226.145c-.5.58-.993,1.159-1.532,1.7.2.112.385.233.572.346a9.665,9.665,0,0,0,.517-.9c.153.093.978.6.978.783,0,.122-.141.146-.216.122-.534.669-1.062,1.349-1.613,2.006.316-.032.627-.078.948-.11-.058-.19-.115-.391-.189-.57.253-.1.508-.211.762-.323.122.368.227.736.329,1.1a6.23,6.23,0,0,0,1.634-1.092,9.891,9.891,0,0,1-1.259-1.618l.619-.637h-.91v-.971h4.4v.839a7.729,7.729,0,0,1-1.41,2.352,7.119,7.119,0,0,0,2.4,1.216c-.215.334-.4.691-.6,1.036m-5.224,2.488c-.206-.658-.347-1.349-.488-2.031l.791-.324a13.982,13.982,0,0,0,.477,2Zm.207,1.27v-.926H50.3V39.9H48.814v-.927h1.475V37.717c.255.032.517.054.772.088a1.73,1.73,0,0,1,.338.045.113.113,0,0,1,.093.112.216.216,0,0,1-.152.18v.835h1.627V39.9H51.34v1.325h2.134v.926Zm1.447-8.23a6.62,6.62,0,0,0,1,1.5,5.47,5.47,0,0,0,.863-1.5Z" transform="translate(-9.359 -6.733)" fill="#fff"/>
      <path id="パス_582" data-name="パス 582" d="M59.512,37.189a16.324,16.324,0,0,0-1.6-1.105l.677-1.069a8.45,8.45,0,0,1,1.485,1.27Zm-.329,4.884a.343.343,0,0,1,.046.169.1.1,0,0,1-.093.1,12.445,12.445,0,0,1-1.146-.735,16.663,16.663,0,0,0,1.267-3.759l.9.846c-.311,1.139-.619,2.263-.977,3.379m.555-7.682a13.459,13.459,0,0,0-1.381-.972l.733-1.069a9.022,9.022,0,0,1,1.229,1.182Zm6.662,3.7a9.915,9.915,0,0,1-.952-.313v4.538H64.414V40.455H62.047A4.562,4.562,0,0,1,60.8,42.5l-.819-.624c1.156-.98,1.353-2.621,1.353-4.181a6.379,6.379,0,0,1-.978.346l-.525-.926a7.262,7.262,0,0,0,2.676-1.047,7.86,7.86,0,0,1-1.248-1.607h-.828v-.971H62.65V32.215l1.183.078a.192.192,0,0,1,.176.18c0,.109-.111.167-.187.188v.825h2.613v.971H65.429a6.782,6.782,0,0,1-1.268,1.616,7.549,7.549,0,0,0,2.754.893Zm-1.985.713H62.33c-.02.256-.047.522-.085.78h2.169Zm0-1.407a12.808,12.808,0,0,1-1.107-.723,9.664,9.664,0,0,1-.931.533c0,.248,0,.481-.009.725h2.047Zm-1.972-2.955a4.123,4.123,0,0,0,.894,1.028,3.714,3.714,0,0,0,.806-1.028Z" transform="translate(-12.099 -6.73)" fill="#fff"/>
      <path id="パス_583" data-name="パス 583" d="M78.883,42.329a7.513,7.513,0,0,1-2.109-2.092,6.021,6.021,0,0,1-2.319,2.022l-.782-.749A5.791,5.791,0,0,0,76.19,39.2a12.374,12.374,0,0,1-1.127-4.181H72.745v.057c0,.42.01.831.01,1.25h2.251c-.02.853-.02,1.713-.123,2.558-.184,1.386-.62,1.827-1.784,1.944l-.525-.9c1.154-.136,1.307-.59,1.327-1.888l.008-.771H72.727c0,1.6-.249,3.807-1.221,5l-.9-.649c.982-1.136,1.051-3.021,1.051-4.553,0-1.024-.059-2.057-.078-3.081h3.406c-.056-.669-.075-1.352-.094-2.022l1.248.159c.068.01.2.046.2.161a.314.314,0,0,1-.18.238c-.009.273-.009.532-.009.806,0,.215,0,.442.009.658h3.053v1.058H76.21a12.268,12.268,0,0,0,.584,2.978,10.577,10.577,0,0,0,.666-2.444l1.191.749a.265.265,0,0,1,.116.2c0,.125-.191.17-.266.184a13.231,13.231,0,0,1-1.042,2.52,6.6,6.6,0,0,0,2.225,1.978Zm-.288-9.522c-.229.377-.447.762-.687,1.125l-.877-.306a13.218,13.218,0,0,0,.535-1.647l1.107.454a.234.234,0,0,1,.154.193c0,.113-.154.172-.231.181" transform="translate(-14.751 -6.679)" fill="#fff"/>
      <path id="パス_584" data-name="パス 584" d="M91.642,42.357a7.255,7.255,0,0,1-3.872-3.266,21.283,21.283,0,0,0,2.416-.87H86.811v2.526l1.537-.393-.126,1.055c-1.013.263-2.035.524-3.051.8-.026.076-.089.173-.17.173a.123.123,0,0,1-.1-.077l-.489-1.144c.452-.074.9-.129,1.347-.228V38.275H84.195V37.229h1.566V32.8h5.82v.989H86.819v.588h4.163v.892H86.819v.567h4.163V36.7H86.819v.556h5.348v.967H90.873l.517.794a.146.146,0,0,1-.145.153.381.381,0,0,1-.181-.065c-.588.14-1.186.261-1.782.358A5.4,5.4,0,0,0,92.349,41.3Z" transform="translate(-17.59 -6.853)" fill="#fff"/>
      <path id="パス_585" data-name="パス 585" d="M101.189,42.319c-1.335.013-2.634-.556-2.652-2.353,0-.268.028-.536.047-.8-.7-.244-1.634-.556-1.652-1.595a4.083,4.083,0,0,1,.421-1.426c.361.078.725.187,1.077.266a2.126,2.126,0,0,0-.467.983c.01.389.551.556.811.624.152-.881.323-1.752.476-2.634-.172.214-.332.424-.5.637A17.73,17.73,0,0,0,97.227,34.7q.318-.5.661-1a13.8,13.8,0,0,1,1.421,1.226,14.407,14.407,0,0,0,.306-2.229c.305.055.62.144.926.222a2.354,2.354,0,0,1,.381.1c.066.021.134.055.134.144a.436.436,0,0,1-.18.289c-.069.246-.126.514-.183.759-.115.525-.229,1.049-.354,1.574-.18.824-.371,1.661-.515,2.5.382.068.773.068,1.154.1l-.172,1.079a7.59,7.59,0,0,1-1.125-.089,2.756,2.756,0,0,0-.029.49,1.241,1.241,0,0,0,1.384,1.306c.81-.011,1.174-.5,1.164-1.426a4.744,4.744,0,0,0-1.4-2.8,8.792,8.792,0,0,0,1.047-.513,5.248,5.248,0,0,1,1.6,3.625,2.148,2.148,0,0,1-2.26,2.263" transform="translate(-20.251 -6.831)" fill="#fff"/>
    </g>
  </g>
</svg>
