<svg xmlns="http://www.w3.org/2000/svg" xmlns:xlink="http://www.w3.org/1999/xlink" width="130" height="130" viewBox="0 0 130 130">
  <defs>
    <clipPath id="clip-path">
      <rect id="長方形_412" data-name="長方形 412" width="130" height="130" fill="none"/>
    </clipPath>
  </defs>
  <g id="グループ_275" data-name="グループ 275" transform="translate(-558 -2221)">
    <g id="グループ_274" data-name="グループ 274" transform="translate(558 2221)">
      <rect id="長方形_411" data-name="長方形 411" width="129.823" height="129.823" transform="translate(0 129.823) rotate(-89.922)" fill="#3d6726"/>
      <g id="グループ_273" data-name="グループ 273">
        <g id="グループ_272" data-name="グループ 272" clip-path="url(#clip-path)">
          <path id="パス_502" data-name="パス 502" d="M13.6,19.19a20.212,20.212,0,0,1-1.959.765q-1.285.43-1.622.581V17.018a20.385,20.385,0,0,0,2.524-1.225,8.517,8.517,0,0,0,2.1-1.5h3.7V39.082H13.6Z" transform="translate(-2.094 -2.986)" fill="#fff"/>
          <path id="パス_503" data-name="パス 503" d="M25.2,37.463a8.69,8.69,0,0,1-1.561-5.539v-.857H28.35v.827a6.533,6.533,0,0,0,.46,2.723,1.6,1.6,0,0,0,1.561.827,1.5,1.5,0,0,0,1.515-.842,7.126,7.126,0,0,0,.382-2.739,5.864,5.864,0,0,0-.581-2.953,2.351,2.351,0,0,0-2.142-.994,5.662,5.662,0,0,0-.857-.031V24.426h.765a2.53,2.53,0,0,0,2.2-.857,4.959,4.959,0,0,0,.612-2.815,4.845,4.845,0,0,0-.444-2.356,1.667,1.667,0,0,0-1.576-.766,1.481,1.481,0,0,0-1.469.827,6.132,6.132,0,0,0-.429,2.448v1.1H23.638V20.662a6.892,6.892,0,0,1,1.729-5.019,6.5,6.5,0,0,1,4.881-1.775,6.778,6.778,0,0,1,4.958,1.714,6.6,6.6,0,0,1,1.744,4.927,6.782,6.782,0,0,1-.888,3.6A3.791,3.791,0,0,1,33.8,25.926q3.152,1.163,3.152,5.845a8.9,8.9,0,0,1-1.592,5.616q-1.591,2.035-5.049,2.035-3.55,0-5.11-1.959" transform="translate(-4.938 -2.897)" fill="#fff"/>
          <path id="パス_504" data-name="パス 504" d="M118.546,96.678a59.734,59.734,0,0,0-95.874-.131c-.147.206-.273.384-.377.536.1.156.229.334.375.543a59.737,59.737,0,0,0,95.875.131c.15-.209.275-.386.373-.542-.1-.152-.222-.33-.373-.536m-64.057-12c.261-.383,1.129-1.475,1.234-1.612a1.545,1.545,0,0,1,.976-.4c.307-.059.717.115.765.346a2.688,2.688,0,0,1-.271,1.281,3.341,3.341,0,0,1-2.139.961c-.471-.073-.655-.437-.565-.576m-1.036,2.054c.046-.055.087-.1.1-.122a2.7,2.7,0,0,1,1.59-.58c.5-.085,1.17.169,1.251.5s-1.259.938-1.5,1.166c-.7.64-1.789,1.944-2.426,2.085a.763.763,0,0,1-.521-.055,19.946,19.946,0,0,1,1.506-3m10.8,22.227a5.728,5.728,0,0,1-1.243,2.581,4.177,4.177,0,0,1-2.749,1.048c-.917-.07-1.041-2.516-1.039-3.774,0-.435-.616.853-.933-1.766-.2-1.676-1.282.173-1.355-.945s-.613-.894-1.178-1.592-1.264.066-2.05.418-.46.53-1.572.178c-.028-.009-.043-.017-.07-.027a20.089,20.089,0,0,1-1.573-7.847c0-.681.038-1.35.1-2.012a1.215,1.215,0,0,1,.124-.187c1.068-1.26,1.044-1.555,1.044-1.555l1.18-.407a19.69,19.69,0,0,1,3.3.829c1.168.44,3.006,1.433,4.077,1,.774-.318,1.38-.74,1.308-1.384-.086-.808-.722-1-1.494-.457-.284.2-.888-1.219-1.363-1.148s.585,1.668.183,1.735S57.736,91.981,57.6,91.7s-.762-.975-1.325-.445c-1.191,1.127-3.121,1.056-3.509,1.346-1.181.881-1.491-.292-1.464-1.007.048-.163.1-.328.15-.49a2.413,2.413,0,0,1,2.243-.245c.521.349.9-.089,1.1-.3a.725.725,0,0,0,.006-.82c-.132-.28.261-.484.531-.556a14.167,14.167,0,0,0,1.529-.909,5.025,5.025,0,0,1,3.061-.012,1.622,1.622,0,0,0,2.013-.4,5.4,5.4,0,0,1,1.463-1.217c.293-.136-.718-1.081-1.551-.053s-1.259,1.117-1.65,1.116-2.717-.584-3-1.32.729-1.283,1.589-1.7,3.209-.4,3.81-.535c1.221-.266,2.783-.877,3.569-.341s-3.286,1.448-1.95,2.172c.475.262,2.627-1.233,3.365-1.615,1.734-.892-1.679-1.191-1.234-3.008.5-2.053-4.186-1.265-6.523-1.093A20.149,20.149,0,0,1,90.248,92.574a3.328,3.328,0,0,1-.1.933,1.318,1.318,0,0,1-2.361.179c-.2-.3-1.066-1.113-1.039.284s1.356,1.541.066,2.378a4.959,4.959,0,0,1-2.12.844,2.728,2.728,0,0,0-1.031,2.418c.143.77,1.977,2.873.614,2.785-.319-.024-2.725-1.672-3.122-2.73-.418-1.115-.875-2.2-1.2-3.046a1.2,1.2,0,0,0-1.9-.56c-.718.49.2.981-.319,2.031s-.885,1.982-1.641,1.115c-1.964-2.257-4.825-1.149-5.269-3.658-.24-1.36-1.411-1.231-2.389-2s-1.531-1.184-1.7-.63c-.146.487,3.077,3.049,3.305,3.7.341.974-.968,1.831-1.927,2.061s-1.373-.54-2.311-1.519-1.348-1.677-1.414-.91A4.409,4.409,0,0,0,66.242,99.6c.815.518,1.729.753,1.463,1.591s-.006.365-.92,1.267a2.463,2.463,0,0,0-1.027,2.454c.064,1.259-.263,1.331-.461,2.376s-.65.141-1.047,1.675m21.631-8.007c.678-.054,1.694.887,1.3,1.247a1.8,1.8,0,0,1-1.922-.175c-.506-.4.322-1.047.626-1.072m-.855-.62c-.218-.081-.409-.287-.573-.782a.453.453,0,0,1,.659-.577,1.946,1.946,0,0,1,.949,1.158c0,.33-.813.289-1.035.2m-8.9-.047a1.817,1.817,0,0,1-1.926-.176c-.506-.395.323-1.047.626-1.071.679-.06,1.7.888,1.3,1.247m-8.237,3.991c-.278.453-1.04,3.842-1.548,3.447s.211-3.931.359-4.2c.8-1.459,2.52-1.384,1.189.753m2.723,13.141a20.14,20.14,0,0,1-5.664-.82.83.83,0,0,1-.243-.985c.626-1.626,2.484-2.259,3.95-2.4,3.27-.314,7.561,2.132,8.245,1.739s2.07-2.187,4.1-2.109a3.169,3.169,0,0,1,1.837.464,20.071,20.071,0,0,1-12.222,4.11m14.223-5.848a3.417,3.417,0,0,1-.633-.235c-1.1-.561-.969.334-1.509.136s.612-1.456-1.015-.4-1.18-.165-1.884-1.96.818-3.842,2.092-4.3a25.478,25.478,0,0,1,3.66-.961c2.421-.6,2.936-2.037,3.373-1.162.083.164.163.32.236.466a3.2,3.2,0,0,1,.31,1.314,20.185,20.185,0,0,1-4.63,7.1M90.374,101.4c-.54-.149-2.8-3.28-1.007-5.337.3-.338-.6-1.335-.354-1.354a1.637,1.637,0,0,1,1.755,1.409c.019.386.034.775.033,1.168a20.3,20.3,0,0,1-.427,4.114" transform="translate(-4.658 -15.15)" fill="#fff"/>
          <path id="パス_505" data-name="パス 505" d="M53.694,16.958c-.133.2-.266.411-.41.612l5.341-.013v.984h-5.4v-.895a5.363,5.363,0,0,1-.916,1.116l-.916-.657a6.929,6.929,0,0,0,1.879-3.481l1.193.391c.087.034.164.066.164.19,0,.1-.136.157-.2.178-.076.19-.17.38-.256.558H59.3v1.017Zm5.669,8.084c-1.595-1.028-2.177-2.887-2.138-4.928l-1.859.01.849.4c.055.021.161.078.161.167,0,.133-.161.2-.248.21a7.428,7.428,0,0,1-.687,1.362,16.859,16.859,0,0,1,1.4,1.371l-.78.827c-.422-.458-.824-.926-1.281-1.34a6.744,6.744,0,0,1-2.443,1.74l-.839-.835A5.988,5.988,0,0,0,54,22.421c-.478-.312-.965-.613-1.46-.88.229-.313.43-.657.629-.994a12.176,12.176,0,0,1,1.462.994,6.557,6.557,0,0,0,.544-1.406l-3.314.011v-.969c2.214,0,4.428-.023,6.643-.047a7.954,7.954,0,0,0-.125,1.417,3.707,3.707,0,0,0,1.795,3.512Z" transform="translate(-10.737 -3.055)" fill="#fff"/>
          <path id="パス_506" data-name="パス 506" d="M67.138,16.881v6.278h-.973V16.814c-.145.379-.278.757-.439,1.125v7.126h-1.06V19.826a4.527,4.527,0,0,1-.593.836l-.659-.825a12.069,12.069,0,0,0,2.043-5.04l1.184.49a.208.208,0,0,1,.134.188.173.173,0,0,1-.21.156l-.287.838.908.122a.123.123,0,0,1,.1.123.186.186,0,0,1-.151.168M71.985,25.2a5.309,5.309,0,0,1-2.339-2.466,4.361,4.361,0,0,1-2.339,2.33l-.638-.736a3.826,3.826,0,0,0,2.243-2.3H67.306v-.96h1.787c.019-.245.019-.5.019-.746v-.269h-.639a4.227,4.227,0,0,1-.555.924l-.744-.488a7.028,7.028,0,0,0,.87-2.165h-.687v-.914h2.72l.028-1.06-2.4.022v-.99H71.22c-.018.668-.054,1.336-.075,2.007h1.107v.936H68.778l.372.178a.076.076,0,0,1,.056.07c0,.1-.1.133-.17.133l-.164.378h3.063v.971H70.19c-.009.335-.009.681-.028,1.015H72.4v.96H70.372a4.186,4.186,0,0,0,2.318,2.208Z" transform="translate(-13.248 -3.091)" fill="#fff"/>
          <path id="パス_507" data-name="パス 507" d="M79.549,17.952a6.454,6.454,0,0,1-1.556,1.942l-.811-.67a5.045,5.045,0,0,0,1.526-2.1l.955.57a.133.133,0,0,1,.067.1c0,.089-.115.188-.181.156m5.525,7.092a9.794,9.794,0,0,1-3.292-1.259,10.39,10.39,0,0,1-3.77,1.282l-.687-.97a7.032,7.032,0,0,0,3.558-1.026,6.252,6.252,0,0,1-.878-.914,6.458,6.458,0,0,1-1.677,1.115l-.688-.77a5.872,5.872,0,0,0,2.882-2.687l.953.433c.039.025.1.059.1.125,0,.088-.105.11-.163.11l-.142.157h2.948v.646a7.545,7.545,0,0,1-1.546,1.772,9.036,9.036,0,0,0,3.09.859Zm-2.061-8.105c0,.657.009,1.3.009,1.963a1.3,1.3,0,0,1-1.115,1.451l-.773-.805c.561-.154.819-.188.819-.949v-1.66h-.6a4.267,4.267,0,0,1-1.214,3.077,3.282,3.282,0,0,1-.858.647l-.755-.736a5.01,5.01,0,0,0,.755-.49,2.98,2.98,0,0,0,.964-2.5H77.477v-1h3.417V14.7l1.183.1a.147.147,0,0,1,.152.136.229.229,0,0,1-.163.19v.813h3.561v1Zm-2.349,4.5a5.467,5.467,0,0,0,1.079,1.06,4.244,4.244,0,0,0,.916-1.06Zm4.419-1.3a9.8,9.8,0,0,1-1.728-2.274l.937-.68A6.947,6.947,0,0,0,85.915,19.3Z" transform="translate(-16.125 -3.07)" fill="#fff"/>
          <path id="パス_508" data-name="パス 508" d="M98.684,22.322c-.1,1.572-.382,2.307-1.8,2.6l-.611-.959c.923-.144,1.3-.524,1.356-1.638.066-1.25.074-2.522.074-3.77h-.514c-.134,2.364-.431,4.928-2.166,6.458l-.86-.682a3.512,3.512,0,0,0,.6-.568c-1.251.267-2.52.457-3.781.691-.009.079-.056.167-.133.167-.049,0-.085-.055-.1-.1L90.326,23.4c.7-.089,1.422-.145,2.126-.245V22.6H90.583v-.834h1.869v-.4H90.8v-3.21h1.652v-.4H90.495V16.87h1.958v-.513c-.535.04-1.058.088-1.592.1l-.354-.916c.3,0,.6-.021.9-.044a8.956,8.956,0,0,0,3.13-.6,8.8,8.8,0,0,1,.755,1.036.128.128,0,0,1-.133.133A.365.365,0,0,1,94.982,16a13.6,13.6,0,0,1-1.5.267v.58h1.736v.716h.914c.031-.883.039-1.752.05-2.631l1.115.131c.077.013.21.057.21.18a.3.3,0,0,1-.15.222c-.03.694-.051,1.395-.1,2.087h1.545c-.017,1.594-.017,3.188-.123,4.774m-6.231-3.448h-.7v.559h.7Zm.009,1.272h-.714v.523h.714Zm1.633-1.272h-.649v.559h.649Zm.009,1.272h-.659v.523H94.1Zm1.077-1.595v-.8H93.455v.4h1.6v3.21h-1.6v.4h1.622v.813H93.455v.5c.535-.078,1.057-.156,1.594-.246l-.085.667c.973-1.347,1.086-3.253,1.154-4.948Z" transform="translate(-18.871 -3.112)" fill="#fff"/>
          <path id="パス_509" data-name="パス 509" d="M57.383,40.663a5.159,5.159,0,0,0,2.6,1.7l-.7.981a9.292,9.292,0,0,1-2.816-1.907l.831-.77H54.225a6.56,6.56,0,0,1,.848.825c0,.1-.144.124-.209.113a7.636,7.636,0,0,1-2.586,1.717l-.63-.848a5.191,5.191,0,0,0,2.415-1.807H51.524v-1H60.1v1Zm-4.5-7.181H58.8v5.675H52.879Zm4.867.948H53.908v.7h3.838Zm0,1.584H53.908v.671h3.838Zm0,1.562H53.908v.7h3.838Z" transform="translate(-10.764 -6.995)" fill="#fff"/>
          <path id="パス_510" data-name="パス 510" d="M71.972,41.189a8.015,8.015,0,0,1-.973-1.2v.9H69.814V43.04H68.758V40.888H67.573v-.859a5.654,5.654,0,0,1-.926,1.115l-.657-.69v2.52H64.92V37.665a5.272,5.272,0,0,1-.754,1.006l-.658-.815a11.307,11.307,0,0,0,2.29-5.008l1.176.556a.17.17,0,0,1,.094.144c0,.112-.142.168-.219.168a18.628,18.628,0,0,1-.858,2.141v4.406a10.246,10.246,0,0,0,2.384-4.17H66.505V35.034h2.176V32.893l1.124.079a.143.143,0,0,1,.153.135.221.221,0,0,1-.161.187v1.74h2.577V36.1H70.122a10.347,10.347,0,0,0,2.72,4.147Zm-4.3-1.282h1.1l.012-2.2a8.765,8.765,0,0,1-1.109,2.2M69.8,37.7l.009,2.208h1.137A10.615,10.615,0,0,1,69.8,37.7" transform="translate(-13.268 -6.863)" fill="#fff"/>
          <path id="パス_511" data-name="パス 511" d="M85.1,37.49c-.009.479,0,.958-.019,1.428-.077,2.084-.162,3.824-2.271,4.224l-.716-.958a1.925,1.925,0,0,0,1.842-1.762,8.587,8.587,0,0,0,.077-1.093c.009-.256,0-.5,0-.759,0-.838.009-1.661.009-2.5h-1.8a7.688,7.688,0,0,1-.925,1.618l-.526-.48v5.162h-3.56V35.114H78.3c.192-.657.364-1.326.5-2.008l1.233.346c.067.02.164.068.164.167s-.156.178-.223.188c-.208.447-.428.882-.675,1.306h1.476V36.62a10.192,10.192,0,0,0,1.156-3.6l1.116.479a.21.21,0,0,1,.134.168c0,.1-.113.133-.18.133-.153.425-.29.858-.469,1.26h2.586Zm-5.352-1.472h-1.51v2.02h1.51Zm0,2.979h-1.51v2.395h1.51Zm3.081,1.112a19.946,19.946,0,0,0-1.4-1.77l.83-.849a14.8,14.8,0,0,1,1.326,1.918Z" transform="translate(-16.132 -6.898)" fill="#fff"/>
          <path id="パス_512" data-name="パス 512" d="M94.306,35.916c-.468.134-.926.244-1.393.335a23.122,23.122,0,0,1-2.08,5.229c-.353-.178-.706-.388-1.051-.6a18.2,18.2,0,0,0,1.908-4.495,9.979,9.979,0,0,1-1.42.123c-.047-.391-.106-.782-.153-1.183a3.811,3.811,0,0,0,.524.024,8.884,8.884,0,0,0,1.326-.09,11.853,11.853,0,0,0,.258-1.929c.449.066.887.123,1.326.222-.112.515-.225,1.039-.381,1.551a10.987,10.987,0,0,0,1.147-.378c0,.389-.011.791-.011,1.192m2.634,6.6a8.473,8.473,0,0,0-1.306-1.149c.009.123.009.248.009.368,0,1.149-.735,1.462-1.594,1.462a2.838,2.838,0,0,1-.906-.146,1.778,1.778,0,0,1-1.183-1.585,1.592,1.592,0,0,1,1.679-1.692,4.671,4.671,0,0,1,.782.066c-.029-.525-.068-1.051-.068-1.573a2.273,2.273,0,0,1,.118-.76h.858c.059,0,.334-.042.334.091,0,.022,0,.034-.011.044a1.423,1.423,0,0,0-.17.681c0,.592.037,1.172.087,1.762a7.187,7.187,0,0,1,2.069,1.328,12.457,12.457,0,0,1-.7,1.1m-2.433-1.607a1.609,1.609,0,0,0-.686-.123c-.365,0-.813.112-.813.637s.553.748.926.748c.351,0,.612-.078.612-.557,0-.235-.023-.47-.04-.7m2.528-3.4a5.9,5.9,0,0,0-2.319-1.281l.553-1.115A5.884,5.884,0,0,1,97.647,36.4Z" transform="translate(-18.757 -6.963)" fill="#fff"/>
          <path id="パス_513" data-name="パス 513" d="M106.1,42.454a17.8,17.8,0,0,0-1.335-1.942,7.34,7.34,0,0,1-2.091,2.631l-.822-.767a5.944,5.944,0,0,0,2.159-2.666,10.182,10.182,0,0,0-1.652-1.827L103,36.867a13.681,13.681,0,0,1,1.46,1.74,11.977,11.977,0,0,0,.431-2.4h-2.731V35.24h1.745V33.287l1.186.09a.144.144,0,0,1,.15.133c0,.089-.093.145-.15.168V35.24H106.4v.969h-.714c.095.044.447.156.447.3a.121.121,0,0,1-.1.112,14.011,14.011,0,0,1-.754,2.876,18.689,18.689,0,0,1,1.538,2.088Zm1.318-2.13A20.3,20.3,0,0,0,106.1,38.34l.9-.771a17.875,17.875,0,0,1,1.154,2.054Zm2.126-3.467v3.857c0,1.806-.2,2.4-1.793,2.755l-.688-1.013c1.3-.19,1.348-.658,1.348-2.062V36.856h-1.795V35.807h1.775v-2.52l1.164.09c.057,0,.153.055.153.133s-.1.145-.153.168v2.13h1.156v1.049Z" transform="translate(-21.278 -6.954)" fill="#fff"/>
          <path id="パス_514" data-name="パス 514" d="M122.922,43.128a7.439,7.439,0,0,1-3.141-2.342v2.689h-1.1V40.742a7.223,7.223,0,0,1-3.18,2.307l-.665-.825a7.485,7.485,0,0,0,3.845-3.144v-.244h-1.738v2h-1.04V37.987h2.778V37.5h-3.608v-.916h3.58v-.813l.609.065-.459-.255A6.009,6.009,0,0,0,120.06,33l1,.212c.1.023.24.044.24.2,0,.1-.127.169-.192.191-.066.18-.142.358-.219.536h2.528v.834h-1.2c-.123.369-.238.748-.374,1.116l-.828-.076.085-1.04h-.679a5.2,5.2,0,0,1-.647.906c.077.023.18.079.18.188,0,.089-.113.167-.172.2v.311h3.552V37.5h-3.56v.49h3.034v1.627c0,.96-.449,1.239-1.183,1.417l-.62-.714c.831-.278.706-.6.706-1.482h-1.937v.256a5.526,5.526,0,0,0,1.6,1.872,6.866,6.866,0,0,0,2.262,1.149Zm-4.668-8.173c.039.3.086.6.123.9-.275.078-.543.168-.82.245-.134-.38-.237-.769-.362-1.148h-.381a6.461,6.461,0,0,1-1.156,1.37l-.8-.579a6.166,6.166,0,0,0,1.677-2.755l1.1.267c.066.025.151.066.151.169,0,.123-.123.191-.207.225-.078.167-.164.331-.258.49h1.85v.814Z" transform="translate(-23.992 -6.892)" fill="#fff"/>
          <path id="パス_515" data-name="パス 515" d="M135.345,38.71a.269.269,0,0,1-.145-.055c-.685.233-2.012.757-2.643,1.046v1.718l-1.125-.011c.01-.156.01-.323.01-.511v-.626c-.763.357-1.145.814-1.145,1.327,0,.445.439.68,1.305.68a8.463,8.463,0,0,0,2.778-.445l-.039,1.3a7.772,7.772,0,0,1-2.394.323c-1.871,0-2.807-.59-2.807-1.783a2.2,2.2,0,0,1,.783-1.605,6.907,6.907,0,0,1,1.451-.96c-.02-.5-.172-.759-.449-.759a1.389,1.389,0,0,0-.981.425,8.909,8.909,0,0,0-.736.757c-.353.391-.572.658-.706.791-.172-.2-.439-.5-.793-.913a8.072,8.072,0,0,0,2.406-3.021c-.506.066-1.07.11-1.679.144-.04-.423-.1-.814-.153-1.159a16.478,16.478,0,0,0,2.186-.112,9.11,9.11,0,0,0,.324-1.539l1.288.29a.134.134,0,0,1,.113.135c0,.066-.047.124-.151.167-.047.189-.134.479-.257.859a15.25,15.25,0,0,0,1.784-.414l-.1,1.227c-.526.111-1.232.222-2.11.347a6.885,6.885,0,0,1-.592,1.112,1.918,1.918,0,0,1,.545-.075c.581,0,.962.388,1.134,1.191.763-.4,1.633-.812,2.577-1.236l.438,1.248c0,.088-.038.134-.114.134" transform="translate(-26.681 -7.046)" fill="#fff"/>
          <path id="パス_516" data-name="パス 516" d="M106.141,24.756c-.35.036-.7.082-1.054.127a14.811,14.811,0,0,1-.5-4.383,28.237,28.237,0,0,1,.5-4.932l.839.2a2.534,2.534,0,0,1,.415.107.142.142,0,0,1,.108.15.158.158,0,0,1-.155.152,22.721,22.721,0,0,0-.56,5.117c0,.419.019.827.019,1.248.173-.525.339-1.06.521-1.584.242.221.485.452.724.675a10.911,10.911,0,0,0-.857,3.129m6.136-.545a7.791,7.791,0,0,1-1.763.1c-1.38-.044-2.667-.267-2.834-2.38.325-.245.651-.5.985-.739,0,1.2.561,1.74,1.46,1.768A6.115,6.115,0,0,0,112.3,22.7c-.008.5-.015,1-.024,1.516m-.35-6.235a7.509,7.509,0,0,0-2.237-.139,10.285,10.285,0,0,0-1.546.271c-.041-.415-.069-.932-.119-1.347a11.719,11.719,0,0,1,2.189-.263,8.015,8.015,0,0,1,1.823.089c-.036.46-.062.929-.11,1.389" transform="translate(-21.85 -3.252)" fill="#fff"/>
        </g>
      </g>
    </g>
  </g>
</svg>
