<svg id="グループ_265" data-name="グループ 265" xmlns="http://www.w3.org/2000/svg" xmlns:xlink="http://www.w3.org/1999/xlink" width="130" height="130" viewBox="0 0 130 130">
  <defs>
    <clipPath id="clip-path">
      <rect id="長方形_408" data-name="長方形 408" width="130" height="130" fill="none"/>
    </clipPath>
  </defs>
  <rect id="長方形_407" data-name="長方形 407" width="130" height="130" fill="#ffad00"/>
  <path id="パス_457" data-name="パス 457" d="M20.217,17.9H13.485V14.294H24.838v3.091l-5.233,21.7h-4.59Z" transform="translate(-2.817 -2.986)" fill="#fff"/>
  <g id="グループ_264" data-name="グループ 264">
    <g id="グループ_263" data-name="グループ 263" clip-path="url(#clip-path)">
      <path id="パス_458" data-name="パス 458" d="M77.172,80.062A19.142,19.142,0,1,0,96.31,99.2a19.14,19.14,0,0,0-19.139-19.14m-1.417,7.561a1.424,1.424,0,0,1,2.842,0V94.2a1.424,1.424,0,0,1-2.842,0Zm1.42,21.388a9.957,9.957,0,0,1-2.959-19.464v3.707a6.517,6.517,0,1,0,5.9-.009v-3.7a9.957,9.957,0,0,1-2.942,19.469" transform="translate(-12.124 -16.726)" fill="#fff"/>
      <path id="パス_459" data-name="パス 459" d="M51.458,103.631a1.6,1.6,0,0,0-1.471-1.571H41.605a1.577,1.577,0,0,0,0,3.149h8.382a1.605,1.605,0,0,0,1.471-1.577" transform="translate(-8.382 -21.322)" fill="#fff"/>
      <path id="パス_460" data-name="パス 460" d="M121.347,103.631a1.6,1.6,0,0,0-1.471-1.571h-8.382a1.577,1.577,0,0,0,0,3.149h8.382a1.605,1.605,0,0,0,1.471-1.577" transform="translate(-22.984 -21.322)" fill="#fff"/>
      <path id="パス_461" data-name="パス 461" d="M81.819,143.164a1.6,1.6,0,0,0,1.57-1.471v-8.382a1.577,1.577,0,0,0-3.149,0v8.382a1.607,1.607,0,0,0,1.578,1.471" transform="translate(-16.764 -27.542)" fill="#fff"/>
      <path id="パス_462" data-name="パス 462" d="M116.13,123.267a1.6,1.6,0,0,0-.5-2.094l-7.275-4.163a1.577,1.577,0,0,0-1.564,2.732l7.275,4.163a1.605,1.605,0,0,0,2.06-.638" transform="translate(-22.165 -24.412)" fill="#fff"/>
      <path id="パス_463" data-name="パス 463" d="M61.109,137.947a1.6,1.6,0,0,0,2.093-.5l4.163-7.274a1.577,1.577,0,0,0-2.732-1.565l-4.163,7.275a1.606,1.606,0,0,0,.638,2.061" transform="translate(-12.6 -26.723)" fill="#fff"/>
      <path id="パス_464" data-name="パス 464" d="M101.524,137.9a1.6,1.6,0,0,0,.63-2.058l-4.178-7.266a1.576,1.576,0,0,0-2.728,1.57l4.177,7.266a1.6,1.6,0,0,0,2.1.488" transform="translate(-19.865 -26.716)" fill="#fff"/>
      <path id="パス_465" data-name="パス 465" d="M45.678,123.343a1.6,1.6,0,0,0,2.058.628L55,119.793a1.576,1.576,0,0,0-1.568-2.728l-7.266,4.178a1.606,1.606,0,0,0-.489,2.1" transform="translate(-9.501 -24.423)" fill="#fff"/>
      <path id="パス_466" data-name="パス 466" d="M81.819,73.277a1.6,1.6,0,0,0,1.57-1.47V63.424a1.577,1.577,0,0,0-3.149,0v8.383a1.607,1.607,0,0,0,1.578,1.47" transform="translate(-16.764 -12.941)" fill="#fff"/>
      <path id="パス_467" data-name="パス 467" d="M55.473,88.553a1.6,1.6,0,0,0-.5-2.094L47.7,82.3a1.577,1.577,0,0,0-1.563,2.732l7.275,4.163a1.6,1.6,0,0,0,2.059-.638" transform="translate(-9.493 -17.159)" fill="#fff"/>
      <path id="パス_468" data-name="パス 468" d="M95.823,77.291a1.6,1.6,0,0,0,2.093-.5l4.163-7.275a1.577,1.577,0,0,0-2.732-1.564l-4.163,7.274a1.6,1.6,0,0,0,.638,2.061" transform="translate(-19.853 -14.051)" fill="#fff"/>
      <path id="パス_469" data-name="パス 469" d="M66.686,77.318a1.6,1.6,0,0,0,.628-2.058l-4.178-7.266a1.577,1.577,0,0,0-2.728,1.57l4.178,7.265a1.606,1.606,0,0,0,2.1.49" transform="translate(-12.586 -14.059)" fill="#fff"/>
      <path id="パス_470" data-name="パス 470" d="M106.263,88.5a1.6,1.6,0,0,0,2.058.629l7.265-4.178a1.577,1.577,0,0,0-1.568-2.729L106.752,86.4a1.6,1.6,0,0,0-.489,2.1" transform="translate(-22.158 -17.144)" fill="#fff"/>
      <path id="パス_471" data-name="パス 471" d="M40.643,24.951V23.66h2.8v-4.87H41.113V17.5h5.843v1.291h-2.34v4.87H47.46v1.29Z" transform="translate(-8.491 -3.656)" fill="#fff"/>
      <path id="パス_472" data-name="パス 472" d="M54.934,20.493v1.35c0,1.023.008,2.05.008,3.065H53.831c0-1.116,0-2.229.009-3.338a7.974,7.974,0,0,1-2.22,1.532,10.111,10.111,0,0,0-.807-1.137,7.1,7.1,0,0,0,4.033-3.77c-1.006.011-2.016.124-3.024.185-.02-.483-.036-.954-.062-1.435,1.3,0,2.6-.009,3.9-.075a2.294,2.294,0,0,0,.57-.085l.326.642a24.077,24.077,0,0,1-1.624,3.067m-.394-3.9a10.317,10.317,0,0,0-1.746-1.325c.195-.37.379-.725.571-1.1a10.253,10.253,0,0,1,1.869,1.348c-.222.371-.449.728-.695,1.074m2.631,6.389A11.3,11.3,0,0,0,55.312,20.8l.641-.986a8.669,8.669,0,0,1,1.98,2.05Z" transform="translate(-10.616 -2.96)" fill="#fff"/>
      <path id="パス_473" data-name="パス 473" d="M63.408,17.386c-.054,2.577.227,4.968-1.027,7.108a4.262,4.262,0,0,1-.849,1.051c-.282-.252-.7-.641-.914-.839,1.378-1.214,1.659-2.763,1.659-4.956,0-.925-.019-1.9-.036-2.828l1.167.15a.113.113,0,0,1,.1.127.278.278,0,0,1-.1.187m3.246,6.938a15.124,15.124,0,0,1-1.464.938,6.716,6.716,0,0,1-.692-.652A2.4,2.4,0,0,0,64.585,24v-1.54c0-1.927-.026-3.891-.054-5.818l1.221.2a.14.14,0,0,1,.1.15.279.279,0,0,1-.131.213c-.017.537-.01,1.063-.01,1.6,0,1.515-.017,3.067-.043,4.58a8,8,0,0,0,2.026-1.863c.184-.225.35-.49.526-.739.019-.025.036-.063.062-.063.044,0,.044.126.044.152.036.525.1,1.024.168,1.537a9.68,9.68,0,0,1-1.834,1.917" transform="translate(-12.664 -3.476)" fill="#fff"/>
      <path id="パス_474" data-name="パス 474" d="M76.512,21.86c.055,1.134.1,2.255.176,3.391-.377.038-.754.052-1.131.1-.039-1.147-.1-2.28-.127-3.425-.991.034-1.973.07-2.957.141q-.013-.636-.027-1.275c.225.017.448.021.677.028.752.017,1.5-.049,2.245-.067-.029-.661-.051-1.308-.093-1.97-.675.006-1.342.047-2.018.081-.009-.424-.044-.863-.063-1.289.658.016,1.326.008,1.993-.022-.039-.709-.086-1.406-.142-2.116l1.2.146a.178.178,0,0,1,.145.181.253.253,0,0,1-.146.221c.009.518.027,1.028.031,1.547a20.517,20.517,0,0,0,2.117-.163c-.009.451,0,.885-.008,1.322-.683,0-1.367,0-2.044.022.031.648.052,1.3.091,1.951.941-.038,1.888-.1,2.829-.192.01.437-.009.873,0,1.3-.913-.011-1.836.051-2.748.088M77.805,16.9a18.923,18.923,0,0,0-.581-1.982l.834-.35a17.891,17.891,0,0,1,.523,1.888Zm1.367-.3a20.138,20.138,0,0,0-.572-2.035l.8-.32a13.933,13.933,0,0,1,.539,1.884Z" transform="translate(-15.136 -2.977)" fill="#fff"/>
      <path id="パス_475" data-name="パス 475" d="M89.974,22.625c-.534-.034-.956-.034-1.388-.034-.5-.013-3.917,0-5.109.047-.019-.459-.045-1.043-.054-1.386-.012-.172.065-.183.122-.172a4.078,4.078,0,0,0,.543.08c.572.034,1.18.025,1.838.025,1.361,0,2.574-.037,4.1-.058-.03.458-.038,1.039-.049,1.5" transform="translate(-17.429 -4.403)" fill="#fff"/>
      <path id="パス_476" data-name="パス 476" d="M100.575,20.543a.194.194,0,0,1-.121-.057c-.583.239-1.706.779-2.241,1.077v1.767l-.956-.01c.009-.162.009-.333.009-.529v-.643a1.611,1.611,0,0,0-.972,1.365c0,.46.372.7,1.11.7a6.034,6.034,0,0,0,2.355-.457L99.725,25.1a5.559,5.559,0,0,1-2.031.335c-1.585,0-2.378-.61-2.378-1.839a2.479,2.479,0,0,1,.663-1.651,5.763,5.763,0,0,1,1.231-.985c-.018-.518-.148-.782-.381-.782a1.091,1.091,0,0,0-.834.437,8.779,8.779,0,0,0-.626.779c-.3.4-.485.677-.6.816-.146-.208-.373-.518-.672-.942a8.233,8.233,0,0,0,2.037-3.107c-.427.066-.9.113-1.422.147-.032-.437-.081-.839-.13-1.193A11.471,11.471,0,0,0,96.441,17a11.479,11.479,0,0,0,.275-1.582l1.092.3a.137.137,0,0,1,.1.137.192.192,0,0,1-.13.171c-.04.2-.114.5-.218.886a11.215,11.215,0,0,0,1.514-.426l-.091,1.26c-.445.117-1.043.231-1.789.357a7.464,7.464,0,0,1-.5,1.146,1.374,1.374,0,0,1,.462-.077c.493,0,.817.4.963,1.225.647-.411,1.384-.838,2.186-1.273l.373,1.284c0,.092-.032.138-.1.138" transform="translate(-19.66 -3.22)" fill="#fff"/>
      <path id="パス_477" data-name="パス 477" d="M110.888,23.737a13.022,13.022,0,0,0-1.1-1.032A6.329,6.329,0,0,1,108,25.615l-.842-.712a5.139,5.139,0,0,0,1.759-2.766,5.291,5.291,0,0,0-1.541-.739c-.131.405-.261.814-.422,1.2-.377.956-.9,1.925-1.771,1.9-.72-.019-1.2-.845-1.18-1.846a2.5,2.5,0,0,1,1.642-2.416,3.071,3.071,0,0,1,1.049-.083c.2-.808.518-1.945.725-2.8l-1.8.128-.128-1.259.093.009a11.087,11.087,0,0,0,2.948-.144c.094.207.21.408.321.609a18.231,18.231,0,0,0-.693,1.936c-.156.553-.3,1.108-.472,1.647a5.36,5.36,0,0,1,1.535.642,12.922,12.922,0,0,0,.334-2.411c.326.287.649.564.955.873a15.425,15.425,0,0,1-.357,2.1,10.586,10.586,0,0,1,1.24.914c-.162.445-.329.9-.507,1.344m-5.915-1.12c-.007.3.081.573.315.577a.413.413,0,0,0,.363-.206,6.982,6.982,0,0,0,.738-1.76,1.4,1.4,0,0,0-1.416,1.389" transform="translate(-21.729 -3.361)" fill="#fff"/>
      <path id="パス_478" data-name="パス 478" d="M119.493,25.214c-1.153,0-1.068-1.36-1.068-2.425V21.731c0-.311.007-.689-.315-.686a.78.78,0,0,0-.231.044c-1.3.428-1.795,2.673-2.2,4.087-.346-.21-.686-.42-1.025-.629.356-1.1.755-2.17,1.162-3.25.457-1.2.908-2.414,1.376-3.614.258-.669.5-1.35.781-2a10.371,10.371,0,0,1,1.092.616.125.125,0,0,1,.06.11.149.149,0,0,1-.148.147c-.579,1.126-1.1,2.315-1.627,3.473-.052.112-.1.214-.155.314a2.276,2.276,0,0,1,1.152-.429c.842,0,1.1.719,1.1,1.683,0,.579-.009,1.146-.008,1.725,0,.288.037.685.331.684a1.434,1.434,0,0,0,.975-.6,5.533,5.533,0,0,0,.763-1.359c.139.531.278,1.054.4,1.587a2.638,2.638,0,0,1-2.417,1.588" transform="translate(-23.953 -3.275)" fill="#fff"/>
      <path id="パス_479" data-name="パス 479" d="M129.191,18.085c-.426.078-.784.136-1.2.173a22.383,22.383,0,0,1-1.9,4.929c-.306-.187-.608-.4-.9-.623a19.906,19.906,0,0,0,1.774-4.309,9.977,9.977,0,0,1-1.375-.033c0-.382,0-.767.009-1.16a3.362,3.362,0,0,0,.457.079,7.1,7.1,0,0,0,1.175.054,11.216,11.216,0,0,0,.265-1.749c.462,0,.877.04,1.2.064a13.187,13.187,0,0,1-.4,1.664,8.27,8.27,0,0,0,1.051-.244c-.047.378-.1.766-.153,1.156m2.492,6.8a8.182,8.182,0,0,0-1.11-1.254c0,.127-.011.25-.021.373a1.3,1.3,0,0,1-1.572,1.365,2.3,2.3,0,0,1-.82-.215,1.786,1.786,0,0,1-.964-1.683,1.537,1.537,0,0,1,1.668-1.595,4.093,4.093,0,0,1,.714.123c.013-.533-.062-1.056-.037-1.584a2.482,2.482,0,0,1,.141-.765l.79.036c.052,0,.309-.033.3.1,0,.025,0,.036-.011.044a1.53,1.53,0,0,0-.188.683c-.028.6.034,1.213.033,1.815a6.576,6.576,0,0,1,1.8,1.49,12.2,12.2,0,0,1-.722,1.066m-2.11-1.8a1.326,1.326,0,0,0-.618-.172c-.334-.026-.754.055-.793.585a.817.817,0,0,0,.792.822c.327.027.566-.036.6-.519.017-.238.019-.475.016-.716m2.418-3.873a4.537,4.537,0,0,0-2.05-1.026l.49-1.087a4.612,4.612,0,0,1,2.1,1.027Z" transform="translate(-26.153 -3.227)" fill="#fff"/>
      <path id="パス_480" data-name="パス 480" d="M56.037,42.973a3.417,3.417,0,0,1-2.17.759c-1.162,0-1.892-.9-1.957-2.49-.015-.214-.008-.426-.008-.637,0-.6.008-1.206.024-1.82.025-1.442.041-2.9.058-4.338.254.045.515.1.771.169a1.367,1.367,0,0,1,.32.078c.063.033.145.078.145.177a.227.227,0,0,1-.122.189c-.1,1.946-.171,3.911-.171,5.856,0,.993.328,1.6,1.089,1.6a2,2,0,0,0,1.039-.324A4.527,4.527,0,0,0,56.7,39.857l.6,1.452a5.308,5.308,0,0,1-1.259,1.664" transform="translate(-10.843 -7.197)" fill="#fff"/>
      <path id="パス_481" data-name="パス 481" d="M65.858,36.107c-.032,0-.067-.014-.1-.017a2.454,2.454,0,0,0-1.107.188,4,4,0,0,0-1.881,3.479c-.082,2.312,1.4,2.643,2.652,2.694-.078.433-.156.878-.257,1.309L65,43.755a3.942,3.942,0,0,1-1.707-.475,4.176,4.176,0,0,1-1.637-3.62,6.064,6.064,0,0,1,1.064-3.372c-.941.079-1.886.195-2.818.354,0-.447-.017-.89-.01-1.329a35.985,35.985,0,0,0,4.841-.412,9.322,9.322,0,0,0,1.126-.27c.018.172.116,1.28.113,1.369a.1.1,0,0,1-.112.108" transform="translate(-12.512 -7.235)" fill="#fff"/>
      <path id="パス_482" data-name="パス 482" d="M76.415,36.812c-.133.446-.247.907-.4,1.339a11.363,11.363,0,0,1-2.1,3.906,7.817,7.817,0,0,1-2.323,1.86c-.29-.362-.6-.72-.9-1.055a8.2,8.2,0,0,0,1.359-.8,7.754,7.754,0,0,0,1.48-1.5,10.389,10.389,0,0,0,1.588-3.569l-1.947.037a11.818,11.818,0,0,1-1.868,2.751c-.263-.308-.524-.63-.806-.918a11.06,11.06,0,0,0,2.57-5l1.1.511a.188.188,0,0,1,.105.173.162.162,0,0,1-.159.161c-.123.334-.227.681-.375.992.7,0,1.4-.013,2.1-.013a1.468,1.468,0,0,0,.449-.06c.1.209.219.4.316.609-.061.195-.132.394-.191.579" transform="translate(-14.73 -7.074)" fill="#fff"/>
      <path id="パス_483" data-name="パス 483" d="M82.47,35.41v.468c0,1.494,0,3,.008,4.495H81.295c.009-.278.019-.559.019-.825V37.9c0-.981-.01-1.963-.046-2.933l1.252.133a.1.1,0,0,1,.087.1.271.271,0,0,1-.138.21m3.5.014c0,.678.018,1.347.018,2.028,0,1.963-.036,3.859-1.07,5.452A4.037,4.037,0,0,1,83.758,44.1a10.527,10.527,0,0,0-.972-.77,4.805,4.805,0,0,0,1.1-1.07,7.16,7.16,0,0,0,.921-4.294c0-1.026-.052-2.052-.105-3.065l1.245.144a.161.161,0,0,1,.149.156.3.3,0,0,1-.131.225" transform="translate(-16.978 -7.291)" fill="#fff"/>
      <path id="パス_484" data-name="パス 484" d="M96.313,40.716c-.531-.034-.951-.034-1.377-.034-.5-.009-3.8,0-4.985.047-.018-.447-.048-1.014-.057-1.35-.009-.167.068-.18.123-.167a4.59,4.59,0,0,0,.539.078c.569.032,1.679.022,2.329.022,1.353,0,1.965-.034,3.473-.056-.028.445-.036,1.017-.045,1.46" transform="translate(-18.78 -8.191)" fill="#fff"/>
      <path id="パス_485" data-name="パス 485" d="M102.315,42.764a6.118,6.118,0,0,1-1.437.646c-.049-.144-.561-1.494-.561-1.494,0-.047.04-.047.063-.047a1.219,1.219,0,0,0,.352-.061,7.53,7.53,0,0,0,2.6-1.411,15.8,15.8,0,0,0,3.042-3.171c.068.588.147,1.172.222,1.762a14.427,14.427,0,0,1-4.285,3.777m-.188-4.831a12.42,12.42,0,0,0-1.632-2.228c.32-.335.62-.692.931-1.04A11.1,11.1,0,0,1,103,36.855a7.873,7.873,0,0,1-.873,1.078" transform="translate(-20.958 -7.242)" fill="#fff"/>
      <path id="パス_486" data-name="パス 486" d="M112.577,43.522c-.314.035-.627.081-.95.127a16.319,16.319,0,0,1-.452-4.383,31.237,31.237,0,0,1,.452-4.933l.757.2a2.406,2.406,0,0,1,.374.106.143.143,0,0,1,.1.152.149.149,0,0,1-.139.15,25,25,0,0,0-.506,5.118c0,.419.017.827.017,1.248.156-.525.305-1.059.471-1.585.217.223.437.454.652.675a11.9,11.9,0,0,0-.774,3.13m5.538-.547a6.326,6.326,0,0,1-1.592.1c-1.244-.044-2.406-.267-2.558-2.379.293-.246.587-.506.889-.74,0,1.2.506,1.74,1.317,1.767a5.006,5.006,0,0,0,1.963-.263c-.006.5-.013,1-.02,1.516m-.317-6.233a6.152,6.152,0,0,0-2.019-.141,8.347,8.347,0,0,0-1.4.273c-.036-.417-.061-.933-.106-1.348a9.706,9.706,0,0,1,1.975-.264,6.494,6.494,0,0,1,1.645.092c-.032.457-.055.926-.1,1.388" transform="translate(-23.227 -7.173)" fill="#fff"/>
      <path id="パス_487" data-name="パス 487" d="M138.019,25.17c-.306.036-.61.08-.925.126a16.678,16.678,0,0,1-.441-4.369,31.8,31.8,0,0,1,.441-4.919l.737.2a2.135,2.135,0,0,1,.364.106.143.143,0,0,1,.1.15.149.149,0,0,1-.136.15,25.515,25.515,0,0,0-.493,5.1c0,.418.017.824.017,1.243.153-.523.3-1.055.458-1.579.211.222.426.452.634.673a12.123,12.123,0,0,0-.752,3.121m5.481-.677a5.965,5.965,0,0,1-1.549.1c-1.212-.041-2.342-.264-2.49-2.372.286-.244.571-.5.865-.736,0,1.2.494,1.734,1.282,1.763a4.761,4.761,0,0,0,1.91-.263c-.006.5-.013,1-.018,1.512m-.309-6.216a5.832,5.832,0,0,0-1.965-.139,7.933,7.933,0,0,0-1.357.271c-.036-.416-.059-.931-.1-1.346a9.308,9.308,0,0,1,1.922-.263,6.256,6.256,0,0,1,1.6.092c-.03.457-.054.924-.1,1.384" transform="translate(-28.55 -3.344)" fill="#fff"/>
      <path id="パス_488" data-name="パス 488" d="M44.431,38.926a2.646,2.646,0,0,0-.719,2.325c.177,1.051,1.354,1.167,1.97,1.154.195,0,.4-.021.6-.044-.088.408-.189.808-.275,1.209l-.18,0c-1.2.025-2.929-.171-3.122-2.171a3.876,3.876,0,0,1,.653-2.78,16.71,16.71,0,0,0-2.974.812c-.063-.407-.155-.807-.237-1.2a7.117,7.117,0,0,0,1.573-.441,11.735,11.735,0,0,0,2.023-2.282,12.449,12.449,0,0,1-1.794.089c0-.377-.014-.757-.044-1.129a10.386,10.386,0,0,0,2.7-.074,2.533,2.533,0,0,0,.673-.276c.18.335.358.682.517,1.026a24.321,24.321,0,0,0-2.541,2.57c1.262-.2,2.53-.354,3.792-.471-.006.431,0,.865-.011,1.3a4.155,4.155,0,0,0-2.611.387" transform="translate(-8.388 -7.128)" fill="#fff"/>
    </g>
  </g>
</svg>
