<svg id="グループ_296" data-name="グループ 296" xmlns="http://www.w3.org/2000/svg" xmlns:xlink="http://www.w3.org/1999/xlink" width="130" height="130" viewBox="0 0 130 130">
  <defs>
    <clipPath id="clip-path">
      <rect id="長方形_429" data-name="長方形 429" width="130" height="130" fill="none"/>
    </clipPath>
  </defs>
  <rect id="長方形_428" data-name="長方形 428" width="130" height="130" fill="#e01f10"/>
  <g id="グループ_295" data-name="グループ 295">
    <g id="グループ_294" data-name="グループ 294" clip-path="url(#clip-path)">
      <path id="パス_554" data-name="パス 554" d="M15.817,38.577a4.557,4.557,0,0,1-1.928-2.555,13.949,13.949,0,0,1-.521-4.132H17.96a8.779,8.779,0,0,0,.4,3.107,1.528,1.528,0,0,0,1.561.964,1.53,1.53,0,0,0,1.346-.612,3.509,3.509,0,0,0,.536-1.668q.107-1.056.107-3.046a10.372,10.372,0,0,0-.413-3.381,1.639,1.639,0,0,0-1.7-1.117q-1.653,0-2.111,2.234h-4.07l.336-14.077H25.366v4.07H17.837l-.275,5.477a3.2,3.2,0,0,1,1.469-.872,6.937,6.937,0,0,1,2.234-.352,4.223,4.223,0,0,1,3.825,2.05,10.825,10.825,0,0,1,1.286,5.754,19.233,19.233,0,0,1-.521,4.881,5.527,5.527,0,0,1-1.974,3.06,6.688,6.688,0,0,1-4.146,1.117,7.234,7.234,0,0,1-3.917-.9" transform="translate(-2.793 -2.986)" fill="#fff"/>
      <path id="パス_555" data-name="パス 555" d="M106.317,62.088H90.086a.208.208,0,0,0-.206.206v5.394a.209.209,0,0,0,.206.208h6.463l-7.177,7.177a21.251,21.251,0,1,0-15.85,37.795v6.215h-6.4a.206.206,0,0,0-.21.206v5.781a.206.206,0,0,0,.21.206h6.4v6.116a.205.205,0,0,0,.206.206h5.778a.208.208,0,0,0,.21-.206v-6.116h6.4a.205.205,0,0,0,.206-.206v-5.781a.206.206,0,0,0-.206-.206h-6.4v-6.316a21.239,21.239,0,0,0,13.925-33.2l7.075-7.075v6.037a.209.209,0,0,0,.209.206h5.392a.209.209,0,0,0,.211-.206V62.294a.209.209,0,0,0-.211-.206M76.266,107.441A15.648,15.648,0,1,1,91.914,91.793a15.664,15.664,0,0,1-15.648,15.648" transform="translate(-11.492 -12.971)" fill="#fff"/>
      <path id="パス_556" data-name="パス 556" d="M88.9,91.519H69.916a.2.2,0,0,0-.206.185V96.3a.2.2,0,0,0,.206.188H88.9a.2.2,0,0,0,.21-.188V91.7a.2.2,0,0,0-.21-.185" transform="translate(-14.564 -19.12)" fill="#fff"/>
      <path id="パス_557" data-name="パス 557" d="M88.9,101.89H69.916a.2.2,0,0,0-.206.191v4.595a.2.2,0,0,0,.206.185H88.9a.2.2,0,0,0,.21-.185v-4.595a.2.2,0,0,0-.21-.191" transform="translate(-14.564 -21.287)" fill="#fff"/>
      <path id="パス_558" data-name="パス 558" d="M45.726,19.942A12.116,12.116,0,0,0,43.5,18.28c.24-.368.456-.757.7-1.135a9.753,9.753,0,0,1,2.252,1.616Zm-1.449,4.116c-.078-.131-.668-1.292-.668-1.363s.085-.083.133-.094a11.383,11.383,0,0,0,1.793-.543,15.081,15.081,0,0,0,5.145-3.942c.039.592.1,1.195.172,1.8a13.522,13.522,0,0,1-6.575,4.144m2.785-6.638a9.374,9.374,0,0,0-2.081-1.359c.23-.379.438-.768.65-1.159a8.25,8.25,0,0,1,2.148,1.347c-.23.4-.459.793-.718,1.171m2.891-.6a12.093,12.093,0,0,0-.8-1.5l.714-.38a13.6,13.6,0,0,1,.736,1.438Zm1.213-.48c-.259-.511-.517-1.046-.812-1.539l.687-.411a10.736,10.736,0,0,1,.754,1.494Z" transform="translate(-9.088 -3.006)" fill="#fff"/>
      <path id="パス_559" data-name="パス 559" d="M56.278,24.656V23.608h2.55V20.274H56.744V19.18h5.383v1.094H59.981v3.334H62.6v1.047Z" transform="translate(-11.757 -4.007)" fill="#fff"/>
      <path id="パス_560" data-name="パス 560" d="M70.1,23.36a8.147,8.147,0,0,1-1.678.6c-.058-.134-.659-1.4-.659-1.4,0-.044.046-.044.077-.044a1.8,1.8,0,0,0,.411-.056A9.807,9.807,0,0,0,71.3,21.153,16.883,16.883,0,0,0,74.855,18.2c.078.548.173,1.094.258,1.641A16.277,16.277,0,0,1,70.1,23.36m-.22-4.5a12.2,12.2,0,0,0-1.907-2.075c.373-.312.726-.647,1.088-.969a10.792,10.792,0,0,1,1.843,2.041,7.959,7.959,0,0,1-1.024,1" transform="translate(-14.157 -3.303)" fill="#fff"/>
      <path id="パス_561" data-name="パス 561" d="M85.833,17.077c-.039.134-.068.277-.108.41a9.362,9.362,0,0,1-.323,1.051,13.525,13.525,0,0,1-.841,1.939c.429.335.858.692,1.259,1.072-.247.334-.514.658-.793.969-.36-.355-.733-.7-1.1-1.037a8.179,8.179,0,0,1-3.493,2.644c-.268-.312-.555-.613-.851-.9a.1.1,0,0,1-.027-.055c0-.046.037-.046.058-.057a3.442,3.442,0,0,0,.552-.188A6.934,6.934,0,0,0,82.939,20.7c-.381-.312-.791-.579-1.19-.858.237-.313.447-.637.684-.949.382.267.755.547,1.126.836a7.836,7.836,0,0,0,.821-2.253c-.649,0-1.288.009-1.937.034A11.466,11.466,0,0,1,80.431,20.2c-.316-.244-.64-.49-.974-.715a9.239,9.239,0,0,0,2.626-4.8l1.286.545a.122.122,0,0,1,.078.123c0,.1-.107.134-.173.134-.123.29-.238.58-.362.858.9-.023,1.785-.023,2.682-.134A6.156,6.156,0,0,0,86,16.7c-.056.122-.123.256-.169.38m-.384-1.094c-.236-.491-.5-.968-.78-1.437l.715-.392a13.591,13.591,0,0,1,.714,1.429Zm1.3-.323a13.247,13.247,0,0,0-.784-1.494l.688-.412a9.157,9.157,0,0,1,.744,1.471Z" transform="translate(-16.6 -2.873)" fill="#fff"/>
      <path id="パス_562" data-name="パス 562" d="M98.483,21.231c-.543-.034-1.013-.045-1.448-.045-.507-.01-4.993,0-6.2.045-.018-.446-.04-1.015-.051-1.349-.011-.167.066-.089.125-.084.161.022.468.032.554.039.581.016,2.072-.021,2.737-.021,1.384,0,2.751-.034,4.3-.055-.029.445,0,1.024-.009,1.471" transform="translate(-18.966 -4.128)" fill="#fff"/>
      <path id="パス_563" data-name="パス 563" d="M108.454,21v3.657H107.3V21h-3.625V19.908H107.3v-3.7h-3.12v-1.07h7.4v1.07h-3.138v3.7h3.625V21Zm-2.73-1.519c-.335-.791-.676-1.595-1.077-2.341l1.02-.556a13.383,13.383,0,0,1,.9,2.407Zm5.325-2.041c-.332.7-.668,1.407-1.049,2.086l-.849-.4c.314-.836.6-1.7.849-2.566l1.146.525a.23.23,0,0,1,.134.19c0,.122-.154.165-.232.165" transform="translate(-21.659 -3.162)" fill="#fff"/>
      <path id="パス_564" data-name="パス 564" d="M119.189,16.239l.1.771-.781.212-.307-1h-.267a7.612,7.612,0,0,1-1.019,1.338l-.831-.545a6.319,6.319,0,0,0,1.412-2.778l1.1.357a.172.172,0,0,1,.123.146c0,.1-.106.167-.181.178a2.117,2.117,0,0,1-.2.4h1.853v.926Zm3.236,3.937-.012.669H124.3v.994h-1.87c0,1.706.17,2.665-1.566,2.967l-.65-.949c.66-.123,1.138-.179,1.138-1.1v-.914h-2.787c.286.267.551.545.818.837.2.21.413.4.6.634l-.716.8a20.791,20.791,0,0,0-1.611-1.561l.638-.714h-1.774v-.994h4.83v-.68h-5.118v-.936h3.512V18.56h-2.53v-.949h2.5v-.759l1.156.157c.047.009.047-.048.047.009,0,.078-.039.222-.1.245v.346H123.6v.949h-2.8v.669h3.7v.947Zm.7-3.891-.3.956L122,17.154l.038-.9h-.622a9.459,9.459,0,0,1-.592,1.015l-1.108-.412a8.035,8.035,0,0,0,1.308-2.565l1.126.335c.047.011.116.056.116.123,0,.1-.125.123-.191.123-.068.167-.144.323-.221.479h2.528v.938Z" transform="translate(-24.253 -2.973)" fill="#fff"/>
      <path id="パス_565" data-name="パス 565" d="M136.1,19.838a.237.237,0,0,1-.136-.054c-.657.232-1.924.759-2.524,1.047v1.717l-1.076-.011c.01-.156.01-.324.01-.514V21.4c-.727.36-1.093.814-1.093,1.328,0,.445.418.679,1.245.679a7.777,7.777,0,0,0,2.654-.442l-.036,1.3a7.162,7.162,0,0,1-2.287.323c-1.785,0-2.678-.592-2.678-1.783a2.243,2.243,0,0,1,.748-1.607,6.5,6.5,0,0,1,1.383-.96c-.018-.5-.163-.759-.427-.759a1.3,1.3,0,0,0-.938.423,8.9,8.9,0,0,0-.7.76c-.338.391-.546.657-.673.791-.165-.2-.42-.5-.756-.913a8.036,8.036,0,0,0,2.295-3.024c-.483.068-1.02.112-1.6.147-.033-.425-.089-.816-.146-1.161a15,15,0,0,0,2.088-.112,9.357,9.357,0,0,0,.308-1.538l1.232.289a.135.135,0,0,1,.109.133c0,.068-.045.124-.146.167-.045.192-.127.481-.244.859a13.365,13.365,0,0,0,1.7-.412l-.1,1.228c-.5.11-1.176.222-2.013.346a6.741,6.741,0,0,1-.564,1.114,1.768,1.768,0,0,1,.52-.077c.555,0,.92.388,1.085,1.191.728-.4,1.556-.812,2.458-1.236l.418,1.248c0,.088-.035.133-.108.133" transform="translate(-26.911 -3.103)" fill="#fff"/>
      <path id="パス_566" data-name="パス 566" d="M51.407,42.071a7.016,7.016,0,0,1-2.25-.992,4.832,4.832,0,0,1-1.547-1.65A5.631,5.631,0,0,1,43.982,42l-.646-.979a4.584,4.584,0,0,0,3.272-1.976H43.383v-.992h3.588c.009-.212.021-.423.021-.635h-2.72v-.958h2.749V35.77H44.863v-.956h2.158V34.1l1.115.079a.106.106,0,0,1,.115.111.181.181,0,0,1-.124.156v.369h2.224v.956H48.106v.694h2.872v.958h-2.89c-.011.212-.011.423-.011.635h3.751v.992H48.566a5.21,5.21,0,0,0,3.483,1.931Zm-.858-6.757V33.921H44.662v1.394H43.611V32.94H47v-1.2l1.183.077a.138.138,0,0,1,.153.134.239.239,0,0,1-.163.19v.8H51.65v2.375Z" transform="translate(-9.054 -6.63)" fill="#fff"/>
      <path id="パス_567" data-name="パス 567" d="M59.522,39.078c-.888.434-1.794.8-2.69,1.216-.019.068-.066.167-.134.167-.037,0-.087-.032-.126-.112l-.417-1.115c.465-.156.933-.312,1.4-.48V36.369h-1.1V35.4h1.1V33.466H56.373v-.958h3.16v.958h-.888V35.4h.792v.971h-.822v2.085c.308-.133.621-.278.927-.415Zm5.716,2.8a3.863,3.863,0,0,1-1.623.3c-.735,0-1.5-.144-1.5-1.214v-2.3h-.859c.088.068.543.4.543.513,0,.066-.085.111-.133.122a9.33,9.33,0,0,1-.6,1.105,5.729,5.729,0,0,1-2.34,2.007l-.821-.781a4.559,4.559,0,0,0,2.758-2.967h-.849V32.4h4.694v6.268H63.176v1.93c0,.368.105.612.449.612a2.754,2.754,0,0,0,1.709-.723Zm-1.822-8.5H60.867v.87h2.549Zm-2.549,1.764v.847h2.549l.009-.847Zm2.558,1.74H60.868V37.8h2.558Z" transform="translate(-11.732 -6.768)" fill="#fff"/>
      <path id="パス_568" data-name="パス 568" d="M75.329,41.091a4.428,4.428,0,0,1-2.529.757c-1.354,0-2.2-.9-2.28-2.488-.021-.21-.01-.423-.01-.634,0-.6.01-1.2.029-1.819.028-1.436.047-2.887.066-4.325.3.044.6.1.9.167a2.071,2.071,0,0,1,.372.079c.078.032.171.078.171.177a.225.225,0,0,1-.142.189c-.115,1.942-.2,3.9-.2,5.845,0,.992.382,1.6,1.27,1.6a2.624,2.624,0,0,0,1.212-.326A4.6,4.6,0,0,0,76.1,37.98l.7,1.449a5.473,5.473,0,0,1-1.471,1.661" transform="translate(-14.73 -6.807)" fill="#fff"/>
      <path id="パス_569" data-name="パス 569" d="M87.757,41.528a11.023,11.023,0,0,0-2.167-1.584,1.8,1.8,0,0,1-2.061,1.864c-.945,0-2.4-.557-2.4-1.9a1.85,1.85,0,0,1,2.09-1.806,4.82,4.82,0,0,1,1.192.143c0-1.558-.066-3.131-.191-4.681-.038-.382-.057-.759-.124-1.126l1.27.188c.058.011.163.066.163.156a.211.211,0,0,1-.105.155v.426c0,.49-.011.981.01,1.471h.115a10.219,10.219,0,0,0,1.316-.066c.342-.045.676-.123,1.01-.178,0,.434-.018.869-.028,1.316-.534.044-1.077.077-1.612.077-.248,0-.5-.011-.753-.021.027.893.037,1.785.067,2.687a15.918,15.918,0,0,1,2.986,1.7Zm-3.33-2.109a2.965,2.965,0,0,0-1.26-.287c-.333,0-.85.245-.85.7,0,.692.668.87,1.136.87a.856.856,0,0,0,.974-.971Z" transform="translate(-16.95 -6.778)" fill="#fff"/>
      <path id="パス_570" data-name="パス 570" d="M96.02,41.784c-.354-.323-.7-.658-1.077-.949a4.6,4.6,0,0,0,2.747-1.941,3.557,3.557,0,0,0,.372-1.638c0-.991-.324-1.562-1.21-1.562a7.893,7.893,0,0,0-2.7,1.195c-.066-.167-.525-1.316-.525-1.417,0-.079.094-.066.134-.066a6.271,6.271,0,0,0,1.184-.324,6.512,6.512,0,0,1,2.221-.568c1.528,0,2.2,1.2,2.2,2.865a4.766,4.766,0,0,1-3.34,4.4m1.67-8.041a13.94,13.94,0,0,0-2.7-1c.183-.4.353-.8.535-1.2a10.634,10.634,0,0,1,2.768,1.013c-.191.4-.382.8-.6,1.193" transform="translate(-19.56 -6.589)" fill="#fff"/>
    </g>
  </g>
</svg>
