<svg xmlns="http://www.w3.org/2000/svg" xmlns:xlink="http://www.w3.org/1999/xlink" width="130" height="130" viewBox="0 0 130 130">
  <defs>
    <clipPath id="clip-path">
      <rect id="長方形_410" data-name="長方形 410" width="130" height="130" fill="none"/>
    </clipPath>
  </defs>
  <g id="グループ_271" data-name="グループ 271" transform="translate(-558 -2221)">
    <g id="グループ_270" data-name="グループ 270" transform="translate(558 2221)">
      <rect id="長方形_409" data-name="長方形 409" width="130" height="130" fill="#cd7d00"/>
      <g id="グループ_269" data-name="グループ 269">
        <g id="グループ_268" data-name="グループ 268" clip-path="url(#clip-path)">
          <path id="パス_489" data-name="パス 489" d="M13.146,19.19a20.21,20.21,0,0,1-1.959.765q-1.285.43-1.622.581v-3.52a20.2,20.2,0,0,0,2.524-1.224,8.48,8.48,0,0,0,2.1-1.5h3.7V39.082H13.146Z" transform="translate(-1.999 -2.986)" fill="#fff"/>
          <path id="パス_490" data-name="パス 490" d="M23.415,35.666l6-9.272.367-.551a23.544,23.544,0,0,0,1.714-2.922,6.031,6.031,0,0,0,.551-2.586,3.056,3.056,0,0,0-.459-1.821,1.534,1.534,0,0,0-1.316-.627,1.8,1.8,0,0,0-1.774.979,6.1,6.1,0,0,0-.49,2.693V22.69H23.415V21.466a8.564,8.564,0,0,1,1.638-5.523q1.636-2.035,5.125-2.035a6.543,6.543,0,0,1,4.881,1.7,6.591,6.591,0,0,1,1.668,4.82,8.186,8.186,0,0,1-.429,2.663,11.949,11.949,0,0,1-1.009,2.234q-.583.979-1.806,2.785l-4.774,7.161h7.375V39H23.415Z" transform="translate(-4.892 -2.905)" fill="#fff"/>
          <path id="パス_491" data-name="パス 491" d="M104.376,84.147a21.425,21.425,0,0,0-16.207-3.983l-.325.075c-3.232.763-8.366,2.027-14.375,9.483-.034.041-.069.084-.1.127l-.076.092a.491.491,0,0,0-.035.54l.139.229c.755,1.262,1.706,2.886,2.509,4.382a.352.352,0,0,1,.022.046.516.516,0,0,0,.458.282.5.5,0,0,0,.355-.144c.038-.049.076-.1.109-.153,5.334-7.376,9.528-8.394,12.365-9.062l.339-.08a15.526,15.526,0,0,1,11.112,2.859c3.155,2.49,4.755,6.453,4.755,11.776,0,8.931-4.342,12.424-7.988,13.781-5.646,2.111-11.061-.711-11.1-.733l-.242-.118c-3.1-1.346-7.73-4.148-12.092-12.91C65.208,82.979,57.853,81.316,52.987,80.214l-.26-.058a21,21,0,0,0-15.959,3.97c-3.161,2.521-6.925,7.423-6.925,16.454,0,5.5,1.13,9.135,4.035,12.958.637.871,7.149,9.236,19.737,6.824a18.911,18.911,0,0,0,7.746-3.6l2.77,2.5a.454.454,0,0,0,.635-.032.422.422,0,0,0,.112-.3v-.037l2-12.295,0-.136a.441.441,0,0,0-.149-.328.415.415,0,0,0-.293-.112l-.085.009-.13.013-11.777,3.3-.214.035a.412.412,0,0,0-.225.132.445.445,0,0,0,.033.638l.138.127,2.639,2.384a12.289,12.289,0,0,1-4.322,1.829c-9.108,1.737-13.6-4.228-13.776-4.462l-.063-.087c-2.116-2.779-2.83-5.14-2.83-9.358,0-5.339,1.572-9.3,4.674-11.781A15.08,15.08,0,0,1,51.4,85.988l.264.059c3.988.9,9.452,2.138,16.977,17.256,3.91,7.848,8.806,12.98,14.966,15.686a21.754,21.754,0,0,0,9.381,2.175,18.671,18.671,0,0,0,6.535-1.158c3.571-1.333,11.878-5.887,11.878-19.389,0-9.025-3.822-13.937-7.028-16.47" transform="translate(-6.235 -16.685)" fill="#fff"/>
          <path id="パス_492" data-name="パス 492" d="M63.71,23.265a8.915,8.915,0,0,1-1.775.412c-.293-.354-.571-.733-.886-1.058a13.623,13.623,0,0,0,2.28-.525,2.73,2.73,0,0,0,2.14-2.61c0-1.471-.776-1.961-1.93-1.961-1.592,0-3.091,1.127-4.657,1.516-.046-.157-.477-1.4-.477-1.461,0-.112.144-.066.211-.066a8.593,8.593,0,0,0,2.376-.58,8.983,8.983,0,0,1,2.891-.613,2.837,2.837,0,0,1,2.87,3.056c0,2.319-1.3,3.313-3.043,3.891" transform="translate(-12.202 -3.409)" fill="#fff"/>
          <path id="パス_493" data-name="パス 493" d="M76.8,23.82a18.391,18.391,0,0,0-2.874-3.247,8.33,8.33,0,0,0-.83-.725,2.335,2.335,0,0,1-.477-.423.958.958,0,0,1-.18-.6,1.3,1.3,0,0,1,.437-.949c.46-.491.937-.949,1.384-1.448.669-.759,1.347-1.519,2-2.32.277.233.553.456.831.691a2.068,2.068,0,0,1,.314.269.137.137,0,0,1,.049.1c0,.156-.212.176-.316.156-.631.6-1.279,1.19-1.919,1.806-.267.255-.513.535-.782.791-.124.123-.265.235-.381.369a.72.72,0,0,0-.231.445.43.43,0,0,0,.172.335c.4.379.85.7,1.261,1.06a19.009,19.009,0,0,1,2.536,2.733c-.334.311-.657.646-.99.958" transform="translate(-15.134 -2.947)" fill="#fff"/>
          <path id="パス_494" data-name="パス 494" d="M86.058,23.666c-.79,0-2.069-.324-2.069-1.494a1.288,1.288,0,0,1,1.375-1.216,1.412,1.412,0,0,1,1.318,1,2.751,2.751,0,0,1,.1.615A1.7,1.7,0,0,0,88,20.92a1.572,1.572,0,0,0-1.668-1.7c-1.441,0-2.273,1.326-3.17,2.43-.294-.3-.593-.6-.888-.9a23.67,23.67,0,0,0,3.617-4.705c-.763.176-1.527.323-2.289.479L83.39,15.2a2.285,2.285,0,0,0,.3.013,9.657,9.657,0,0,0,1.27-.111,16.049,16.049,0,0,0,1.748-.314,6.178,6.178,0,0,0,.6-.19c.22.3.441.592.66.893a3.139,3.139,0,0,0-.286.245,8.321,8.321,0,0,0-.62.747c-.459.6-.888,1.227-1.327,1.84a3.343,3.343,0,0,1,.877-.1,2.381,2.381,0,0,1,2.541,2.509,2.822,2.822,0,0,1-3.1,2.934m-.808-1.819c-.184,0-.3.078-.3.3,0,.414.543.47.793.47-.05-.324-.145-.77-.5-.77" transform="translate(-17.188 -3.05)" fill="#fff"/>
          <path id="パス_495" data-name="パス 495" d="M102.4,24.075a7.9,7.9,0,0,1-2.929-1.151l.581-.657H97.417l.565.613a.136.136,0,0,1-.122.144.342.342,0,0,1-.174-.055,8.066,8.066,0,0,1-2.615,1.073l-.717-.949a4.7,4.7,0,0,0,2.348-.827H95.625V18.1h6.2v4.169h-1.135a5.768,5.768,0,0,0,2.433.725Zm-7.987-6.314v-.869h3.713v-.345H95.481v-.816h2.645v-.366H94.862V14.44h3.252v-.871l1.174.078a.146.146,0,0,1,.155.134.206.206,0,0,1-.155.19v.468h3.34v.926H99.26v.366h2.615v.816H99.26v.345h3.723v.869Zm6.317,1.094H96.666v.379h4.065Zm.01,1.081H96.666v.4h4.075Zm0,1.116H96.666v.4h4.075Z" transform="translate(-19.713 -2.835)" fill="#fff"/>
          <path id="パス_496" data-name="パス 496" d="M110.727,14.557c-.267.736-.555,1.471-.88,2.175v7.092h-1.107v-5.3a4.192,4.192,0,0,1-.7.994l-.7-.849a11.4,11.4,0,0,0,2.27-4.961l1.27.522a.153.153,0,0,1,.094.136c0,.122-.18.177-.256.188m3.235,4.651v3.344h2.233v1.005H110.6V22.552h2.206V19.208h-2.414v-.992h2.414V15.985c-.632.1-1.272.179-1.9.247l-.43-.983a12.708,12.708,0,0,0,4.773-1.2l.86,1.239a.163.163,0,0,1-.165.133.325.325,0,0,1-.168-.066c-.6.167-1.195.323-1.8.434v2.432h2.444v.992Z" transform="translate(-22.427 -2.864)" fill="#fff"/>
          <path id="パス_497" data-name="パス 497" d="M63.427,41.466a8.915,8.915,0,0,1-1.775.412c-.293-.358-.571-.735-.886-1.061a13.307,13.307,0,0,0,2.28-.522,2.734,2.734,0,0,0,2.14-2.61c0-1.471-.776-1.963-1.93-1.963-1.592,0-3.091,1.126-4.657,1.516-.046-.156-.477-1.406-.477-1.461,0-.11.144-.065.211-.065a8.584,8.584,0,0,0,2.376-.581,8.992,8.992,0,0,1,2.892-.613,2.838,2.838,0,0,1,2.87,3.056c0,2.319-1.3,3.313-3.043,3.892" transform="translate(-12.143 -7.211)" fill="#fff"/>
          <path id="パス_498" data-name="パス 498" d="M75.62,41.144a1.475,1.475,0,0,1-1.079.337,2.273,2.273,0,0,1-.935-.215c-.036-.434-.056-.858-.116-1.282a2.143,2.143,0,0,0,1.051.324c.774,0,.763-2.521.763-3.144,0-.459.011-1.284-.534-1.284a2.522,2.522,0,0,0-.572.089,21.938,21.938,0,0,1-2.034,5.544c-.372-.181-.723-.413-1.1-.6A15.6,15.6,0,0,0,73,36.17c-.438.088-.877.188-1.308.313-.038-.146-.277-1.171-.277-1.216a.041.041,0,0,1,.046-.044c.087,0,.165.02.25.02a8.85,8.85,0,0,0,1.527-.188,18.873,18.873,0,0,0,.342-2.664c.307.078.594.165.89.255a2.212,2.212,0,0,1,.373.123c.047.021.114.045.114.112s-.078.123-.125.145c-.115.635-.237,1.27-.4,1.884A5.12,5.12,0,0,1,75,34.855a1.143,1.143,0,0,1,1.267.947,6.232,6.232,0,0,1,.183,1.7c0,.992-.144,2.977-.831,3.646m2.368-2.107c-.21-.323-.44-.624-.669-.935.276-.046.973-.213.973-.636a5.35,5.35,0,0,0-1.373-2.509c.335-.214.667-.434,1-.648a6.37,6.37,0,0,1,1.592,3.333c0,.895-.944,1.195-1.524,1.4" transform="translate(-14.848 -6.767)" fill="#fff"/>
          <path id="パス_499" data-name="パス 499" d="M86.491,42.2c-.355-.323-.706-.657-1.08-.947a4.6,4.6,0,0,0,2.747-1.939,3.546,3.546,0,0,0,.376-1.64c0-.993-.328-1.562-1.213-1.562a7.9,7.9,0,0,0-2.7,1.195c-.07-.169-.525-1.318-.525-1.417,0-.079.094-.068.133-.068a6.086,6.086,0,0,0,1.183-.324,6.564,6.564,0,0,1,2.224-.57c1.527,0,2.194,1.2,2.194,2.868a4.767,4.767,0,0,1-3.338,4.4m1.668-8.037a13.876,13.876,0,0,0-2.7-1.005c.181-.4.354-.8.535-1.2a10.671,10.671,0,0,1,2.77,1.013c-.191.4-.385.8-.606,1.2" transform="translate(-17.569 -6.676)" fill="#fff"/>
          <path id="パス_500" data-name="パス 500" d="M102.258,42.275a7.9,7.9,0,0,1-2.929-1.151l.581-.657H97.275l.565.615a.139.139,0,0,1-.125.146.376.376,0,0,1-.173-.057,7.933,7.933,0,0,1-2.611,1.069l-.718-.947a4.687,4.687,0,0,0,2.347-.825H95.483V36.3h6.2v4.171H100.55a5.793,5.793,0,0,0,2.433.726ZM94.27,35.962v-.869h3.715v-.347H95.34v-.813h2.645v-.368H94.719v-.926h3.254V31.77l1.173.077a.145.145,0,0,1,.153.134.2.2,0,0,1-.153.189v.469h3.34v.926H99.12v.368h2.614v.813H99.12v.347h3.721v.869Zm6.319,1.093H96.521v.377h4.069Zm.008,1.084H96.521v.4H100.6Zm0,1.112H96.521v.4H100.6Z" transform="translate(-19.683 -6.637)" fill="#fff"/>
          <path id="パス_501" data-name="パス 501" d="M110.446,32.759c-.269.736-.555,1.472-.879,2.174v7.092h-1.109v-5.3a4.3,4.3,0,0,1-.694.992l-.7-.849a11.37,11.37,0,0,0,2.271-4.961l1.27.524a.15.15,0,0,1,.1.134c0,.122-.184.177-.258.19m3.233,4.649v3.345h2.233v1h-5.591v-1h2.2V37.408h-2.414v-.992h2.414V34.187c-.631.1-1.269.179-1.9.244l-.43-.981a12.649,12.649,0,0,0,4.772-1.2l.859,1.237a.157.157,0,0,1-.162.133.349.349,0,0,1-.171-.063c-.6.167-1.194.321-1.8.433v2.432h2.442v.992Z" transform="translate(-22.368 -6.667)" fill="#fff"/>
        </g>
      </g>
    </g>
  </g>
</svg>
