<svg xmlns="http://www.w3.org/2000/svg" xmlns:xlink="http://www.w3.org/1999/xlink" width="120" height="120" viewBox="0 0 120 120">
  <defs>
    <clipPath id="clip-path">
      <rect id="長方形_404" data-name="長方形 404" width="120" height="82.371" fill="#ffb293"/>
    </clipPath>
  </defs>
  <g id="グループ_258" data-name="グループ 258" transform="translate(-950 -892)">
    <rect id="長方形_402" data-name="長方形 402" width="120" height="120" transform="translate(950 892)" fill="none"/>
    <g id="グループ_257" data-name="グループ 257" transform="translate(950 911)">
      <g id="グループ_256" data-name="グループ 256" transform="translate(0 0)" clip-path="url(#clip-path)">
        <path id="パス_456" data-name="パス 456" d="M75.589,62.877a1.255,1.255,0,0,0,.175.035h2.747c-3.764,11.34-10.27,18.7-17.326,19.45V69.482a143.484,143.484,0,0,0,14.4-6.605m-16.8,19.494c-4.289-.459-8.466-3.365-11.934-8.324A105.044,105.044,0,0,0,58.789,70.4ZM23.556,21.864H38.262a72.825,72.825,0,0,0-2.5,18.127h-17a40.972,40.972,0,0,1,4.791-18.127m37.63-2.4V0c7.328.752,13.7,8.356,17.362,19.468Zm18.094,2.4a71.235,71.235,0,0,1,2.535,18.127H61.186V21.864Zm-20.49-2.4H41.43C45.089,8.356,51.463.752,58.789,0Zm0,2.4V39.991H38.163A71.235,71.235,0,0,1,40.7,21.864Zm0,20.523V60.516H40.715a70.869,70.869,0,0,1-2.538-18.128Zm-23.008,0a73.64,73.64,0,0,0,2.457,18.128H23.556a40.977,40.977,0,0,1-4.791-18.128ZM24.938,62.912H38.96a52.036,52.036,0,0,0,3.107,7.728c-2.663,1.023-5.293,1.936-7.868,2.715a41.542,41.542,0,0,1-9.26-10.443M44.3,69.767a48.664,48.664,0,0,1-2.833-6.855H58.735A143.828,143.828,0,0,1,44.3,69.767m18.558-9.185a1.143,1.143,0,0,0-.332-.067H61.186V42.387H81.807c-.026,1.7-.093,3.394-.23,5.057,0,.04.013.075.013.115a141.059,141.059,0,0,1-18.73,13.023M84.2,42.387h3.219Q85.83,43.906,84.1,45.425q.079-1.513.1-3.037m5.651-2.4H84.211a72.769,72.769,0,0,0-2.5-18.127H96.438a41.393,41.393,0,0,1,2.712,6.345,62.264,62.264,0,0,1-9.3,11.782m5.232-20.523H81C78.385,11.3,74.35,4.786,69.5,1.046A41.115,41.115,0,0,1,95.087,19.468M50.46,1.058C45.618,4.8,41.59,11.309,38.978,19.468H24.937A41.389,41.389,0,0,1,50.46,1.058M1.036,71.458C-2.578,65.2,3.433,53.664,16.354,41.8a43.462,43.462,0,0,0,1.877,12.1,1.224,1.224,0,0,0-.107.129c-3.335,6.217-3.9,11.583-1.626,15.517,1.686,2.922,4.806,4.869,9.176,5.776-12.509,2.6-21.686,1.251-24.639-3.864m36.335,4.208a65.417,65.417,0,0,0,6.963-1.054A27.247,27.247,0,0,0,50.382,81.3a41.036,41.036,0,0,1-13.011-5.637m32.283,5.626c4.753-3.661,8.752-10.015,11.387-18.38h14a41.454,41.454,0,0,1-25.386,18.38M96.429,60.516H81.737c.072-.267.153-.521.223-.791a1.182,1.182,0,0,0,.023-.4,145.224,145.224,0,0,0,18.96-13.175,40.861,40.861,0,0,1-4.513,14.37m-16.694-2.65c-11.8,6.815-23.989,11.752-34.479,14.1A148.564,148.564,0,0,0,63.395,63.05c29.05-16.773,46.657-38.83,40.083-50.216-1.687-2.922-4.807-4.869-9.177-5.776,12.511-2.6,21.684-1.252,24.64,3.864,5.7,9.882-12.249,31.381-39.206,46.944" transform="translate(0 0)" fill="#ffb293"/>
      </g>
    </g>
  </g>
</svg>
