<svg xmlns="http://www.w3.org/2000/svg" width="120" height="120" viewBox="0 0 120 120">
  <g id="グループ_252" data-name="グループ 252" transform="translate(-580 -892)">
    <path id="合体_4" data-name="合体 4" d="M10114.294,18480.244c-36.823-8.33-78.924-8.93-115.579-.365a1.867,1.867,0,0,1-2.274-1.018,2.205,2.205,0,0,1,.779-2.336c3.987-2.8,8.42-4.367,13.13-5.818l.373-9.426a2.077,2.077,0,0,1,.889-1.213c.313-.141,1.058.584,1.074.99l.361,8.887,11.179-2.158c29.731-4.043,62.973-1.768,90.9,9.656.522.211.784,1.156.733,1.6a1.58,1.58,0,0,1-1.343,1.23A.891.891,0,0,1,10114.294,18480.244Zm-3.955-7.961a147.322,147.322,0,0,0-21.033-5.963l-.045-11.68-2.753-.057c-.255,0-.762-.721-.694-.973a3.834,3.834,0,0,1,.662-1.207l13-15.223a2.94,2.94,0,0,1,1.019-.814,2.273,2.273,0,0,1,1.484.521l13.792,15.707a2.958,2.958,0,0,1,.217,1.2,1.615,1.615,0,0,1-1.173.826l-2.47.041-.006,17.033c0,.6-.467.779-.986.779A3.188,3.188,0,0,1,10110.339,18472.283Zm-16.4-10.352,5.306-.055-.065-7.236-5.179-.045Zm8.6-7.242.011,7.188,5.268.031-.051-7.279Zm-34.521,8.617-.011-33.693a1.429,1.429,0,0,1,1.5-1.355h23.007a1.535,1.535,0,0,1,1.2,1.279l.04,9.414-3.6,4.066-.316-6.941-5.835.023-.083,7.625,5.623.348-5.823,6.883a3.389,3.389,0,0,0-.75,3.447,3.76,3.76,0,0,0,2.958,2.063l-.021,9.182Zm5.45-14.3.039,7.576,6.057.012-.077-7.648Zm-.05-11.93.089,6.781,6.04.016-.077-7.752-5.206-.055s0,0,0,0C10073.979,18436.064,10073.417,18436.783,10073.422,18437.076Zm-39.947-35.385a1.535,1.535,0,0,1,1.262-1.369l28.252-.012a1.443,1.443,0,0,1,1.2,1.385l0,61.32a222.343,222.343,0,0,0-30.7.506Zm12.186,44.908-5.534.2.022,9.836,6.579-.045.05-8.98c0-.373-.736-1.006-1.1-1.006Zm-5.562-5.568,5.572.152c.385,0,1.107-.664,1.1-1.025l-.105-6.607-6.552-.023Zm11.189-7.406.045,7.479,6.574-.109-.039-7.377Zm-11.267-7.074c-.018.711.173,2.018.9,2.014l5.712-.035.083-7.531-6.562-.01Zm11.307-5.523,0,7.453,6.58-.006-.1-7.525Zm-11.251-12.652.056,7.574,6.618-.084-.051-7.547Zm11.206,0,.089,7.539,6.535-.1-.1-7.486Zm-52.861,47.547a10.315,10.315,0,0,1,.055-13.344c-2.98-5.178-1.424-11.684,4.082-14.17a12.736,12.736,0,0,1,3.927-10.582,7.482,7.482,0,0,1,9.427-.77c4.477,3.082,5.935,8.85,5.229,14.461a9.337,9.337,0,0,1,5.35,13.029,10.377,10.377,0,0,1-.3,10.021,11.178,11.178,0,0,1-12.479,5.084l-.072-6.713,6.3-6.529a1.757,1.757,0,0,0,.089-1.973,1.719,1.719,0,0,0-2.17-.135l-4.343,4.34-.322-15.49a1.651,1.651,0,0,0-1.318-1.668,1.608,1.608,0,0,0-1.685,1.48l-.251,11.662-4.3-3.973a2.007,2.007,0,0,0-1.9.02,1.652,1.652,0,0,0-.185,1.988l6.3,6.3-.017,10.678a10.456,10.456,0,0,1-2.952.428A11.079,11.079,0,0,1,9998.421,18455.926Zm76.992-46.627a5.409,5.409,0,0,1,7.107-3.982,8.873,8.873,0,0,1,8.309-8.293,9,9,0,0,1,9.438,7.4,5.8,5.8,0,0,1,7.836,4.115c.739,3.047-1.379,7.045-5.167,7.061l-22.256.09h-.028A5.353,5.353,0,0,1,10075.413,18409.3Z" transform="translate(-9416 -17487)" fill="#ffb293"/>
    <rect id="長方形_402" data-name="長方形 402" width="120" height="120" transform="translate(580 892)" fill="none"/>
  </g>
</svg>
