<svg xmlns="http://www.w3.org/2000/svg" xmlns:xlink="http://www.w3.org/1999/xlink" width="120" height="120" viewBox="0 0 120 120">
  <defs>
    <clipPath id="clip-path">
      <rect id="長方形_403" data-name="長方形 403" width="110.031" height="120" fill="#ffb293"/>
    </clipPath>
  </defs>
  <g id="グループ_255" data-name="グループ 255" transform="translate(-210 -892)">
    <rect id="長方形_402" data-name="長方形 402" width="120" height="120" transform="translate(210 892)" fill="none"/>
    <g id="グループ_254" data-name="グループ 254" transform="translate(215 892)">
      <g id="グループ_253" data-name="グループ 253" transform="translate(0 0)" clip-path="url(#clip-path)">
        <path id="パス_454" data-name="パス 454" d="M60.852,87.768c4.152-3.508,7.608-9.232,9.9-16.317H83.143A37.822,37.822,0,0,1,60.852,87.768M13.658,52.6H28.873A67.018,67.018,0,0,0,31.1,68.853H17.976A37.431,37.431,0,0,1,13.658,52.6m4.318-18.848H31.1A67.089,67.089,0,0,0,28.873,50H13.658a37.431,37.431,0,0,1,4.318-16.251M88.97,50H73.755a66.965,66.965,0,0,0-2.228-16.251H84.654A37.43,37.43,0,0,1,88.97,50M84.654,68.853H71.528A67.02,67.02,0,0,0,73.755,52.6H88.97a37.43,37.43,0,0,1-4.317,16.251m-32.04,0V52.6H71.159a65.381,65.381,0,0,1-2.275,16.251Zm15.473,2.6C64.78,81.332,59.12,88.1,52.614,88.9V71.452ZM71.159,50H52.614V33.754h16.27A65.381,65.381,0,0,1,71.159,50M52.614,31.155V13.7c6.506.8,12.165,7.572,15.473,17.451ZM50.016,13.7V31.155H34.543C37.85,21.276,43.51,14.506,50.016,13.7m0,20.05V50H31.47a65.323,65.323,0,0,1,2.275-16.251ZM31.47,52.6H50.016V68.853H33.746A65.323,65.323,0,0,1,31.47,52.6m18.545,18.85V88.9c-6.506-.8-12.167-7.572-15.474-17.452Zm33.126-40.3H70.751C68.46,24.072,65,18.348,60.852,14.84a37.827,37.827,0,0,1,22.29,16.315M41.778,14.84c-4.152,3.508-7.608,9.232-9.9,16.315H19.487A37.834,37.834,0,0,1,41.778,14.84M19.487,71.452H31.878c2.292,7.085,5.747,12.809,9.9,16.317A37.818,37.818,0,0,1,19.487,71.452" transform="translate(3.596 3.608)" fill="#ffb293"/>
        <path id="パス_455" data-name="パス 455" d="M109.786,66.617c-3.792,7.567-13.764,21.123-37.516,25.047A42.734,42.734,0,0,0,47.7,105.451l-2.145-.27A51.127,51.127,0,1,1,106,53.055a1.9,1.9,0,0,0,1.889,1.857h0a1.892,1.892,0,0,0,1.9-1.935,54.915,54.915,0,1,0-64.918,55.93c5.523.659,20.5,1.655,32.132-4.9a1.41,1.41,0,0,1,1.385,2.457c-7.74,4.361-16.654,5.614-23.7,5.763a72.164,72.164,0,0,1-8.091-.287c6.565,5.364,23.044,14.96,45.036.244C110.2,99.755,110.648,76.9,109.786,66.617" transform="translate(0 -0.001)" fill="#ffb293"/>
      </g>
    </g>
  </g>
</svg>
